%TF.GenerationSoftware,KiCad,Pcbnew,10.0.0*%
%TF.CreationDate,2026-05-26T16:27:38-04:00*%
%TF.ProjectId,keyboard,6b657962-6f61-4726-942e-6b696361645f,rev?*%
%TF.SameCoordinates,Original*%
%TF.FileFunction,Copper,L1,Top*%
%TF.FilePolarity,Positive*%
%FSLAX46Y46*%
G04 Gerber Fmt 4.6, Leading zero omitted, Abs format (unit mm)*
G04 Created by KiCad (PCBNEW 10.0.0) date 2026-05-26 16:27:38*
%MOMM*%
%LPD*%
G01*
G04 APERTURE LIST*
G04 Aperture macros list*
%AMRoundRect*
0 Rectangle with rounded corners*
0 $1 Rounding radius*
0 $2 $3 $4 $5 $6 $7 $8 $9 X,Y pos of 4 corners*
0 Add a 4 corners polygon primitive as box body*
4,1,4,$2,$3,$4,$5,$6,$7,$8,$9,$2,$3,0*
0 Add four circle primitives for the rounded corners*
1,1,$1+$1,$2,$3*
1,1,$1+$1,$4,$5*
1,1,$1+$1,$6,$7*
1,1,$1+$1,$8,$9*
0 Add four rect primitives between the rounded corners*
20,1,$1+$1,$2,$3,$4,$5,0*
20,1,$1+$1,$4,$5,$6,$7,0*
20,1,$1+$1,$6,$7,$8,$9,0*
20,1,$1+$1,$8,$9,$2,$3,0*%
G04 Aperture macros list end*
%TA.AperFunction,ComponentPad*%
%ADD10RoundRect,0.250000X0.550000X-0.550000X0.550000X0.550000X-0.550000X0.550000X-0.550000X-0.550000X0*%
%TD*%
%TA.AperFunction,ComponentPad*%
%ADD11C,1.600000*%
%TD*%
%TA.AperFunction,ComponentPad*%
%ADD12R,1.700000X1.700000*%
%TD*%
%TA.AperFunction,ComponentPad*%
%ADD13C,1.700000*%
%TD*%
%TA.AperFunction,ComponentPad*%
%ADD14C,2.200000*%
%TD*%
%TA.AperFunction,SMDPad,CuDef*%
%ADD15RoundRect,0.250000X-0.450000X0.800000X-0.450000X-0.800000X0.450000X-0.800000X0.450000X0.800000X0*%
%TD*%
%TA.AperFunction,ComponentPad*%
%ADD16R,1.752600X1.752600*%
%TD*%
%TA.AperFunction,ComponentPad*%
%ADD17C,1.752600*%
%TD*%
%TA.AperFunction,ViaPad*%
%ADD18C,0.600000*%
%TD*%
%TA.AperFunction,Conductor*%
%ADD19C,0.200000*%
%TD*%
G04 APERTURE END LIST*
D10*
%TO.P,D32,1,K_1*%
%TO.N,/ROW4*%
X241000000Y-94620000D03*
D11*
%TO.P,D32,2,A_2*%
%TO.N,Net-(D32-A)*%
X241000000Y-87000000D03*
%TD*%
D12*
%TO.P,J1,1,Pin_1_1*%
%TO.N,GND*%
X317750000Y-83560000D03*
D13*
%TO.P,J1,2,Pin_2_2*%
%TO.N,/VCC*%
X320290000Y-83560000D03*
%TO.P,J1,3,Pin_3_3*%
%TO.N,/SCL*%
X322830000Y-83560000D03*
%TO.P,J1,4,Pin_4_4*%
%TO.N,/SDA*%
X325370000Y-83560000D03*
%TD*%
D10*
%TO.P,D13,1,K_1*%
%TO.N,/ROW1*%
X198500000Y-75310000D03*
D11*
%TO.P,D13,2,A_2*%
%TO.N,Net-(D13-A)*%
X198500000Y-67690000D03*
%TD*%
D10*
%TO.P,D8,1,K_1*%
%TO.N,/ROW1*%
X193500000Y-111810000D03*
D11*
%TO.P,D8,2,A_2*%
%TO.N,Net-(D8-A)*%
X193500000Y-104190000D03*
%TD*%
D14*
%TO.P,SW22,1,1_1*%
%TO.N,Net-(D22-A)*%
X210540000Y-66245000D03*
%TO.P,SW22,2,2_2*%
%TO.N,/COL6*%
X204190000Y-68785000D03*
%TD*%
%TO.P,SW40,1,1_1*%
%TO.N,Net-(D28-A)*%
X248640000Y-66245000D03*
%TO.P,SW40,2,2_2*%
%TO.N,/COL0*%
X242290000Y-68785000D03*
%TD*%
%TO.P,SW30,1,1_1*%
%TO.N,Net-(D38-A)*%
X115290000Y-66245000D03*
%TO.P,SW30,2,2_2*%
%TO.N,/COL4*%
X108940000Y-68785000D03*
%TD*%
%TO.P,SW29,1,1_1*%
%TO.N,Net-(D31-A)*%
X201015000Y-47195000D03*
%TO.P,SW29,2,2_2*%
%TO.N,/COL4*%
X194665000Y-49735000D03*
%TD*%
D10*
%TO.P,D39,1,K_1*%
%TO.N,/ROW5*%
X108000000Y-94620000D03*
D11*
%TO.P,D39,2,A_2*%
%TO.N,Net-(D39-A)*%
X108000000Y-87000000D03*
%TD*%
D10*
%TO.P,D41,1,K_1*%
%TO.N,/ROW5*%
X141500000Y-76120000D03*
D11*
%TO.P,D41,2,A_2*%
%TO.N,Net-(D41-A)*%
X141500000Y-68500000D03*
%TD*%
D14*
%TO.P,SW17,1,1_1*%
%TO.N,Net-(D17-A)*%
X205777500Y-104345000D03*
%TO.P,SW17,2,2_2*%
%TO.N,/COL4*%
X199427500Y-106885000D03*
%TD*%
%TO.P,SW3,1,1_1*%
%TO.N,Net-(D3-A)*%
X258165000Y-47195000D03*
%TO.P,SW3,2,2_2*%
%TO.N,/COL4*%
X251815000Y-49735000D03*
%TD*%
%TO.P,SW46,1,1_1*%
%TO.N,Net-(D44-A)*%
X124815000Y-47195000D03*
%TO.P,SW46,2,2_2*%
%TO.N,/COL5*%
X118465000Y-49735000D03*
%TD*%
D10*
%TO.P,D50,1,K_1*%
%TO.N,/ROW7*%
X303000000Y-113810000D03*
D11*
%TO.P,D50,2,A_2*%
%TO.N,Net-(D50-A)*%
X303000000Y-106190000D03*
%TD*%
D10*
%TO.P,D56,1,K_1*%
%TO.N,/ROW7*%
X57000000Y-113310000D03*
D11*
%TO.P,D56,2,A_2*%
%TO.N,Net-(D56-A)*%
X57000000Y-105690000D03*
%TD*%
D14*
%TO.P,SW32,1,1_1*%
%TO.N,Net-(D32-A)*%
X234352500Y-85295000D03*
%TO.P,SW32,2,2_2*%
%TO.N,/COL3*%
X228002500Y-87835000D03*
%TD*%
D10*
%TO.P,D44,1,K_1*%
%TO.N,/ROW6*%
X132000000Y-55310000D03*
D11*
%TO.P,D44,2,A_2*%
%TO.N,Net-(D44-A)*%
X132000000Y-47690000D03*
%TD*%
D10*
%TO.P,D1,1,K_1*%
%TO.N,/ROW0*%
X36500000Y-55500000D03*
D11*
%TO.P,D1,2,A_2*%
%TO.N,Net-(D1-A)*%
X36500000Y-47880000D03*
%TD*%
D10*
%TO.P,D35,1,K_1*%
%TO.N,/ROW4*%
X260000000Y-95120000D03*
D11*
%TO.P,D35,2,A_2*%
%TO.N,Net-(D35-A)*%
X260000000Y-87500000D03*
%TD*%
D14*
%TO.P,SW38,1,1_1*%
%TO.N,Net-(D34-A)*%
X220065000Y-47195000D03*
%TO.P,SW38,2,2_2*%
%TO.N,/COL1*%
X213715000Y-49735000D03*
%TD*%
D10*
%TO.P,D11,1,K_1*%
%TO.N,/ROW1*%
X169500000Y-56120000D03*
D11*
%TO.P,D11,2,A_2*%
%TO.N,Net-(D11-A)*%
X169500000Y-48500000D03*
%TD*%
D14*
%TO.P,SW34,1,1_1*%
%TO.N,Net-(D26-A)*%
X129577500Y-104345000D03*
%TO.P,SW34,2,2_2*%
%TO.N,/COL2*%
X123227500Y-106885000D03*
%TD*%
%TO.P,SW37,1,1_1*%
%TO.N,Net-(D27-A)*%
X105765000Y-47195000D03*
%TO.P,SW37,2,2_2*%
%TO.N,/COL1*%
X99415000Y-49735000D03*
%TD*%
D10*
%TO.P,D54,1,K_1*%
%TO.N,/ROW7*%
X300000000Y-75810000D03*
D11*
%TO.P,D54,2,A_2*%
%TO.N,Net-(D54-A)*%
X300000000Y-68190000D03*
%TD*%
D10*
%TO.P,D38,1,K_1*%
%TO.N,/ROW5*%
X122500000Y-76620000D03*
D11*
%TO.P,D38,2,A_2*%
%TO.N,Net-(D38-A)*%
X122500000Y-69000000D03*
%TD*%
D14*
%TO.P,SW57,1,1_1*%
%TO.N,Net-(D61-A)*%
X34327500Y-66245000D03*
%TO.P,SW57,2,2_2*%
%TO.N,/COL2*%
X27977500Y-68785000D03*
%TD*%
D10*
%TO.P,D16,1,K_1*%
%TO.N,/ROW2*%
X98500000Y-113620000D03*
D11*
%TO.P,D16,2,A_2*%
%TO.N,Net-(D16-A)*%
X98500000Y-106000000D03*
%TD*%
D10*
%TO.P,D60,1,K_1*%
%TO.N,/ROW8*%
X40500000Y-132810000D03*
D11*
%TO.P,D60,2,A_2*%
%TO.N,Net-(D60-A)*%
X40500000Y-125190000D03*
%TD*%
D10*
%TO.P,D63,1,K_1*%
%TO.N,/ROW8*%
X159000000Y-133120000D03*
D11*
%TO.P,D63,2,A_2*%
%TO.N,Net-(D63-A)*%
X159000000Y-125500000D03*
%TD*%
D10*
%TO.P,D24,1,K_1*%
%TO.N,/ROW3*%
X94000000Y-56120000D03*
D11*
%TO.P,D24,2,A_2*%
%TO.N,Net-(D24-A)*%
X94000000Y-48500000D03*
%TD*%
D14*
%TO.P,SW51,1,1_1*%
%TO.N,Net-(D59-A)*%
X62902500Y-85295000D03*
%TO.P,SW51,2,2_2*%
%TO.N,/COL4*%
X56552500Y-87835000D03*
%TD*%
%TO.P,SW13,1,1_1*%
%TO.N,Net-(D13-A)*%
X191490000Y-66245000D03*
%TO.P,SW13,2,2_2*%
%TO.N,/COL1*%
X185140000Y-68785000D03*
%TD*%
%TO.P,SW61,1,1_1*%
%TO.N,Net-(D49-A)*%
X284358750Y-85295000D03*
%TO.P,SW61,2,2_2*%
%TO.N,/COL0*%
X278008750Y-87835000D03*
%TD*%
%TO.P,SW8,1,1_1*%
%TO.N,Net-(D8-A)*%
X186727500Y-104345000D03*
%TO.P,SW8,2,2_2*%
%TO.N,/COL6*%
X180377500Y-106885000D03*
%TD*%
D10*
%TO.P,D33,1,K_1*%
%TO.N,/ROW4*%
X251500000Y-113120000D03*
D11*
%TO.P,D33,2,A_2*%
%TO.N,Net-(D33-A)*%
X251500000Y-105500000D03*
%TD*%
D14*
%TO.P,SW15,1,1_1*%
%TO.N,Net-(D15-A)*%
X139102500Y-85295000D03*
%TO.P,SW15,2,2_2*%
%TO.N,/COL6*%
X132752500Y-87835000D03*
%TD*%
D10*
%TO.P,D26,1,K_1*%
%TO.N,/ROW3*%
X136500000Y-113620000D03*
D11*
%TO.P,D26,2,A_2*%
%TO.N,Net-(D26-A)*%
X136500000Y-106000000D03*
%TD*%
D14*
%TO.P,SW16,1,1_1*%
%TO.N,Net-(D16-A)*%
X91477500Y-104345000D03*
%TO.P,SW16,2,2_2*%
%TO.N,/COL5*%
X85127500Y-106885000D03*
%TD*%
D10*
%TO.P,D36,1,K_1*%
%TO.N,/ROW5*%
X127000000Y-94620000D03*
D11*
%TO.P,D36,2,A_2*%
%TO.N,Net-(D36-A)*%
X127000000Y-87000000D03*
%TD*%
D10*
%TO.P,D22,1,K_1*%
%TO.N,/ROW3*%
X217500000Y-75620000D03*
D11*
%TO.P,D22,2,A_2*%
%TO.N,Net-(D22-A)*%
X217500000Y-68000000D03*
%TD*%
D10*
%TO.P,D53,1,K_1*%
%TO.N,/ROW7*%
X64000000Y-132810000D03*
D11*
%TO.P,D53,2,A_2*%
%TO.N,Net-(D53-A)*%
X64000000Y-125190000D03*
%TD*%
D10*
%TO.P,D49,1,K_1*%
%TO.N,/ROW6*%
X300500000Y-94500000D03*
D11*
%TO.P,D49,2,A_2*%
%TO.N,Net-(D49-A)*%
X300500000Y-86880000D03*
%TD*%
D10*
%TO.P,D52,1,K_1*%
%TO.N,/ROW7*%
X65000000Y-75810000D03*
D11*
%TO.P,D52,2,A_2*%
%TO.N,Net-(D52-A)*%
X65000000Y-68190000D03*
%TD*%
D14*
%TO.P,SW54,1,1_1*%
%TO.N,Net-(D60-A)*%
X31946250Y-123395000D03*
%TO.P,SW54,2,2_2*%
%TO.N,/COL3*%
X25596250Y-125935000D03*
%TD*%
D10*
%TO.P,D31,1,K_1*%
%TO.N,/ROW4*%
X208000000Y-56120000D03*
D11*
%TO.P,D31,2,A_2*%
%TO.N,Net-(D31-A)*%
X208000000Y-48500000D03*
%TD*%
D14*
%TO.P,SW39,1,1_1*%
%TO.N,Net-(D41-A)*%
X134340000Y-66245000D03*
%TO.P,SW39,2,2_2*%
%TO.N,/COL1*%
X127990000Y-68785000D03*
%TD*%
D10*
%TO.P,D18,1,K_1*%
%TO.N,/ROW2*%
X284500000Y-132620000D03*
D11*
%TO.P,D18,2,A_2*%
%TO.N,Net-(D18-A)*%
X284500000Y-125000000D03*
%TD*%
D14*
%TO.P,SW23,1,1_1*%
%TO.N,Net-(D29-A)*%
X215302500Y-85295000D03*
%TO.P,SW23,2,2_2*%
%TO.N,/COL6*%
X208952500Y-87835000D03*
%TD*%
D10*
%TO.P,D28,1,K_1*%
%TO.N,/ROW3*%
X255500000Y-75620000D03*
D11*
%TO.P,D28,2,A_2*%
%TO.N,Net-(D28-A)*%
X255500000Y-68000000D03*
%TD*%
D10*
%TO.P,D15,1,K_1*%
%TO.N,/ROW2*%
X145500000Y-95120000D03*
D11*
%TO.P,D15,2,A_2*%
%TO.N,Net-(D15-A)*%
X145500000Y-87500000D03*
%TD*%
D14*
%TO.P,SW31,1,1_1*%
%TO.N,Net-(D25-A)*%
X229590000Y-66245000D03*
%TO.P,SW31,2,2_2*%
%TO.N,/COL3*%
X223240000Y-68785000D03*
%TD*%
%TO.P,SW63,1,1_1*%
%TO.N,Net-(D63-A)*%
X151008750Y-123395000D03*
%TO.P,SW63,2,2_2*%
%TO.N,/COL0*%
X144658750Y-125935000D03*
%TD*%
%TO.P,SW12,1,1_1*%
%TO.N,Net-(D12-A)*%
X77190000Y-66245000D03*
%TO.P,SW12,2,2_2*%
%TO.N,/COL2*%
X70840000Y-68785000D03*
%TD*%
%TO.P,SW49,1,1_1*%
%TO.N,Net-(D45-A)*%
X267690000Y-66245000D03*
%TO.P,SW49,2,2_2*%
%TO.N,/COL4*%
X261340000Y-68785000D03*
%TD*%
%TO.P,SW45,1,1_1*%
%TO.N,Net-(D57-A)*%
X220065000Y-123395000D03*
%TO.P,SW45,2,2_2*%
%TO.N,/COL6*%
X213715000Y-125935000D03*
%TD*%
%TO.P,SW26,1,1_1*%
%TO.N,Net-(D30-A)*%
X224827500Y-104345000D03*
%TO.P,SW26,2,2_2*%
%TO.N,/COL5*%
X218477500Y-106885000D03*
%TD*%
D10*
%TO.P,D34,1,K_1*%
%TO.N,/ROW4*%
X227500000Y-56620000D03*
D11*
%TO.P,D34,2,A_2*%
%TO.N,Net-(D34-A)*%
X227500000Y-49000000D03*
%TD*%
D14*
%TO.P,SW50,1,1_1*%
%TO.N,Net-(D52-A)*%
X58140000Y-66245000D03*
%TO.P,SW50,2,2_2*%
%TO.N,/COL4*%
X51790000Y-68785000D03*
%TD*%
D10*
%TO.P,D4,1,K_1*%
%TO.N,/ROW0*%
X179500000Y-76120000D03*
D11*
%TO.P,D4,2,A_2*%
%TO.N,Net-(D4-A)*%
X179500000Y-68500000D03*
%TD*%
D14*
%TO.P,SW28,1,1_1*%
%TO.N,Net-(D24-A)*%
X86715000Y-47195000D03*
%TO.P,SW28,2,2_2*%
%TO.N,/COL4*%
X80365000Y-49735000D03*
%TD*%
D10*
%TO.P,D43,1,K_1*%
%TO.N,/ROW6*%
X155500000Y-113620000D03*
D11*
%TO.P,D43,2,A_2*%
%TO.N,Net-(D43-A)*%
X155500000Y-106000000D03*
%TD*%
D10*
%TO.P,D23,1,K_1*%
%TO.N,/ROW3*%
X117500000Y-114120000D03*
D11*
%TO.P,D23,2,A_2*%
%TO.N,Net-(D23-A)*%
X117500000Y-106500000D03*
%TD*%
D10*
%TO.P,D5,1,K_1*%
%TO.N,/ROW0*%
X184500000Y-94620000D03*
D11*
%TO.P,D5,2,A_2*%
%TO.N,Net-(D5-A)*%
X184500000Y-87000000D03*
%TD*%
D14*
%TO.P,SW1,1,1_1*%
%TO.N,Net-(D1-A)*%
X29565000Y-47195000D03*
%TO.P,SW1,2,2_2*%
%TO.N,/COL6*%
X23215000Y-49735000D03*
%TD*%
D10*
%TO.P,D17,1,K_1*%
%TO.N,/ROW2*%
X212500000Y-113310000D03*
D11*
%TO.P,D17,2,A_2*%
%TO.N,Net-(D17-A)*%
X212500000Y-105690000D03*
%TD*%
D14*
%TO.P,SW56,1,1_1*%
%TO.N,Net-(D54-A)*%
X291502500Y-66245000D03*
%TO.P,SW56,2,2_2*%
%TO.N,/COL2*%
X285152500Y-68785000D03*
%TD*%
%TO.P,SW10,1,1_1*%
%TO.N,Net-(D10-A)*%
X48615000Y-47195000D03*
%TO.P,SW10,2,2_2*%
%TO.N,/COL4*%
X42265000Y-49735000D03*
%TD*%
D10*
%TO.P,D46,1,K_1*%
%TO.N,/ROW6*%
X174000000Y-113310000D03*
D11*
%TO.P,D46,2,A_2*%
%TO.N,Net-(D46-A)*%
X174000000Y-105690000D03*
%TD*%
D15*
%TO.P,SW64,1,1_1*%
%TO.N,Net-(SW64-Pad1)*%
X333169000Y-41987000D03*
X333169000Y-51087000D03*
%TO.P,SW64,2,2_2*%
%TO.N,Net-(U1-RESET)*%
X328669000Y-41987000D03*
X328669000Y-51087000D03*
%TD*%
D14*
%TO.P,SW33,1,1_1*%
%TO.N,Net-(D39-A)*%
X101002500Y-85295000D03*
%TO.P,SW33,2,2_2*%
%TO.N,/COL3*%
X94652500Y-87835000D03*
%TD*%
D10*
%TO.P,D25,1,K_1*%
%TO.N,/ROW3*%
X236500000Y-75120000D03*
D11*
%TO.P,D25,2,A_2*%
%TO.N,Net-(D25-A)*%
X236500000Y-67500000D03*
%TD*%
D10*
%TO.P,D58,1,K_1*%
%TO.N,/ROW8*%
X160000000Y-75310000D03*
D11*
%TO.P,D58,2,A_2*%
%TO.N,Net-(D58-A)*%
X160000000Y-67690000D03*
%TD*%
D10*
%TO.P,D42,1,K_1*%
%TO.N,/ROW5*%
X89000000Y-93810000D03*
D11*
%TO.P,D42,2,A_2*%
%TO.N,Net-(D42-A)*%
X89000000Y-86190000D03*
%TD*%
D14*
%TO.P,SW27,1,1_1*%
%TO.N,Net-(D37-A)*%
X258165000Y-123395000D03*
%TO.P,SW27,2,2_2*%
%TO.N,/COL5*%
X251815000Y-125935000D03*
%TD*%
D10*
%TO.P,D45,1,K_1*%
%TO.N,/ROW6*%
X274500000Y-76120000D03*
D11*
%TO.P,D45,2,A_2*%
%TO.N,Net-(D45-A)*%
X274500000Y-68500000D03*
%TD*%
D10*
%TO.P,D61,1,K_1*%
%TO.N,/ROW8*%
X43500000Y-75810000D03*
D11*
%TO.P,D61,2,A_2*%
%TO.N,Net-(D61-A)*%
X43500000Y-68190000D03*
%TD*%
D10*
%TO.P,D29,1,K_1*%
%TO.N,/ROW4*%
X222000000Y-94620000D03*
D11*
%TO.P,D29,2,A_2*%
%TO.N,Net-(D29-A)*%
X222000000Y-87000000D03*
%TD*%
D14*
%TO.P,SW6,1,1_1*%
%TO.N,Net-(D6-A)*%
X158152500Y-85295000D03*
%TO.P,SW6,2,2_2*%
%TO.N,/COL1*%
X151802500Y-87835000D03*
%TD*%
D10*
%TO.P,D37,1,K_1*%
%TO.N,/ROW5*%
X265000000Y-132620000D03*
D11*
%TO.P,D37,2,A_2*%
%TO.N,Net-(D37-A)*%
X265000000Y-125000000D03*
%TD*%
D14*
%TO.P,SW2,1,1_1*%
%TO.N,Net-(D2-A)*%
X143865000Y-47195000D03*
%TO.P,SW2,2,2_2*%
%TO.N,/COL5*%
X137515000Y-49735000D03*
%TD*%
%TO.P,SW41,1,1_1*%
%TO.N,Net-(D35-A)*%
X253402500Y-85295000D03*
%TO.P,SW41,2,2_2*%
%TO.N,/COL0*%
X247052500Y-87835000D03*
%TD*%
D10*
%TO.P,D47,1,K_1*%
%TO.N,/ROW6*%
X87500000Y-132810000D03*
D11*
%TO.P,D47,2,A_2*%
%TO.N,Net-(D47-A)*%
X87500000Y-125190000D03*
%TD*%
D10*
%TO.P,D20,1,K_1*%
%TO.N,/ROW2*%
X188500000Y-56120000D03*
D11*
%TO.P,D20,2,A_2*%
%TO.N,Net-(D20-A)*%
X188500000Y-48500000D03*
%TD*%
D10*
%TO.P,D51,1,K_1*%
%TO.N,/ROW7*%
X246000000Y-55810000D03*
D11*
%TO.P,D51,2,A_2*%
%TO.N,Net-(D51-A)*%
X246000000Y-48190000D03*
%TD*%
D10*
%TO.P,D62,1,K_1*%
%TO.N,/ROW8*%
X302000000Y-56810000D03*
D11*
%TO.P,D62,2,A_2*%
%TO.N,Net-(D62-A)*%
X302000000Y-49190000D03*
%TD*%
D10*
%TO.P,D7,1,K_1*%
%TO.N,/ROW0*%
X79000000Y-114120000D03*
D11*
%TO.P,D7,2,A_2*%
%TO.N,Net-(D7-A)*%
X79000000Y-106500000D03*
%TD*%
D14*
%TO.P,SW7,1,1_1*%
%TO.N,Net-(D7-A)*%
X72427500Y-104345000D03*
%TO.P,SW7,2,2_2*%
%TO.N,/COL0*%
X66077500Y-106885000D03*
%TD*%
%TO.P,SW52,1,1_1*%
%TO.N,Net-(D46-A)*%
X167677500Y-104345000D03*
%TO.P,SW52,2,2_2*%
%TO.N,/COL3*%
X161327500Y-106885000D03*
%TD*%
D10*
%TO.P,D14,1,K_1*%
%TO.N,/ROW1*%
X203000000Y-94620000D03*
D11*
%TO.P,D14,2,A_2*%
%TO.N,Net-(D14-A)*%
X203000000Y-87000000D03*
%TD*%
D14*
%TO.P,SW14,1,1_1*%
%TO.N,Net-(D14-A)*%
X196252500Y-85295000D03*
%TO.P,SW14,2,2_2*%
%TO.N,/COL0*%
X189902500Y-87835000D03*
%TD*%
D10*
%TO.P,D21,1,K_1*%
%TO.N,/ROW2*%
X103500000Y-75620000D03*
D11*
%TO.P,D21,2,A_2*%
%TO.N,Net-(D21-A)*%
X103500000Y-68000000D03*
%TD*%
D14*
%TO.P,SW62,1,1_1*%
%TO.N,Net-(D56-A)*%
X41471250Y-104345000D03*
%TO.P,SW62,2,2_2*%
%TO.N,/COL0*%
X35121250Y-106885000D03*
%TD*%
D10*
%TO.P,D48,1,K_1*%
%TO.N,/ROW6*%
X46500000Y-94620000D03*
D11*
%TO.P,D48,2,A_2*%
%TO.N,Net-(D48-A)*%
X46500000Y-87000000D03*
%TD*%
D14*
%TO.P,SW35,1,1_1*%
%TO.N,Net-(D33-A)*%
X243877500Y-104345000D03*
%TO.P,SW35,2,2_2*%
%TO.N,/COL2*%
X237527500Y-106885000D03*
%TD*%
D10*
%TO.P,D40,1,K_1*%
%TO.N,/ROW5*%
X246000000Y-131620000D03*
D11*
%TO.P,D40,2,A_2*%
%TO.N,Net-(D40-A)*%
X246000000Y-124000000D03*
%TD*%
D10*
%TO.P,D10,1,K_1*%
%TO.N,/ROW1*%
X55500000Y-55620000D03*
D11*
%TO.P,D10,2,A_2*%
%TO.N,Net-(D10-A)*%
X55500000Y-48000000D03*
%TD*%
D10*
%TO.P,D2,1,K_1*%
%TO.N,/ROW0*%
X151000000Y-56310000D03*
D11*
%TO.P,D2,2,A_2*%
%TO.N,Net-(D2-A)*%
X151000000Y-48690000D03*
%TD*%
D10*
%TO.P,D9,1,K_1*%
%TO.N,/ROW1*%
X304000000Y-133120000D03*
D11*
%TO.P,D9,2,A_2*%
%TO.N,Net-(D9-A)*%
X304000000Y-125500000D03*
%TD*%
D14*
%TO.P,SW48,1,1_1*%
%TO.N,Net-(D58-A)*%
X153390000Y-66245000D03*
%TO.P,SW48,2,2_2*%
%TO.N,/COL5*%
X147040000Y-68785000D03*
%TD*%
%TO.P,SW58,1,1_1*%
%TO.N,Net-(D48-A)*%
X36708750Y-85295000D03*
%TO.P,SW58,2,2_2*%
%TO.N,/COL1*%
X30358750Y-87835000D03*
%TD*%
%TO.P,SW5,1,1_1*%
%TO.N,Net-(D5-A)*%
X177202500Y-85295000D03*
%TO.P,SW5,2,2_2*%
%TO.N,/COL2*%
X170852500Y-87835000D03*
%TD*%
D10*
%TO.P,D12,1,K_1*%
%TO.N,/ROW1*%
X84000000Y-75120000D03*
D11*
%TO.P,D12,2,A_2*%
%TO.N,Net-(D12-A)*%
X84000000Y-67500000D03*
%TD*%
D10*
%TO.P,D19,1,K_1*%
%TO.N,/ROW2*%
X74500000Y-56120000D03*
D11*
%TO.P,D19,2,A_2*%
%TO.N,Net-(D19-A)*%
X74500000Y-48500000D03*
%TD*%
D14*
%TO.P,SW18,1,1_1*%
%TO.N,Net-(D18-A)*%
X277215000Y-123395000D03*
%TO.P,SW18,2,2_2*%
%TO.N,/COL3*%
X270865000Y-125935000D03*
%TD*%
%TO.P,SW21,1,1_1*%
%TO.N,Net-(D21-A)*%
X96240000Y-66245000D03*
%TO.P,SW21,2,2_2*%
%TO.N,/COL0*%
X89890000Y-68785000D03*
%TD*%
%TO.P,SW55,1,1_1*%
%TO.N,Net-(D47-A)*%
X79571250Y-123395000D03*
%TO.P,SW55,2,2_2*%
%TO.N,/COL2*%
X73221250Y-125935000D03*
%TD*%
%TO.P,SW60,1,1_1*%
%TO.N,Net-(D62-A)*%
X286740000Y-47195000D03*
%TO.P,SW60,2,2_2*%
%TO.N,/COL1*%
X280390000Y-49735000D03*
%TD*%
%TO.P,SW19,1,1_1*%
%TO.N,Net-(D19-A)*%
X67665000Y-47195000D03*
%TO.P,SW19,2,2_2*%
%TO.N,/COL2*%
X61315000Y-49735000D03*
%TD*%
D10*
%TO.P,D30,1,K_1*%
%TO.N,/ROW4*%
X232000000Y-113620000D03*
D11*
%TO.P,D30,2,A_2*%
%TO.N,Net-(D30-A)*%
X232000000Y-106000000D03*
%TD*%
D14*
%TO.P,SW36,1,1_1*%
%TO.N,Net-(D40-A)*%
X239115000Y-123395000D03*
%TO.P,SW36,2,2_2*%
%TO.N,/COL2*%
X232765000Y-125935000D03*
%TD*%
%TO.P,SW25,1,1_1*%
%TO.N,Net-(D23-A)*%
X110527500Y-104345000D03*
%TO.P,SW25,2,2_2*%
%TO.N,/COL5*%
X104177500Y-106885000D03*
%TD*%
D10*
%TO.P,D55,1,K_1*%
%TO.N,/ROW7*%
X279500000Y-113810000D03*
D11*
%TO.P,D55,2,A_2*%
%TO.N,Net-(D55-A)*%
X279500000Y-106190000D03*
%TD*%
D14*
%TO.P,SW4,1,1_1*%
%TO.N,Net-(D4-A)*%
X172440000Y-66245000D03*
%TO.P,SW4,2,2_2*%
%TO.N,/COL3*%
X166090000Y-68785000D03*
%TD*%
D10*
%TO.P,D59,1,K_1*%
%TO.N,/ROW8*%
X69500000Y-94810000D03*
D11*
%TO.P,D59,2,A_2*%
%TO.N,Net-(D59-A)*%
X69500000Y-87190000D03*
%TD*%
D14*
%TO.P,SW47,1,1_1*%
%TO.N,Net-(D51-A)*%
X239115000Y-47195000D03*
%TO.P,SW47,2,2_2*%
%TO.N,/COL5*%
X232765000Y-49735000D03*
%TD*%
D10*
%TO.P,D6,1,K_1*%
%TO.N,/ROW0*%
X165000000Y-93120000D03*
D11*
%TO.P,D6,2,A_2*%
%TO.N,Net-(D6-A)*%
X165000000Y-85500000D03*
%TD*%
D14*
%TO.P,SW44,1,1_1*%
%TO.N,Net-(D50-A)*%
X296265000Y-104345000D03*
%TO.P,SW44,2,2_2*%
%TO.N,/COL6*%
X289915000Y-106885000D03*
%TD*%
%TO.P,SW9,1,1_1*%
%TO.N,Net-(D9-A)*%
X296265000Y-123395000D03*
%TO.P,SW9,2,2_2*%
%TO.N,/COL5*%
X289915000Y-125935000D03*
%TD*%
%TO.P,SW24,1,1_1*%
%TO.N,Net-(D36-A)*%
X120052500Y-85295000D03*
%TO.P,SW24,2,2_2*%
%TO.N,/COL6*%
X113702500Y-87835000D03*
%TD*%
D16*
%TO.P,U1,1,D+_1*%
%TO.N,unconnected-(U1-D+-Pad1)*%
X309680000Y-43810000D03*
D17*
%TO.P,U1,2,D0_2*%
%TO.N,/ROW0*%
X309680000Y-46350000D03*
%TO.P,U1,3,D1_3*%
%TO.N,/ROW1*%
X309680000Y-48890000D03*
%TO.P,U1,4,GND_4*%
%TO.N,GND*%
X309680000Y-51430000D03*
%TO.P,U1,5,GND_5*%
X309680000Y-53970000D03*
%TO.P,U1,6,D2_6*%
%TO.N,/ROW2*%
X309680000Y-56510000D03*
%TO.P,U1,7,D3_7*%
%TO.N,/ROW3*%
X309680000Y-59050000D03*
%TO.P,U1,8,D4_8*%
%TO.N,/ROW4*%
X309680000Y-61590000D03*
%TO.P,U1,9,D5_9*%
%TO.N,/ROW5*%
X309680000Y-64130000D03*
%TO.P,U1,10,D6_10*%
%TO.N,/ROW6*%
X309680000Y-66670000D03*
%TO.P,U1,11,D7_11*%
%TO.N,/ROW7*%
X309680000Y-69210000D03*
%TO.P,U1,12,D8_12*%
%TO.N,/ROW8*%
X309680000Y-71750000D03*
%TO.P,U1,13,D9_13*%
%TO.N,/COL0*%
X309680000Y-74290000D03*
X324920000Y-43810000D03*
X324920000Y-71750000D03*
X324920000Y-74290000D03*
%TO.P,U1,14,D-_14*%
%TO.N,unconnected-(U1-D--Pad14)_1*%
X324920000Y-46350000D03*
%TO.N,unconnected-(U1-D--Pad14)*%
X324920000Y-69210000D03*
%TO.P,U1,15,RAW_15*%
%TO.N,unconnected-(U1-RAW-Pad15)*%
X324920000Y-48890000D03*
%TO.N,unconnected-(U1-RAW-Pad15)_1*%
X324920000Y-66670000D03*
%TO.P,U1,16,GND_16*%
%TO.N,Net-(SW64-Pad1)*%
X324920000Y-51430000D03*
X324920000Y-64130000D03*
%TO.P,U1,17,RESET_17*%
%TO.N,Net-(U1-RESET)*%
X324920000Y-53970000D03*
%TO.P,U1,18,3.3v_18*%
%TO.N,/VCC*%
X324920000Y-56510000D03*
%TO.P,U1,19,A3/29_19*%
%TO.N,/SCL*%
X324920000Y-59050000D03*
%TO.P,U1,20,A2/28_20*%
%TO.N,/SDA*%
X324920000Y-61590000D03*
%TD*%
D10*
%TO.P,D27,1,K_1*%
%TO.N,/ROW3*%
X113000000Y-56620000D03*
D11*
%TO.P,D27,2,A_2*%
%TO.N,Net-(D27-A)*%
X113000000Y-49000000D03*
%TD*%
D14*
%TO.P,SW42,1,1_1*%
%TO.N,Net-(D42-A)*%
X81952500Y-85295000D03*
%TO.P,SW42,2,2_2*%
%TO.N,/COL0*%
X75602500Y-87835000D03*
%TD*%
%TO.P,SW11,1,1_1*%
%TO.N,Net-(D11-A)*%
X162915000Y-47195000D03*
%TO.P,SW11,2,2_2*%
%TO.N,/COL3*%
X156565000Y-49735000D03*
%TD*%
%TO.P,SW59,1,1_1*%
%TO.N,Net-(D55-A)*%
X270071250Y-104345000D03*
%TO.P,SW59,2,2_2*%
%TO.N,/COL1*%
X263721250Y-106885000D03*
%TD*%
D10*
%TO.P,D3,1,K_1*%
%TO.N,/ROW0*%
X264500000Y-56620000D03*
D11*
%TO.P,D3,2,A_2*%
%TO.N,Net-(D3-A)*%
X264500000Y-49000000D03*
%TD*%
D14*
%TO.P,SW20,1,1_1*%
%TO.N,Net-(D20-A)*%
X181965000Y-47195000D03*
%TO.P,SW20,2,2_2*%
%TO.N,/COL1*%
X175615000Y-49735000D03*
%TD*%
%TO.P,SW53,1,1_1*%
%TO.N,Net-(D53-A)*%
X55758750Y-123395000D03*
%TO.P,SW53,2,2_2*%
%TO.N,/COL3*%
X49408750Y-125935000D03*
%TD*%
D10*
%TO.P,D57,1,K_1*%
%TO.N,/ROW8*%
X227000000Y-132810000D03*
D11*
%TO.P,D57,2,A_2*%
%TO.N,Net-(D57-A)*%
X227000000Y-125190000D03*
%TD*%
D14*
%TO.P,SW43,1,1_1*%
%TO.N,Net-(D43-A)*%
X148627500Y-104345000D03*
%TO.P,SW43,2,2_2*%
%TO.N,/COL6*%
X142277500Y-106885000D03*
%TD*%
D18*
%TO.N,/ROW4*%
X266000000Y-95000000D03*
X306600000Y-64000000D03*
X257000000Y-111500000D03*
X235500000Y-114000000D03*
X304000000Y-65500000D03*
X227500000Y-66000000D03*
X233500000Y-112500000D03*
X258500000Y-109000000D03*
%TO.N,/SCL*%
X322500000Y-59500000D03*
%TO.N,/ROW1*%
X262500000Y-123500000D03*
X195448631Y-83911597D03*
X198500000Y-77010000D03*
X176500000Y-61500000D03*
X194226534Y-80773466D03*
X114500000Y-74500000D03*
X208000000Y-113500000D03*
X183000000Y-65500000D03*
X202000000Y-100348529D03*
X202000000Y-96500000D03*
X174500000Y-60500000D03*
X130776234Y-68989533D03*
%TO.N,/COL6*%
X113500000Y-93500000D03*
X179000000Y-97500000D03*
X208500000Y-83500000D03*
X209500000Y-123500000D03*
X209500000Y-85500000D03*
X122000000Y-95500000D03*
%TO.N,/COL0*%
X240500000Y-76500000D03*
X307500000Y-76000000D03*
X300500000Y-79500000D03*
X204500000Y-93500000D03*
X296000000Y-82000000D03*
X309103700Y-77500000D03*
X70000000Y-100000000D03*
X245500000Y-84495000D03*
X302123529Y-80500000D03*
X266000000Y-92500000D03*
X190000000Y-99120000D03*
X245000000Y-83000000D03*
X77000000Y-98000000D03*
X243000000Y-74000000D03*
%TO.N,/COL4*%
X200500000Y-63000000D03*
X115000000Y-62000000D03*
X109000000Y-66224899D03*
X193000000Y-82500000D03*
X194291988Y-53349903D03*
X108000000Y-67500000D03*
X193000000Y-77010000D03*
X199000000Y-61000000D03*
X118026765Y-57973235D03*
X192500000Y-80500000D03*
%TO.N,/ROW5*%
X120500000Y-93500000D03*
X114500000Y-93500000D03*
X141000000Y-72795837D03*
X113500000Y-95000000D03*
X119262500Y-93500000D03*
X122000000Y-93500000D03*
X120931186Y-89431186D03*
X139500000Y-78000000D03*
X118500000Y-94000000D03*
X268174265Y-132325735D03*
X304000000Y-72500000D03*
X307000000Y-71000000D03*
X139500000Y-73500000D03*
X98500000Y-94500000D03*
X270500000Y-131000000D03*
X275500000Y-124500000D03*
%TO.N,/COL5*%
X212500000Y-96000000D03*
X152000000Y-74500000D03*
X230000000Y-114000000D03*
X150354707Y-74354707D03*
X230500000Y-116500000D03*
X199500000Y-81500000D03*
X247500000Y-121000000D03*
X208296250Y-96703750D03*
X221500000Y-54000000D03*
%TO.N,/ROW7*%
X265500000Y-59500000D03*
X296500000Y-75500000D03*
X63500000Y-91000000D03*
X309103700Y-68358964D03*
X267000000Y-57500000D03*
X63859487Y-89640513D03*
X304126115Y-78126115D03*
X303500000Y-79000000D03*
X304500000Y-85500000D03*
X303500000Y-75500000D03*
X301500000Y-77500000D03*
X60500000Y-114000000D03*
X58500000Y-116000000D03*
%TO.N,/COL3*%
X159457500Y-107500000D03*
X247000000Y-101500000D03*
X223500000Y-73000000D03*
X229500000Y-86000000D03*
X223500000Y-76000000D03*
X69567216Y-104932784D03*
X249000000Y-102500000D03*
X158000000Y-107000000D03*
X221500000Y-67000000D03*
X153000000Y-103500000D03*
X68000000Y-106000000D03*
X201408528Y-58591472D03*
X228500000Y-83500000D03*
X157000000Y-103500000D03*
%TO.N,/ROW6*%
X95000000Y-126500000D03*
X261000000Y-108000000D03*
X293837817Y-78662183D03*
X307903700Y-68000000D03*
X89500000Y-123500000D03*
%TO.N,/ROW0*%
X175000000Y-81500000D03*
%TO.N,/COL1*%
X248500000Y-76500000D03*
X138000000Y-79000000D03*
X263000000Y-88500000D03*
X136000000Y-77000000D03*
X261500000Y-86000000D03*
X258000000Y-83295000D03*
X248500000Y-74500000D03*
X259000000Y-84500000D03*
%TO.N,/COL2*%
X210500000Y-125500000D03*
X198000000Y-103500000D03*
X193000000Y-97920000D03*
X67000000Y-61500000D03*
X69000000Y-65000000D03*
X280500000Y-77000000D03*
X120500000Y-108000000D03*
X89443457Y-117556543D03*
X118500000Y-109000000D03*
X93000000Y-117500000D03*
X277500000Y-77500000D03*
X211845000Y-124000000D03*
%TO.N,/ROW2*%
X84500000Y-60000000D03*
X220000000Y-116000000D03*
X124500000Y-89000000D03*
X176500000Y-70000000D03*
X179674265Y-63825735D03*
X105000000Y-113500000D03*
X117000000Y-85500000D03*
X195000000Y-96500000D03*
X205000000Y-106000000D03*
X119500000Y-87000000D03*
X83000000Y-59000000D03*
X200000000Y-101500000D03*
X202000000Y-106000000D03*
X115762500Y-83500000D03*
X105000000Y-111000000D03*
X287000000Y-127000000D03*
%TO.N,/ROW8*%
X142500000Y-84500000D03*
X138500000Y-83500000D03*
X160500000Y-115500000D03*
X46500000Y-76000000D03*
X47500000Y-78000000D03*
X160500000Y-112500000D03*
X307903700Y-73500000D03*
%TO.N,/ROW3*%
X302100000Y-64500000D03*
X281500000Y-68500000D03*
X306600000Y-60500000D03*
%TD*%
%TO.N,/ROW4*%
D19*
X302723529Y-66776471D02*
X302723529Y-94161215D01*
X236380000Y-113120000D02*
X235500000Y-114000000D01*
X233500000Y-112500000D02*
X233120000Y-112500000D01*
X255380000Y-113120000D02*
X251500000Y-113120000D01*
X309680000Y-61590000D02*
X307270000Y-64000000D01*
X233120000Y-112500000D02*
X232000000Y-113620000D01*
X260000000Y-107500000D02*
X258500000Y-109000000D01*
X301284744Y-95600000D02*
X266600000Y-95600000D01*
X257000000Y-111500000D02*
X255380000Y-113120000D01*
X307270000Y-64000000D02*
X306600000Y-64000000D01*
X302723529Y-94161215D02*
X301284744Y-95600000D01*
X227500000Y-66000000D02*
X227500000Y-56620000D01*
X266600000Y-95600000D02*
X266000000Y-95000000D01*
X260000000Y-95120000D02*
X260000000Y-107500000D01*
X251500000Y-113120000D02*
X236380000Y-113120000D01*
X304000000Y-65500000D02*
X302723529Y-66776471D01*
%TO.N,Net-(D32-A)*%
X241000000Y-87000000D02*
X236057500Y-87000000D01*
X236057500Y-87000000D02*
X234352500Y-85295000D01*
%TO.N,GND*%
X306000000Y-72860000D02*
X306000000Y-55110000D01*
X306000000Y-55110000D02*
X309680000Y-51430000D01*
X317750000Y-83560000D02*
X316700000Y-83560000D01*
X316700000Y-83560000D02*
X306000000Y-72860000D01*
X309680000Y-51430000D02*
X309680000Y-53970000D01*
%TO.N,/VCC*%
X325846346Y-84710000D02*
X326900000Y-83656346D01*
X326900000Y-83656346D02*
X326900000Y-58490000D01*
X320290000Y-83560000D02*
X321440000Y-84710000D01*
X321440000Y-84710000D02*
X325846346Y-84710000D01*
X326900000Y-58490000D02*
X324920000Y-56510000D01*
%TO.N,/SCL*%
X322830000Y-83560000D02*
X326096300Y-80293700D01*
X325306300Y-65306300D02*
X324432760Y-65306300D01*
X326096300Y-66096300D02*
X325306300Y-65306300D01*
X326096300Y-80293700D02*
X326096300Y-66096300D01*
X322500000Y-63373540D02*
X322500000Y-59500000D01*
X324432760Y-65306300D02*
X322500000Y-63373540D01*
%TO.N,/SDA*%
X326500000Y-82430000D02*
X326500000Y-63170000D01*
X326500000Y-63170000D02*
X324920000Y-61590000D01*
X325370000Y-83560000D02*
X326500000Y-82430000D01*
%TO.N,/ROW1*%
X208000000Y-110864098D02*
X202000000Y-104864098D01*
X117065000Y-49155101D02*
X117885101Y-48335000D01*
X266317056Y-123500000D02*
X262500000Y-123500000D01*
X119044899Y-48335000D02*
X119865000Y-49155101D01*
X136115000Y-49155101D02*
X136935101Y-48335000D01*
X112280000Y-76720000D02*
X114500000Y-74500000D01*
X170120000Y-56120000D02*
X174500000Y-60500000D01*
X304000000Y-133120000D02*
X301693402Y-133120000D01*
X208000000Y-113500000D02*
X208000000Y-110864098D01*
X117885101Y-48335000D02*
X119044899Y-48335000D01*
X119044899Y-57258198D02*
X119044899Y-52294798D01*
X130776234Y-68989533D02*
X119044899Y-57258198D01*
X289335101Y-124535000D02*
X287745101Y-126125000D01*
X270158528Y-127341472D02*
X266317056Y-123500000D01*
X202000000Y-96500000D02*
X203000000Y-95500000D01*
X117065000Y-50314899D02*
X117065000Y-49155101D01*
X309680000Y-48890000D02*
X305500000Y-53070000D01*
X138094899Y-48335000D02*
X139549899Y-49790000D01*
X301693402Y-133120000D02*
X293108402Y-124535000D01*
X84000000Y-75120000D02*
X85600000Y-76720000D01*
X176500000Y-61500000D02*
X180500000Y-65500000D01*
X160896598Y-56120000D02*
X169500000Y-56120000D01*
X272654899Y-126125000D02*
X271438427Y-127341472D01*
X195448631Y-83911597D02*
X195448631Y-81995563D01*
X198500000Y-77010000D02*
X198500000Y-75310000D01*
X85600000Y-76720000D02*
X112280000Y-76720000D01*
X287745101Y-126125000D02*
X272654899Y-126125000D01*
X202000000Y-104864098D02*
X202000000Y-100348529D01*
X195448631Y-81995563D02*
X194226534Y-80773466D01*
X136935101Y-48335000D02*
X138094899Y-48335000D01*
X180500000Y-65500000D02*
X183000000Y-65500000D01*
X154566598Y-49790000D02*
X160896598Y-56120000D01*
X139549899Y-49790000D02*
X154566598Y-49790000D01*
X119044899Y-52294798D02*
X117065000Y-50314899D01*
X305500000Y-53070000D02*
X305500000Y-131620000D01*
X169500000Y-56120000D02*
X170120000Y-56120000D01*
X119865000Y-49155101D02*
X136115000Y-49155101D01*
X305500000Y-131620000D02*
X304000000Y-133120000D01*
X271438427Y-127341472D02*
X270158528Y-127341472D01*
X293108402Y-124535000D02*
X289335101Y-124535000D01*
X203000000Y-95500000D02*
X203000000Y-94620000D01*
%TO.N,Net-(D13-A)*%
X192935000Y-67690000D02*
X191490000Y-66245000D01*
X198500000Y-67690000D02*
X192935000Y-67690000D01*
%TO.N,Net-(D8-A)*%
X186882500Y-104190000D02*
X186727500Y-104345000D01*
X193500000Y-104190000D02*
X186882500Y-104190000D01*
%TO.N,Net-(D22-A)*%
X212295000Y-68000000D02*
X210540000Y-66245000D01*
X217500000Y-68000000D02*
X212295000Y-68000000D01*
%TO.N,/COL6*%
X180377500Y-108938402D02*
X180377500Y-106885000D01*
X265505000Y-121995000D02*
X217655000Y-121995000D01*
X151662500Y-97500000D02*
X179000000Y-97500000D01*
X39000000Y-133760430D02*
X39549570Y-134310000D01*
X114762500Y-92237500D02*
X113500000Y-93500000D01*
X89051471Y-123900000D02*
X89251471Y-124100000D01*
X289915000Y-106885000D02*
X280615000Y-106885000D01*
X180377500Y-106885000D02*
X193615000Y-106885000D01*
X77002500Y-87255101D02*
X88509466Y-87255101D01*
X82657500Y-109922056D02*
X82657500Y-107522056D01*
X75021250Y-124978750D02*
X80967157Y-119032843D01*
X95232399Y-89235000D02*
X97011764Y-87455635D01*
X208952500Y-91547500D02*
X208952500Y-87835000D01*
X111019365Y-91575000D02*
X112929556Y-91575000D01*
X132752500Y-97360000D02*
X142277500Y-106885000D01*
X208500000Y-83500000D02*
X204190000Y-79190000D01*
X39549570Y-134310000D02*
X67813306Y-134310000D01*
X208952500Y-86047500D02*
X209500000Y-85500000D01*
X90100000Y-123748529D02*
X90100000Y-117364556D01*
X280615000Y-106885000D02*
X265505000Y-121995000D01*
X194939098Y-123500000D02*
X180377500Y-108938402D01*
X204190000Y-79190000D02*
X204190000Y-68785000D01*
X113702500Y-90802056D02*
X113702500Y-87835000D01*
X97011764Y-87455635D02*
X106900000Y-87455635D01*
X122000000Y-95500000D02*
X129665000Y-87835000D01*
X85834314Y-123900000D02*
X89051471Y-123900000D01*
X217655000Y-121995000D02*
X213715000Y-125935000D01*
X39000000Y-131859570D02*
X39000000Y-133760430D01*
X106900000Y-87455635D02*
X111019365Y-91575000D01*
X75021250Y-127102056D02*
X75021250Y-124978750D01*
X114762500Y-88895000D02*
X114762500Y-92237500D01*
X89669264Y-88414899D02*
X93252500Y-88414899D01*
X93252500Y-88414899D02*
X94072601Y-89235000D01*
X82657500Y-107522056D02*
X73132500Y-97997056D01*
X88509466Y-87255101D02*
X89669264Y-88414899D01*
X208952500Y-87835000D02*
X208952500Y-86047500D01*
X73132500Y-88325101D02*
X75022601Y-86435000D01*
X129665000Y-87835000D02*
X132752500Y-87835000D01*
X75022601Y-86435000D02*
X76182399Y-86435000D01*
X89251471Y-124100000D02*
X89748529Y-124100000D01*
X113702500Y-87835000D02*
X114762500Y-88895000D01*
X76182399Y-86435000D02*
X77002500Y-87255101D01*
X67813306Y-134310000D02*
X75021250Y-127102056D01*
X89748529Y-124100000D02*
X90100000Y-123748529D01*
X90100000Y-117364556D02*
X82657500Y-109922056D01*
X23215000Y-88634335D02*
X41651149Y-107070484D01*
X23215000Y-49735000D02*
X23215000Y-88634335D01*
X94072601Y-89235000D02*
X95232399Y-89235000D01*
X41651149Y-129208421D02*
X39000000Y-131859570D01*
X142277500Y-106885000D02*
X151662500Y-97500000D01*
X80967157Y-119032843D02*
X85834314Y-123900000D01*
X41651149Y-107070484D02*
X41651149Y-129208421D01*
X193615000Y-106885000D02*
X208952500Y-91547500D01*
X112929556Y-91575000D02*
X113702500Y-90802056D01*
X132752500Y-87835000D02*
X132752500Y-97360000D01*
X209500000Y-123500000D02*
X194939098Y-123500000D01*
X73132500Y-97997056D02*
X73132500Y-88325101D01*
%TO.N,Net-(D28-A)*%
X250395000Y-68000000D02*
X248640000Y-66245000D01*
X255500000Y-68000000D02*
X250395000Y-68000000D01*
%TO.N,/COL0*%
X182125635Y-99120000D02*
X190000000Y-99120000D01*
X295500000Y-81500000D02*
X296000000Y-82000000D01*
X77000000Y-98500000D02*
X75844549Y-99655451D01*
X247052500Y-86047500D02*
X245500000Y-84495000D01*
X174455635Y-106790000D02*
X182125635Y-99120000D01*
X307500000Y-76000000D02*
X309000000Y-77500000D01*
X66077500Y-103922500D02*
X70000000Y-100000000D01*
X245000000Y-83000000D02*
X245000000Y-77000000D01*
X284343750Y-81500000D02*
X295500000Y-81500000D01*
X139195806Y-134365000D02*
X144658750Y-128902056D01*
X91409098Y-115220000D02*
X91409098Y-127016158D01*
X324920000Y-71750000D02*
X321500000Y-68330000D01*
X75602500Y-99413402D02*
X75844549Y-99655451D01*
X213151471Y-81000000D02*
X216251471Y-84100000D01*
X242020000Y-76500000D02*
X242500000Y-76020000D01*
X77000000Y-98000000D02*
X77000000Y-98500000D01*
X87170256Y-134365000D02*
X139195806Y-134365000D01*
X278008750Y-87835000D02*
X284343750Y-81500000D01*
X278008750Y-87835000D02*
X270665000Y-87835000D01*
X144658750Y-125935000D02*
X145244556Y-125935000D01*
X321500000Y-68330000D02*
X321500000Y-47230000D01*
X242290000Y-68785000D02*
X242290000Y-73290000D01*
X86400000Y-132025256D02*
X86400000Y-133594744D01*
X321500000Y-47230000D02*
X324920000Y-43810000D01*
X270665000Y-87835000D02*
X266000000Y-92500000D01*
X164389556Y-106790000D02*
X174455635Y-106790000D01*
X216251471Y-84100000D02*
X228748529Y-84100000D01*
X236348529Y-76500000D02*
X240500000Y-76500000D01*
X300500000Y-79500000D02*
X301500000Y-80500000D01*
X301500000Y-80500000D02*
X302123529Y-80500000D01*
X144658750Y-128902056D02*
X144658750Y-125935000D01*
X240500000Y-76500000D02*
X242020000Y-76500000D01*
X145244556Y-125935000D02*
X164389556Y-106790000D01*
X204500000Y-89651471D02*
X213151471Y-81000000D01*
X228748529Y-84100000D02*
X236348529Y-76500000D01*
X242290000Y-73290000D02*
X243000000Y-74000000D01*
X244020000Y-76020000D02*
X242500000Y-76020000D01*
X86400000Y-133594744D02*
X87170256Y-134365000D01*
X75602500Y-87835000D02*
X75602500Y-99413402D01*
X75844549Y-99655451D02*
X91409098Y-115220000D01*
X324920000Y-74290000D02*
X324920000Y-71750000D01*
X66077500Y-106885000D02*
X66077500Y-103922500D01*
X91409098Y-127016158D02*
X86400000Y-132025256D01*
X247052500Y-87835000D02*
X247052500Y-86047500D01*
X245000000Y-77000000D02*
X244020000Y-76020000D01*
X309000000Y-77500000D02*
X309103700Y-77500000D01*
X324920000Y-74290000D02*
X309680000Y-74290000D01*
X204500000Y-93500000D02*
X204500000Y-89651471D01*
%TO.N,Net-(D38-A)*%
X122500000Y-69000000D02*
X118045000Y-69000000D01*
X118045000Y-69000000D02*
X115290000Y-66245000D01*
%TO.N,/COL4*%
X26577500Y-68205101D02*
X26577500Y-69364899D01*
X28958750Y-88414899D02*
X29778851Y-89235000D01*
X31758750Y-88414899D02*
X31758750Y-85614899D01*
X108940000Y-68785000D02*
X108940000Y-68440000D01*
X193000000Y-82500000D02*
X193000000Y-81000000D01*
X114100000Y-48544365D02*
X114100000Y-54046470D01*
X28958750Y-87113680D02*
X28958750Y-88414899D01*
X65748529Y-63600000D02*
X52472430Y-63600000D01*
X26577500Y-69364899D02*
X28958750Y-71746149D01*
X84305000Y-45795000D02*
X111350635Y-45795000D01*
X111350635Y-45795000D02*
X114100000Y-48544365D01*
X51790000Y-68785000D02*
X51790000Y-83072500D01*
X109364899Y-66000000D02*
X108940000Y-66424899D01*
X67600000Y-61748529D02*
X65748529Y-63600000D01*
X80365000Y-49735000D02*
X84305000Y-45795000D01*
X42265000Y-49735000D02*
X40709366Y-49735000D01*
X115000000Y-62000000D02*
X115000000Y-63000000D01*
X51790000Y-83072500D02*
X56552500Y-87835000D01*
X30938649Y-89235000D02*
X31758750Y-88414899D01*
X48588649Y-68785000D02*
X51790000Y-68785000D01*
X38462601Y-56320000D02*
X26577500Y-68205101D01*
X28958750Y-71746149D02*
X28958750Y-88414899D01*
X115000000Y-63000000D02*
X112000000Y-66000000D01*
X193000000Y-77010000D02*
X200730026Y-69279974D01*
X200730026Y-69279974D02*
X200730026Y-63230026D01*
X74442056Y-49735000D02*
X67600000Y-56577056D01*
X52472430Y-63600000D02*
X28958750Y-87113680D01*
X108940000Y-68440000D02*
X108000000Y-67500000D01*
X31758750Y-85614899D02*
X48588649Y-68785000D01*
X200730026Y-63230026D02*
X200500000Y-63000000D01*
X199000000Y-58057915D02*
X194291988Y-53349903D01*
X199000000Y-61000000D02*
X199000000Y-58057915D01*
X40709366Y-49735000D02*
X38462601Y-51981765D01*
X29778851Y-89235000D02*
X30938649Y-89235000D01*
X114100000Y-54046470D02*
X118026765Y-57973235D01*
X38462601Y-51981765D02*
X38462601Y-56320000D01*
X112000000Y-66000000D02*
X109364899Y-66000000D01*
X193000000Y-81000000D02*
X192500000Y-80500000D01*
X67600000Y-56577056D02*
X67600000Y-61748529D01*
X80365000Y-49735000D02*
X74442056Y-49735000D01*
%TO.N,Net-(D31-A)*%
X208000000Y-48500000D02*
X202320000Y-48500000D01*
X202320000Y-48500000D02*
X201015000Y-47195000D01*
%TO.N,/ROW5*%
X120500000Y-92862372D02*
X120931186Y-92431186D01*
X246000000Y-131620000D02*
X255880000Y-131620000D01*
X256880000Y-132620000D02*
X265000000Y-132620000D01*
X305100000Y-73600000D02*
X305100000Y-113739899D01*
X113500000Y-95000000D02*
X113500000Y-94500000D01*
X305100000Y-113739899D02*
X296844899Y-121995000D01*
X304000000Y-72500000D02*
X305100000Y-73600000D01*
X97810000Y-93810000D02*
X89000000Y-93810000D01*
X141380000Y-76120000D02*
X141500000Y-76120000D01*
X296844899Y-121995000D02*
X276505000Y-121995000D01*
X275500000Y-123000000D02*
X275500000Y-124500000D01*
X139500000Y-78000000D02*
X141380000Y-76120000D01*
X269500000Y-131000000D02*
X268174265Y-132325735D01*
X270500000Y-131000000D02*
X269500000Y-131000000D01*
X140295837Y-73500000D02*
X141000000Y-72795837D01*
X98500000Y-94500000D02*
X97810000Y-93810000D01*
X309680000Y-64130000D02*
X307000000Y-66810000D01*
X276505000Y-121995000D02*
X275500000Y-123000000D01*
X120931186Y-89431186D02*
X120931186Y-92431186D01*
X118762500Y-94000000D02*
X119262500Y-93500000D01*
X118500000Y-94000000D02*
X118762500Y-94000000D01*
X120500000Y-93500000D02*
X120500000Y-92862372D01*
X120931186Y-92431186D02*
X122000000Y-93500000D01*
X307000000Y-66810000D02*
X307000000Y-71000000D01*
X113500000Y-94500000D02*
X114500000Y-93500000D01*
X139500000Y-73500000D02*
X140295837Y-73500000D01*
X255880000Y-131620000D02*
X256880000Y-132620000D01*
%TO.N,Net-(D39-A)*%
X108000000Y-87000000D02*
X102707500Y-87000000D01*
X102707500Y-87000000D02*
X101002500Y-85295000D01*
%TO.N,Net-(D41-A)*%
X136595000Y-68500000D02*
X134340000Y-66245000D01*
X141500000Y-68500000D02*
X136595000Y-68500000D01*
%TO.N,Net-(D17-A)*%
X212500000Y-105690000D02*
X207122500Y-105690000D01*
X207122500Y-105690000D02*
X205777500Y-104345000D01*
%TO.N,Net-(D3-A)*%
X264500000Y-49000000D02*
X259970000Y-49000000D01*
X259970000Y-49000000D02*
X258165000Y-47195000D01*
%TO.N,Net-(D44-A)*%
X132000000Y-47690000D02*
X125310000Y-47690000D01*
X125310000Y-47690000D02*
X124815000Y-47195000D01*
%TO.N,/COL5*%
X118465000Y-49735000D02*
X137515000Y-49735000D01*
X137515000Y-59260000D02*
X147040000Y-68785000D01*
X124000000Y-82444365D02*
X124000000Y-65735256D01*
X124000000Y-65735256D02*
X113284744Y-55020000D01*
X285284744Y-133720000D02*
X289915000Y-129089744D01*
X268720000Y-133720000D02*
X285284744Y-133720000D01*
X103077501Y-107984999D02*
X90820901Y-107984999D01*
X203444415Y-66985000D02*
X201217956Y-69211459D01*
X92900000Y-56904744D02*
X102820155Y-66824899D01*
X90820901Y-107984999D02*
X89720902Y-106885000D01*
X201217956Y-79782044D02*
X199500000Y-81500000D01*
X209000000Y-96000000D02*
X208296250Y-96703750D01*
X151854707Y-74354707D02*
X152000000Y-74500000D01*
X147040000Y-68785000D02*
X145859365Y-68785000D01*
X92900000Y-55335256D02*
X92900000Y-56904744D01*
X219968402Y-54000000D02*
X206983402Y-66985000D01*
X260935000Y-125935000D02*
X268720000Y-133720000D01*
X115162500Y-95900000D02*
X104177500Y-106885000D01*
X230000000Y-113754556D02*
X230000000Y-114000000D01*
X145859365Y-68785000D02*
X128100000Y-86544365D01*
X221500000Y-54000000D02*
X219968402Y-54000000D01*
X251815000Y-125935000D02*
X260935000Y-125935000D01*
X230500000Y-116500000D02*
X235000000Y-121000000D01*
X89720902Y-106885000D02*
X85127500Y-106885000D01*
X223130444Y-106885000D02*
X230000000Y-113754556D01*
X102820155Y-66824899D02*
X113890000Y-66824899D01*
X137515000Y-49735000D02*
X137515000Y-59260000D01*
X201217956Y-69211459D02*
X201217956Y-79782044D01*
X218477500Y-106885000D02*
X223130444Y-106885000D01*
X235000000Y-121000000D02*
X247500000Y-121000000D01*
X113890000Y-66824899D02*
X115162500Y-68097399D01*
X128100000Y-86544365D02*
X124000000Y-82444365D01*
X289915000Y-129089744D02*
X289915000Y-125935000D01*
X104177500Y-106885000D02*
X103077501Y-107984999D01*
X93215256Y-55020000D02*
X92900000Y-55335256D01*
X212500000Y-96000000D02*
X209000000Y-96000000D01*
X206983402Y-66985000D02*
X203444415Y-66985000D01*
X113284744Y-55020000D02*
X93215256Y-55020000D01*
X115162500Y-68097399D02*
X115162500Y-95900000D01*
X150354707Y-74354707D02*
X151854707Y-74354707D01*
%TO.N,/ROW7*%
X300000000Y-76000000D02*
X301500000Y-77500000D01*
X300000000Y-75810000D02*
X300000000Y-76000000D01*
X282500000Y-49500000D02*
X281335000Y-48335000D01*
X282500000Y-49604899D02*
X282500000Y-49500000D01*
X61502500Y-87283526D02*
X63859487Y-89640513D01*
X61502500Y-79307500D02*
X61502500Y-87283526D01*
X286348529Y-65500000D02*
X281748529Y-70100000D01*
X309680000Y-69210000D02*
X309680000Y-68935264D01*
X276165000Y-48335000D02*
X267000000Y-57500000D01*
X286500000Y-65500000D02*
X286348529Y-65500000D01*
X65100000Y-121410000D02*
X65100000Y-131710000D01*
X303500000Y-77500000D02*
X303500000Y-75500000D01*
X251500000Y-59500000D02*
X247810000Y-55810000D01*
X65000000Y-75810000D02*
X61502500Y-79307500D01*
X247810000Y-55810000D02*
X246000000Y-55810000D01*
X279500000Y-113810000D02*
X303000000Y-113810000D01*
X63500000Y-111000000D02*
X60500000Y-114000000D01*
X304500000Y-85500000D02*
X304500000Y-80000000D01*
X265500000Y-59500000D02*
X251500000Y-59500000D01*
X281748529Y-70100000D02*
X281251471Y-70100000D01*
X65100000Y-131710000D02*
X64000000Y-132810000D01*
X63500000Y-91000000D02*
X63500000Y-111000000D01*
X281335000Y-48335000D02*
X276165000Y-48335000D01*
X304126115Y-78126115D02*
X303500000Y-77500000D01*
X309680000Y-68935264D02*
X309103700Y-68358964D01*
X57000000Y-114500000D02*
X57000000Y-113310000D01*
X280790000Y-51314899D02*
X282500000Y-49604899D01*
X280790000Y-69638529D02*
X280790000Y-51314899D01*
X304500000Y-80000000D02*
X303500000Y-79000000D01*
X281251471Y-70100000D02*
X280790000Y-69638529D01*
X296500000Y-75500000D02*
X286500000Y-65500000D01*
X57000000Y-113310000D02*
X65100000Y-121410000D01*
X58500000Y-116000000D02*
X57000000Y-114500000D01*
%TO.N,Net-(D50-A)*%
X303000000Y-106190000D02*
X298110000Y-106190000D01*
X298110000Y-106190000D02*
X296265000Y-104345000D01*
%TO.N,Net-(D56-A)*%
X57000000Y-105690000D02*
X42816250Y-105690000D01*
X42816250Y-105690000D02*
X41471250Y-104345000D01*
%TO.N,/COL3*%
X175100000Y-60748529D02*
X175100000Y-54727056D01*
X287954899Y-102945000D02*
X291315000Y-106305101D01*
X171765000Y-49735000D02*
X173145000Y-48355000D01*
X173145000Y-52772056D02*
X173145000Y-48355000D01*
X223240000Y-71740000D02*
X223240000Y-68785000D01*
X223500000Y-72000000D02*
X223240000Y-71740000D01*
X223500000Y-78500000D02*
X223500000Y-76000000D01*
X158957500Y-107000000D02*
X159457500Y-107500000D01*
X250055635Y-102500000D02*
X264055635Y-116500000D01*
X166090000Y-68785000D02*
X167063529Y-68785000D01*
X153000000Y-103500000D02*
X157000000Y-103500000D01*
X269491351Y-102945000D02*
X287954899Y-102945000D01*
X264055635Y-116500000D02*
X264055635Y-109540514D01*
X289335101Y-108285000D02*
X288515000Y-107464899D01*
X167063529Y-68785000D02*
X175100000Y-60748529D01*
X249000000Y-102500000D02*
X250055635Y-102500000D01*
X270865000Y-120560256D02*
X270865000Y-125935000D01*
X268671250Y-103765101D02*
X269491351Y-102945000D01*
X228002500Y-87835000D02*
X236335000Y-87835000D01*
X236335000Y-87835000D02*
X247000000Y-98500000D01*
X247000000Y-98500000D02*
X247000000Y-101500000D01*
X173145000Y-48355000D02*
X175705000Y-45795000D01*
X283960357Y-107464899D02*
X270865000Y-120560256D01*
X228500000Y-83500000D02*
X223500000Y-78500000D01*
X228002500Y-87835000D02*
X229500000Y-86337500D01*
X229500000Y-86337500D02*
X229500000Y-86000000D01*
X290494899Y-108285000D02*
X289335101Y-108285000D01*
X69067216Y-104932784D02*
X68000000Y-106000000D01*
X175705000Y-45795000D02*
X188612056Y-45795000D01*
X69567216Y-104932784D02*
X69067216Y-104932784D01*
X291315000Y-107464899D02*
X290494899Y-108285000D01*
X188612056Y-45795000D02*
X201500000Y-58682944D01*
X223500000Y-73000000D02*
X223500000Y-72000000D01*
X221500000Y-67045000D02*
X223240000Y-68785000D01*
X221500000Y-67000000D02*
X221500000Y-67045000D01*
X158000000Y-107000000D02*
X158957500Y-107000000D01*
X288515000Y-107464899D02*
X283960357Y-107464899D01*
X264055635Y-109540514D02*
X268671250Y-104924899D01*
X268671250Y-104924899D02*
X268671250Y-103765101D01*
X156565000Y-49735000D02*
X171765000Y-49735000D01*
X175100000Y-54727056D02*
X173145000Y-52772056D01*
X291315000Y-106305101D02*
X291315000Y-107464899D01*
%TO.N,/ROW6*%
X53181250Y-124142399D02*
X49988649Y-127335000D01*
X73801149Y-127335000D02*
X72641351Y-127335000D01*
X278011086Y-78500000D02*
X265121250Y-91389836D01*
X41284744Y-133910000D02*
X39715256Y-133910000D01*
X263141351Y-108285000D02*
X262321250Y-107464899D01*
X42051149Y-129374107D02*
X42051149Y-106904798D01*
X40071250Y-101048750D02*
X46500000Y-94620000D01*
X150880000Y-113620000D02*
X155500000Y-113620000D01*
X40071250Y-104924899D02*
X40071250Y-101048750D01*
X49988649Y-127335000D02*
X48828851Y-127335000D01*
X261642500Y-108000000D02*
X262321250Y-107321250D01*
X88690000Y-132810000D02*
X95000000Y-126500000D01*
X74621250Y-112121250D02*
X74621250Y-126514899D01*
X301600000Y-86424365D02*
X293837817Y-78662183D01*
X58500000Y-106311321D02*
X53181250Y-111630071D01*
X72641351Y-127335000D02*
X58500000Y-113193649D01*
X262321250Y-107464899D02*
X262321250Y-107321250D01*
X86000000Y-123500000D02*
X74621250Y-112121250D01*
X264301149Y-108285000D02*
X263141351Y-108285000D01*
X309680000Y-66670000D02*
X308350000Y-68000000D01*
X48008750Y-126514899D02*
X41600000Y-132923649D01*
X39400000Y-133594744D02*
X39400000Y-132025256D01*
X131690000Y-132810000D02*
X150880000Y-113620000D01*
X300500000Y-94500000D02*
X301600000Y-93400000D01*
X261000000Y-108000000D02*
X261642500Y-108000000D01*
X89500000Y-123500000D02*
X86000000Y-123500000D01*
X39715256Y-133910000D02*
X39400000Y-133594744D01*
X58500000Y-113193649D02*
X58500000Y-106311321D01*
X301600000Y-93400000D02*
X301600000Y-86424365D01*
X293837817Y-78662183D02*
X293675635Y-78500000D01*
X265121250Y-107464899D02*
X264301149Y-108285000D01*
X48828851Y-127335000D02*
X48008750Y-126514899D01*
X87500000Y-132810000D02*
X131690000Y-132810000D01*
X41600000Y-133594744D02*
X41284744Y-133910000D01*
X42051149Y-106904798D02*
X40071250Y-104924899D01*
X39400000Y-132025256D02*
X42051149Y-129374107D01*
X53181250Y-111630071D02*
X53181250Y-124142399D01*
X308350000Y-68000000D02*
X307903700Y-68000000D01*
X265121250Y-91389836D02*
X265121250Y-107464899D01*
X74621250Y-126514899D02*
X73801149Y-127335000D01*
X87500000Y-132810000D02*
X88690000Y-132810000D01*
X293675635Y-78500000D02*
X278011086Y-78500000D01*
X262321250Y-88298750D02*
X274500000Y-76120000D01*
X41600000Y-132923649D02*
X41600000Y-133594744D01*
X262321250Y-107321250D02*
X262321250Y-88298750D01*
%TO.N,/ROW0*%
X309680000Y-46350000D02*
X298530000Y-57500000D01*
X273185000Y-47935000D02*
X264500000Y-56620000D01*
X298530000Y-57500000D02*
X281190000Y-57500000D01*
X281500685Y-47935000D02*
X273185000Y-47935000D01*
X179500000Y-76120000D02*
X179500000Y-77000000D01*
X282900000Y-49334314D02*
X281500685Y-47935000D01*
X282900000Y-49770584D02*
X282900000Y-49334314D01*
X179500000Y-77000000D02*
X175000000Y-81500000D01*
X281190000Y-57500000D02*
X281190000Y-51480585D01*
X281190000Y-51480585D02*
X282900000Y-49770584D01*
%TO.N,Net-(D1-A)*%
X36500000Y-47880000D02*
X30250000Y-47880000D01*
X30250000Y-47880000D02*
X29565000Y-47195000D01*
%TO.N,Net-(D35-A)*%
X260000000Y-87500000D02*
X255607500Y-87500000D01*
X255607500Y-87500000D02*
X253402500Y-85295000D01*
%TO.N,Net-(D34-A)*%
X221870000Y-49000000D02*
X220065000Y-47195000D01*
X227500000Y-49000000D02*
X221870000Y-49000000D01*
%TO.N,/COL1*%
X212159366Y-49735000D02*
X197049366Y-64845000D01*
X231975000Y-53475000D02*
X222048402Y-53475000D01*
X127990000Y-70838402D02*
X127990000Y-68785000D01*
X189600000Y-55335256D02*
X189284744Y-55020000D01*
X30358750Y-86279366D02*
X30358750Y-87835000D01*
X181685101Y-55020000D02*
X171040000Y-65665101D01*
X93492056Y-49735000D02*
X79227056Y-64000000D01*
X261500000Y-86000000D02*
X260000000Y-84500000D01*
X197049366Y-64845000D02*
X189080000Y-64845000D01*
X189080000Y-64845000D02*
X185140000Y-68785000D01*
X263721250Y-92224150D02*
X263721250Y-106885000D01*
X248500000Y-70000000D02*
X231975000Y-53475000D01*
X171040000Y-66824899D02*
X151802500Y-86062399D01*
X151802500Y-87835000D02*
X142967500Y-79000000D01*
X183999744Y-49735000D02*
X175615000Y-49735000D01*
X99415000Y-49735000D02*
X93492056Y-49735000D01*
X189600000Y-64325000D02*
X189600000Y-55335256D01*
X189600000Y-55335256D02*
X183999744Y-49735000D01*
X213715000Y-49735000D02*
X212159366Y-49735000D01*
X142967500Y-79000000D02*
X138000000Y-79000000D01*
X263721250Y-89221250D02*
X263000000Y-88500000D01*
X79227056Y-64000000D02*
X52638116Y-64000000D01*
X248500000Y-74500000D02*
X248500000Y-70000000D01*
X222048402Y-53475000D02*
X218308402Y-49735000D01*
X52638116Y-64000000D02*
X30358750Y-86279366D01*
X99415000Y-49735000D02*
X108940000Y-49735000D01*
X280390000Y-75555400D02*
X263721250Y-92224150D01*
X263721250Y-92224150D02*
X263721250Y-89221250D01*
X136000000Y-77000000D02*
X134151598Y-77000000D01*
X260000000Y-84500000D02*
X259000000Y-84500000D01*
X280390000Y-49735000D02*
X280390000Y-75555400D01*
X151802500Y-86062399D02*
X151802500Y-87835000D01*
X189284744Y-55020000D02*
X181685101Y-55020000D01*
X248980000Y-76020000D02*
X248500000Y-76500000D01*
X134151598Y-77000000D02*
X127990000Y-70838402D01*
X108940000Y-49735000D02*
X127990000Y-68785000D01*
X250725000Y-76020000D02*
X248980000Y-76020000D01*
X218308402Y-49735000D02*
X213715000Y-49735000D01*
X171040000Y-65665101D02*
X171040000Y-66824899D01*
X258000000Y-83295000D02*
X250725000Y-76020000D01*
X185140000Y-68785000D02*
X189600000Y-64325000D01*
%TO.N,Net-(D11-A)*%
X164220000Y-48500000D02*
X162915000Y-47195000D01*
X169500000Y-48500000D02*
X164220000Y-48500000D01*
%TO.N,Net-(D26-A)*%
X131232500Y-106000000D02*
X129577500Y-104345000D01*
X136500000Y-106000000D02*
X131232500Y-106000000D01*
%TO.N,/COL2*%
X198000000Y-103500000D02*
X198000000Y-107510902D01*
X232765000Y-125935000D02*
X231665001Y-127034999D01*
X134152500Y-91288402D02*
X139084098Y-96220000D01*
X123227500Y-106885000D02*
X121400000Y-105057500D01*
X61315000Y-49735000D02*
X61315000Y-55815000D01*
X211845000Y-124000000D02*
X212585051Y-124740051D01*
X241467500Y-102945000D02*
X237527500Y-106885000D01*
X93000000Y-117500000D02*
X110000000Y-117500000D01*
X273715256Y-75020000D02*
X261500000Y-87235256D01*
X110000000Y-117500000D02*
X118500000Y-109000000D01*
X277500000Y-77500000D02*
X277500000Y-77235256D01*
X210500000Y-120010902D02*
X210500000Y-125500000D01*
X285152500Y-72347500D02*
X280500000Y-77000000D01*
X130216471Y-86435000D02*
X133332399Y-86435000D01*
X57297056Y-56720000D02*
X61315000Y-52702056D01*
X168400256Y-87835000D02*
X170852500Y-87835000D01*
X285152500Y-68785000D02*
X285152500Y-72347500D01*
X261500000Y-88000000D02*
X246555000Y-102945000D01*
X237527500Y-110472500D02*
X237527500Y-106885000D01*
X69000000Y-65000000D02*
X70840000Y-66840000D01*
X40042500Y-56720000D02*
X57297056Y-56720000D01*
X121615000Y-106885000D02*
X123227500Y-106885000D01*
X261500000Y-87235256D02*
X261500000Y-88000000D01*
X139084098Y-96220000D02*
X160015256Y-96220000D01*
X73221250Y-109375806D02*
X74760565Y-110915121D01*
X61315000Y-52702056D02*
X61315000Y-49735000D01*
X170852500Y-87835000D02*
X182915000Y-87835000D01*
X227289364Y-127034999D02*
X225900000Y-125645635D01*
X73221250Y-109375806D02*
X73221250Y-125935000D01*
X232765000Y-115235000D02*
X237527500Y-110472500D01*
X214294899Y-127335000D02*
X213135101Y-127335000D01*
X222435101Y-115235000D02*
X232765000Y-115235000D01*
X70840000Y-66840000D02*
X70840000Y-68785000D01*
X198000000Y-107510902D02*
X210500000Y-120010902D01*
X27977500Y-68785000D02*
X40042500Y-56720000D01*
X246555000Y-102945000D02*
X241467500Y-102945000D01*
X213135101Y-127335000D02*
X212315000Y-126514899D01*
X133332399Y-86435000D02*
X134152500Y-87255101D01*
X182915000Y-87835000D02*
X193000000Y-97920000D01*
X134152500Y-87255101D02*
X134152500Y-91288402D01*
X231665001Y-127034999D02*
X227289364Y-127034999D01*
X121400000Y-105057500D02*
X121400000Y-95251471D01*
X82802035Y-110915121D02*
X89443457Y-117556543D01*
X215984264Y-125645635D02*
X214294899Y-127335000D01*
X70840000Y-68785000D02*
X70840000Y-106994556D01*
X212585051Y-124740051D02*
X212585051Y-125085051D01*
X212315000Y-126514899D02*
X212315000Y-125355101D01*
X275284744Y-75020000D02*
X273715256Y-75020000D01*
X74760565Y-110915121D02*
X82802035Y-110915121D01*
X160015256Y-96220000D02*
X168400256Y-87835000D01*
X121400000Y-95251471D02*
X130216471Y-86435000D01*
X70840000Y-106994556D02*
X73221250Y-109375806D01*
X225900000Y-125645635D02*
X215984264Y-125645635D01*
X212315000Y-125355101D02*
X212585051Y-125085051D01*
X277500000Y-77235256D02*
X275284744Y-75020000D01*
X61315000Y-55815000D02*
X67000000Y-61500000D01*
X212585051Y-125085051D02*
X222435101Y-115235000D01*
X120500000Y-108000000D02*
X121615000Y-106885000D01*
%TO.N,Net-(D27-A)*%
X113000000Y-49000000D02*
X107570000Y-49000000D01*
X107570000Y-49000000D02*
X105765000Y-47195000D01*
%TO.N,Net-(D54-A)*%
X293447500Y-68190000D02*
X291502500Y-66245000D01*
X300000000Y-68190000D02*
X293447500Y-68190000D01*
%TO.N,Net-(D61-A)*%
X43500000Y-68190000D02*
X36272500Y-68190000D01*
X36272500Y-68190000D02*
X34327500Y-66245000D01*
%TO.N,/ROW2*%
X157572601Y-83895000D02*
X153262500Y-88205101D01*
X176764744Y-71500000D02*
X188502500Y-83237756D01*
X153262500Y-89342056D02*
X147484556Y-95120000D01*
X284500000Y-132620000D02*
X284500000Y-129500000D01*
X147484556Y-95120000D02*
X145500000Y-95120000D01*
X131055635Y-84500000D02*
X127455635Y-88100000D01*
X284500000Y-129500000D02*
X287000000Y-127000000D01*
X96500000Y-69000000D02*
X87500000Y-60000000D01*
X188502500Y-83237756D02*
X188502500Y-88502500D01*
X127455635Y-88100000D02*
X124500000Y-88100000D01*
X200000000Y-104000000D02*
X202000000Y-106000000D01*
X117000000Y-85500000D02*
X115762500Y-84262500D01*
X134010902Y-84500000D02*
X131055635Y-84500000D01*
X164107056Y-83895000D02*
X157572601Y-83895000D01*
X83000000Y-59000000D02*
X80120000Y-56120000D01*
X115762500Y-84262500D02*
X115762500Y-83500000D01*
X103500000Y-74070685D02*
X98429315Y-69000000D01*
X187380000Y-56120000D02*
X179674265Y-63825735D01*
X124500000Y-89000000D02*
X124500000Y-88100000D01*
X98429315Y-69000000D02*
X96500000Y-69000000D01*
X176500000Y-71500000D02*
X176500000Y-71502056D01*
X195000000Y-95000000D02*
X195000000Y-96500000D01*
X212500000Y-111910444D02*
X212500000Y-113310000D01*
X120600000Y-88100000D02*
X119500000Y-87000000D01*
X103500000Y-75620000D02*
X103500000Y-74070685D01*
X205000000Y-106000000D02*
X206589556Y-106000000D01*
X176500000Y-70000000D02*
X176500000Y-71500000D01*
X153262500Y-88205101D02*
X153262500Y-89342056D01*
X206589556Y-106000000D02*
X212500000Y-111910444D01*
X124500000Y-88100000D02*
X120600000Y-88100000D01*
X176500000Y-71502056D02*
X164107056Y-83895000D01*
X200000000Y-101500000D02*
X200000000Y-104000000D01*
X145500000Y-95120000D02*
X144630902Y-95120000D01*
X188502500Y-88502500D02*
X195000000Y-95000000D01*
X217310000Y-113310000D02*
X220000000Y-116000000D01*
X144630902Y-95120000D02*
X134010902Y-84500000D01*
X188500000Y-56120000D02*
X187380000Y-56120000D01*
X87500000Y-60000000D02*
X84500000Y-60000000D01*
X105000000Y-113500000D02*
X105000000Y-111000000D01*
X212500000Y-113310000D02*
X217310000Y-113310000D01*
X176500000Y-71500000D02*
X176764744Y-71500000D01*
X80120000Y-56120000D02*
X74500000Y-56120000D01*
%TO.N,Net-(D16-A)*%
X93132500Y-106000000D02*
X91477500Y-104345000D01*
X98500000Y-106000000D02*
X93132500Y-106000000D01*
%TO.N,/ROW8*%
X302000000Y-54906460D02*
X309192760Y-47713700D01*
X309680000Y-71750000D02*
X309680000Y-71820000D01*
X58100000Y-106145635D02*
X58100000Y-91362399D01*
X40500000Y-132810000D02*
X48481250Y-124828750D01*
X308000000Y-73500000D02*
X307903700Y-73500000D01*
X46310000Y-75810000D02*
X46500000Y-76000000D01*
X142500000Y-84500000D02*
X141500000Y-83500000D01*
X309192760Y-47713700D02*
X310167240Y-47713700D01*
X47500000Y-80762399D02*
X55972601Y-89235000D01*
X61395444Y-88025000D02*
X68180444Y-94810000D01*
X58100000Y-91362399D02*
X55972601Y-89235000D01*
X310856300Y-48402760D02*
X310856300Y-70573700D01*
X68180444Y-94810000D02*
X69500000Y-94810000D01*
X159000000Y-133120000D02*
X226690000Y-133120000D01*
X302000000Y-56810000D02*
X302000000Y-54906460D01*
X47500000Y-78000000D02*
X47500000Y-80762399D01*
X160500000Y-115500000D02*
X160500000Y-112500000D01*
X58342399Y-88025000D02*
X61395444Y-88025000D01*
X309680000Y-71820000D02*
X308000000Y-73500000D01*
X57132399Y-89235000D02*
X58342399Y-88025000D01*
X48481250Y-115764385D02*
X58100000Y-106145635D01*
X226690000Y-133120000D02*
X227000000Y-132810000D01*
X310167240Y-47713700D02*
X310856300Y-48402760D01*
X48481250Y-124828750D02*
X48481250Y-115764385D01*
X141500000Y-83500000D02*
X138500000Y-83500000D01*
X310856300Y-70573700D02*
X309680000Y-71750000D01*
X55972601Y-89235000D02*
X57132399Y-89235000D01*
X43500000Y-75810000D02*
X46310000Y-75810000D01*
%TO.N,Net-(D60-A)*%
X33741250Y-125190000D02*
X31946250Y-123395000D01*
X40500000Y-125190000D02*
X33741250Y-125190000D01*
%TO.N,Net-(D63-A)*%
X159000000Y-125500000D02*
X153113750Y-125500000D01*
X153113750Y-125500000D02*
X151008750Y-123395000D01*
%TO.N,/ROW3*%
X309680000Y-59050000D02*
X308050000Y-59050000D01*
X118000000Y-113620000D02*
X117500000Y-114120000D01*
X123600000Y-67220000D02*
X113000000Y-56620000D01*
X255500000Y-75620000D02*
X237000000Y-75620000D01*
X217500000Y-75620000D02*
X194600000Y-98520000D01*
X119862500Y-111757500D02*
X119862500Y-89401598D01*
X302100000Y-64500000D02*
X285500000Y-64500000D01*
X237000000Y-75620000D02*
X236500000Y-75120000D01*
X149435635Y-113620000D02*
X136500000Y-113620000D01*
X236500000Y-75120000D02*
X218000000Y-75120000D01*
X119862500Y-89401598D02*
X118485902Y-88025000D01*
X117500000Y-114120000D02*
X119862500Y-111757500D01*
X118485902Y-74569733D02*
X123600000Y-69455635D01*
X194600000Y-98520000D02*
X164535635Y-98520000D01*
X112500000Y-56120000D02*
X94000000Y-56120000D01*
X308050000Y-59050000D02*
X306600000Y-60500000D01*
X218000000Y-75120000D02*
X217500000Y-75620000D01*
X136500000Y-113620000D02*
X118000000Y-113620000D01*
X113000000Y-56620000D02*
X112500000Y-56120000D01*
X118485902Y-88025000D02*
X118485902Y-74569733D01*
X285500000Y-64500000D02*
X281500000Y-68500000D01*
X164535635Y-98520000D02*
X149435635Y-113620000D01*
X123600000Y-69455635D02*
X123600000Y-67220000D01*
%TO.N,Net-(D24-A)*%
X94000000Y-48500000D02*
X88020000Y-48500000D01*
X88020000Y-48500000D02*
X86715000Y-47195000D01*
%TO.N,Net-(D59-A)*%
X69500000Y-87190000D02*
X64797500Y-87190000D01*
X64797500Y-87190000D02*
X62902500Y-85295000D01*
%TO.N,Net-(D49-A)*%
X300500000Y-86880000D02*
X285943750Y-86880000D01*
X285943750Y-86880000D02*
X284358750Y-85295000D01*
%TO.N,Net-(D33-A)*%
X251500000Y-105500000D02*
X245032500Y-105500000D01*
X245032500Y-105500000D02*
X243877500Y-104345000D01*
%TO.N,Net-(D15-A)*%
X145500000Y-87500000D02*
X141307500Y-87500000D01*
X141307500Y-87500000D02*
X139102500Y-85295000D01*
%TO.N,Net-(D36-A)*%
X127000000Y-87000000D02*
X121757500Y-87000000D01*
X121757500Y-87000000D02*
X120052500Y-85295000D01*
%TO.N,Net-(D53-A)*%
X57553750Y-125190000D02*
X55758750Y-123395000D01*
X64000000Y-125190000D02*
X57553750Y-125190000D01*
%TO.N,Net-(D52-A)*%
X60085000Y-68190000D02*
X58140000Y-66245000D01*
X65000000Y-68190000D02*
X60085000Y-68190000D01*
%TO.N,Net-(D18-A)*%
X278820000Y-125000000D02*
X277215000Y-123395000D01*
X284500000Y-125000000D02*
X278820000Y-125000000D01*
%TO.N,Net-(D29-A)*%
X217007500Y-87000000D02*
X215302500Y-85295000D01*
X222000000Y-87000000D02*
X217007500Y-87000000D01*
%TO.N,Net-(D25-A)*%
X236500000Y-67500000D02*
X230845000Y-67500000D01*
X230845000Y-67500000D02*
X229590000Y-66245000D01*
%TO.N,Net-(D12-A)*%
X84000000Y-67500000D02*
X78445000Y-67500000D01*
X78445000Y-67500000D02*
X77190000Y-66245000D01*
%TO.N,Net-(D45-A)*%
X269945000Y-68500000D02*
X267690000Y-66245000D01*
X274500000Y-68500000D02*
X269945000Y-68500000D01*
%TO.N,Net-(D57-A)*%
X227000000Y-125190000D02*
X221860000Y-125190000D01*
X221860000Y-125190000D02*
X220065000Y-123395000D01*
%TO.N,Net-(D30-A)*%
X226482500Y-106000000D02*
X224827500Y-104345000D01*
X232000000Y-106000000D02*
X226482500Y-106000000D01*
%TO.N,Net-(D4-A)*%
X174695000Y-68500000D02*
X172440000Y-66245000D01*
X179500000Y-68500000D02*
X174695000Y-68500000D01*
%TO.N,Net-(D43-A)*%
X155500000Y-106000000D02*
X150282500Y-106000000D01*
X150282500Y-106000000D02*
X148627500Y-104345000D01*
%TO.N,Net-(D23-A)*%
X112682500Y-106500000D02*
X110527500Y-104345000D01*
X117500000Y-106500000D02*
X112682500Y-106500000D01*
%TO.N,Net-(D5-A)*%
X178907500Y-87000000D02*
X177202500Y-85295000D01*
X184500000Y-87000000D02*
X178907500Y-87000000D01*
%TO.N,Net-(D10-A)*%
X55500000Y-48000000D02*
X49420000Y-48000000D01*
X49420000Y-48000000D02*
X48615000Y-47195000D01*
%TO.N,Net-(D46-A)*%
X174000000Y-105690000D02*
X169022500Y-105690000D01*
X169022500Y-105690000D02*
X167677500Y-104345000D01*
%TO.N,Net-(SW64-Pad1)*%
X333169000Y-51087000D02*
X333169000Y-44452256D01*
X323743700Y-52606300D02*
X323743700Y-62953700D01*
X329353744Y-40637000D02*
X327984256Y-40637000D01*
X327984256Y-40637000D02*
X326096300Y-42524956D01*
X333169000Y-44452256D02*
X329353744Y-40637000D01*
X323743700Y-62953700D02*
X324920000Y-64130000D01*
X326096300Y-50253700D02*
X324920000Y-51430000D01*
X333169000Y-51087000D02*
X333169000Y-41987000D01*
X324920000Y-51430000D02*
X323743700Y-52606300D01*
X326096300Y-42524956D02*
X326096300Y-50253700D01*
%TO.N,Net-(U1-RESET)*%
X328669000Y-51087000D02*
X328669000Y-41987000D01*
X327803000Y-51087000D02*
X324920000Y-53970000D01*
X328669000Y-51087000D02*
X327803000Y-51087000D01*
%TO.N,Net-(D58-A)*%
X160000000Y-67690000D02*
X154835000Y-67690000D01*
X154835000Y-67690000D02*
X153390000Y-66245000D01*
%TO.N,Net-(D42-A)*%
X82847500Y-86190000D02*
X81952500Y-85295000D01*
X89000000Y-86190000D02*
X82847500Y-86190000D01*
%TO.N,Net-(D37-A)*%
X265000000Y-125000000D02*
X259770000Y-125000000D01*
X259770000Y-125000000D02*
X258165000Y-123395000D01*
%TO.N,Net-(D6-A)*%
X158357500Y-85500000D02*
X158152500Y-85295000D01*
X165000000Y-85500000D02*
X158357500Y-85500000D01*
%TO.N,Net-(D2-A)*%
X151000000Y-48690000D02*
X145360000Y-48690000D01*
X145360000Y-48690000D02*
X143865000Y-47195000D01*
%TO.N,Net-(D47-A)*%
X87500000Y-125190000D02*
X81366250Y-125190000D01*
X81366250Y-125190000D02*
X79571250Y-123395000D01*
%TO.N,Net-(D20-A)*%
X188500000Y-48500000D02*
X183270000Y-48500000D01*
X183270000Y-48500000D02*
X181965000Y-47195000D01*
%TO.N,Net-(D51-A)*%
X240110000Y-48190000D02*
X239115000Y-47195000D01*
X246000000Y-48190000D02*
X240110000Y-48190000D01*
%TO.N,Net-(D62-A)*%
X288735000Y-49190000D02*
X286740000Y-47195000D01*
X302000000Y-49190000D02*
X288735000Y-49190000D01*
%TO.N,Net-(D7-A)*%
X74582500Y-106500000D02*
X72427500Y-104345000D01*
X79000000Y-106500000D02*
X74582500Y-106500000D01*
%TO.N,Net-(D14-A)*%
X203000000Y-87000000D02*
X197957500Y-87000000D01*
X197957500Y-87000000D02*
X196252500Y-85295000D01*
%TO.N,Net-(D21-A)*%
X97995000Y-68000000D02*
X96240000Y-66245000D01*
X103500000Y-68000000D02*
X97995000Y-68000000D01*
%TO.N,Net-(D48-A)*%
X38413750Y-87000000D02*
X36708750Y-85295000D01*
X46500000Y-87000000D02*
X38413750Y-87000000D01*
%TO.N,Net-(D40-A)*%
X246000000Y-124000000D02*
X239720000Y-124000000D01*
X239720000Y-124000000D02*
X239115000Y-123395000D01*
%TO.N,Net-(D9-A)*%
X298370000Y-125500000D02*
X296265000Y-123395000D01*
X304000000Y-125500000D02*
X298370000Y-125500000D01*
%TO.N,Net-(D19-A)*%
X74500000Y-48500000D02*
X68970000Y-48500000D01*
X68970000Y-48500000D02*
X67665000Y-47195000D01*
%TO.N,Net-(D55-A)*%
X271916250Y-106190000D02*
X270071250Y-104345000D01*
X279500000Y-106190000D02*
X271916250Y-106190000D01*
%TD*%
M02*
