M48
; DRILL file KiCad 10.0.0 date 2026-05-26T16:25:57
; FORMAT={-:-/ absolute / metric / decimal}
; #@! TF.CreationDate,2026-05-26T16:25:57-04:00
; #@! TF.GenerationSoftware,Kicad,Pcbnew,10.0.0
; #@! TF.FileFunction,NonPlated,1,2,NPTH
FMAT,2
METRIC
; #@! TA.AperFunction,NonPlated,NPTH,ComponentDrill
T1C1.700
; #@! TA.AperFunction,NonPlated,NPTH,ComponentDrill
T2C3.050
; #@! TA.AperFunction,NonPlated,NPTH,ComponentDrill
T3C4.000
%
G90
G05
T1
X21.945Y-52.275
X24.326Y-128.475
X26.707Y-71.325
X29.089Y-90.375
X32.105Y-52.275
X33.851Y-109.425
X34.486Y-128.475
X36.867Y-71.325
X39.249Y-90.375
X40.995Y-52.275
X44.011Y-109.425
X48.139Y-128.475
X50.52Y-71.325
X51.155Y-52.275
X55.282Y-90.375
X58.299Y-128.475
X60.045Y-52.275
X60.68Y-71.325
X64.807Y-109.425
X65.442Y-90.375
X69.57Y-71.325
X70.205Y-52.275
X71.951Y-128.475
X74.332Y-90.375
X74.968Y-109.425
X79.095Y-52.275
X79.73Y-71.325
X82.111Y-128.475
X83.858Y-109.425
X84.492Y-90.375
X88.62Y-71.325
X89.255Y-52.275
X93.382Y-90.375
X94.017Y-109.425
X98.145Y-52.275
X98.78Y-71.325
X102.907Y-109.425
X103.542Y-90.375
X107.67Y-71.325
X108.305Y-52.275
X112.432Y-90.375
X113.067Y-109.425
X117.195Y-52.275
X117.83Y-71.325
X121.957Y-109.425
X122.593Y-90.375
X126.72Y-71.325
X127.355Y-52.275
X131.482Y-90.375
X132.118Y-109.425
X136.245Y-52.275
X136.88Y-71.325
X141.007Y-109.425
X141.642Y-90.375
X143.389Y-128.475
X145.77Y-71.325
X146.405Y-52.275
X150.532Y-90.375
X151.167Y-109.425
X153.549Y-128.475
X155.295Y-52.275
X155.93Y-71.325
X160.058Y-109.425
X160.692Y-90.375
X164.82Y-71.325
X165.455Y-52.275
X169.582Y-90.375
X170.218Y-109.425
X174.345Y-52.275
X174.98Y-71.325
X179.107Y-109.425
X179.742Y-90.375
X183.87Y-71.325
X184.505Y-52.275
X188.632Y-90.375
X189.267Y-109.425
X193.395Y-52.275
X194.03Y-71.325
X198.157Y-109.425
X198.792Y-90.375
X202.92Y-71.325
X203.555Y-52.275
X207.683Y-90.375
X208.317Y-109.425
X212.445Y-52.275
X212.445Y-128.475
X213.08Y-71.325
X217.207Y-109.425
X217.843Y-90.375
X221.97Y-71.325
X222.605Y-52.275
X222.605Y-128.475
X226.732Y-90.375
X227.367Y-109.425
X231.495Y-52.275
X231.495Y-128.475
X232.13Y-71.325
X236.257Y-109.425
X236.892Y-90.375
X241.02Y-71.325
X241.655Y-52.275
X241.655Y-128.475
X245.782Y-90.375
X246.417Y-109.425
X250.545Y-52.275
X250.545Y-128.475
X251.18Y-71.325
X255.942Y-90.375
X260.07Y-71.325
X260.705Y-52.275
X260.705Y-128.475
X262.451Y-109.425
X269.595Y-128.475
X270.23Y-71.325
X272.611Y-109.425
X276.739Y-90.375
X279.12Y-52.275
X279.755Y-128.475
X283.882Y-71.325
X286.899Y-90.375
X288.645Y-109.425
X288.645Y-128.475
X289.28Y-52.275
X294.042Y-71.325
X298.805Y-109.425
X298.805Y-128.475
T2
X27.031Y-102.425
X50.831Y-102.425
X98.469Y-121.475
X198.469Y-121.475
X269.919Y-83.375
X272.3Y-45.275
X293.719Y-83.375
X296.1Y-45.275
T3
X27.025Y-52.275
X27.031Y-117.665
X29.406Y-128.475
X31.787Y-71.325
X34.169Y-90.375
X38.931Y-109.425
X46.075Y-52.275
X50.831Y-117.665
X53.219Y-128.475
X55.6Y-71.325
X60.362Y-90.375
X65.125Y-52.275
X69.888Y-109.425
X74.65Y-71.325
X77.031Y-128.475
X79.412Y-90.375
X84.175Y-52.275
X88.938Y-109.425
X93.7Y-71.325
X98.462Y-90.375
X98.469Y-136.715
X103.225Y-52.275
X107.987Y-109.425
X112.75Y-71.325
X117.512Y-90.375
X122.275Y-52.275
X127.037Y-109.425
X131.8Y-71.325
X136.562Y-90.375
X141.325Y-52.275
X146.088Y-109.425
X148.469Y-128.475
X150.85Y-71.325
X155.612Y-90.375
X160.375Y-52.275
X165.137Y-109.425
X169.9Y-71.325
X174.662Y-90.375
X179.425Y-52.275
X184.188Y-109.425
X188.95Y-71.325
X193.712Y-90.375
X198.469Y-136.715
X198.475Y-52.275
X203.237Y-109.425
X208.0Y-71.325
X212.762Y-90.375
X217.525Y-52.275
X217.525Y-128.475
X222.287Y-109.425
X227.05Y-71.325
X231.812Y-90.375
X236.575Y-52.275
X236.575Y-128.475
X241.337Y-109.425
X246.1Y-71.325
X250.862Y-90.375
X255.625Y-52.275
X255.625Y-128.475
X265.15Y-71.325
X267.531Y-109.425
X269.919Y-98.615
X272.3Y-60.515
X274.675Y-128.475
X281.819Y-90.375
X284.2Y-52.275
X288.962Y-71.325
X293.719Y-98.615
X293.725Y-109.425
X293.725Y-128.475
X296.1Y-60.515
M30
