M48
; DRILL file KiCad 10.0.0 date 2026-05-26T16:25:57
; FORMAT={-:-/ absolute / metric / decimal}
; #@! TF.CreationDate,2026-05-26T16:25:57-04:00
; #@! TF.GenerationSoftware,Kicad,Pcbnew,10.0.0
; #@! TF.FileFunction,Plated,1,2,PTH
FMAT,2
METRIC
; #@! TA.AperFunction,Plated,PTH,ViaDrill
T1C0.300
; #@! TA.AperFunction,Plated,PTH,ComponentDrill
T2C0.800
; #@! TA.AperFunction,Plated,PTH,ComponentDrill
T3C1.000
; #@! TA.AperFunction,Plated,PTH,ComponentDrill
T4C1.092
; #@! TA.AperFunction,Plated,PTH,ComponentDrill
T5C1.500
%
G90
G05
T1
X46.5Y-76.0
X47.5Y-78.0
X58.5Y-116.0
X60.5Y-114.0
X63.5Y-91.0
X63.859Y-89.641
X67.0Y-61.5
X68.0Y-106.0
X69.0Y-65.0
X69.567Y-104.933
X70.0Y-100.0
X77.0Y-98.0
X83.0Y-59.0
X84.5Y-60.0
X89.443Y-117.557
X89.5Y-123.5
X93.0Y-117.5
X95.0Y-126.5
X98.5Y-94.5
X105.0Y-111.0
X105.0Y-113.5
X108.0Y-67.5
X109.0Y-66.225
X113.5Y-93.5
X113.5Y-95.0
X114.5Y-74.5
X114.5Y-93.5
X115.0Y-62.0
X115.762Y-83.5
X117.0Y-85.5
X118.027Y-57.973
X118.5Y-94.0
X118.5Y-109.0
X119.262Y-93.5
X119.5Y-87.0
X120.5Y-93.5
X120.5Y-108.0
X120.931Y-89.431
X122.0Y-93.5
X122.0Y-95.5
X124.5Y-89.0
X130.776Y-68.99
X136.0Y-77.0
X138.0Y-79.0
X138.5Y-83.5
X139.5Y-73.5
X139.5Y-78.0
X141.0Y-72.796
X142.5Y-84.5
X150.355Y-74.355
X152.0Y-74.5
X153.0Y-103.5
X157.0Y-103.5
X158.0Y-107.0
X159.457Y-107.5
X160.5Y-112.5
X160.5Y-115.5
X174.5Y-60.5
X175.0Y-81.5
X176.5Y-61.5
X176.5Y-70.0
X179.0Y-97.5
X179.674Y-63.826
X183.0Y-65.5
X190.0Y-99.12
X192.5Y-80.5
X193.0Y-77.01
X193.0Y-82.5
X193.0Y-97.92
X194.227Y-80.773
X194.292Y-53.35
X195.0Y-96.5
X195.449Y-83.912
X198.0Y-103.5
X198.5Y-77.01
X199.0Y-61.0
X199.5Y-81.5
X200.0Y-101.5
X200.5Y-63.0
X201.409Y-58.591
X202.0Y-96.5
X202.0Y-100.349
X202.0Y-106.0
X204.5Y-93.5
X205.0Y-106.0
X208.0Y-113.5
X208.296Y-96.704
X208.5Y-83.5
X209.5Y-85.5
X209.5Y-123.5
X210.5Y-125.5
X211.845Y-124.0
X212.5Y-96.0
X220.0Y-116.0
X221.5Y-54.0
X221.5Y-67.0
X223.5Y-73.0
X223.5Y-76.0
X227.5Y-66.0
X228.5Y-83.5
X229.5Y-86.0
X230.0Y-114.0
X230.5Y-116.5
X233.5Y-112.5
X235.5Y-114.0
X240.5Y-76.5
X243.0Y-74.0
X245.0Y-83.0
X245.5Y-84.495
X247.0Y-101.5
X247.5Y-121.0
X248.5Y-74.5
X248.5Y-76.5
X249.0Y-102.5
X257.0Y-111.5
X258.0Y-83.295
X258.5Y-109.0
X259.0Y-84.5
X261.0Y-108.0
X261.5Y-86.0
X262.5Y-123.5
X263.0Y-88.5
X265.5Y-59.5
X266.0Y-92.5
X266.0Y-95.0
X267.0Y-57.5
X268.174Y-132.326
X270.5Y-131.0
X275.5Y-124.5
X277.5Y-77.5
X280.5Y-77.0
X281.5Y-68.5
X287.0Y-127.0
X293.838Y-78.662
X296.0Y-82.0
X296.5Y-75.5
X300.5Y-79.5
X301.5Y-77.5
X302.1Y-64.5
X302.124Y-80.5
X303.5Y-75.5
X303.5Y-79.0
X304.0Y-65.5
X304.0Y-72.5
X304.126Y-78.126
X304.5Y-85.5
X306.6Y-60.5
X306.6Y-64.0
X307.0Y-71.0
X307.5Y-76.0
X307.904Y-68.0
X307.904Y-73.5
X309.104Y-68.359
X309.104Y-77.5
X322.5Y-59.5
T2
X36.5Y-47.88
X36.5Y-55.5
X40.5Y-125.19
X40.5Y-132.81
X43.5Y-68.19
X43.5Y-75.81
X46.5Y-87.0
X46.5Y-94.62
X55.5Y-48.0
X55.5Y-55.62
X57.0Y-105.69
X57.0Y-113.31
X64.0Y-125.19
X64.0Y-132.81
X65.0Y-68.19
X65.0Y-75.81
X69.5Y-87.19
X69.5Y-94.81
X74.5Y-48.5
X74.5Y-56.12
X79.0Y-106.5
X79.0Y-114.12
X84.0Y-67.5
X84.0Y-75.12
X87.5Y-125.19
X87.5Y-132.81
X89.0Y-86.19
X89.0Y-93.81
X94.0Y-48.5
X94.0Y-56.12
X98.5Y-106.0
X98.5Y-113.62
X103.5Y-68.0
X103.5Y-75.62
X108.0Y-87.0
X108.0Y-94.62
X113.0Y-49.0
X113.0Y-56.62
X117.5Y-106.5
X117.5Y-114.12
X122.5Y-69.0
X122.5Y-76.62
X127.0Y-87.0
X127.0Y-94.62
X132.0Y-47.69
X132.0Y-55.31
X136.5Y-106.0
X136.5Y-113.62
X141.5Y-68.5
X141.5Y-76.12
X145.5Y-87.5
X145.5Y-95.12
X151.0Y-48.69
X151.0Y-56.31
X155.5Y-106.0
X155.5Y-113.62
X159.0Y-125.5
X159.0Y-133.12
X160.0Y-67.69
X160.0Y-75.31
X165.0Y-85.5
X165.0Y-93.12
X169.5Y-48.5
X169.5Y-56.12
X174.0Y-105.69
X174.0Y-113.31
X179.5Y-68.5
X179.5Y-76.12
X184.5Y-87.0
X184.5Y-94.62
X188.5Y-48.5
X188.5Y-56.12
X193.5Y-104.19
X193.5Y-111.81
X198.5Y-67.69
X198.5Y-75.31
X203.0Y-87.0
X203.0Y-94.62
X208.0Y-48.5
X208.0Y-56.12
X212.5Y-105.69
X212.5Y-113.31
X217.5Y-68.0
X217.5Y-75.62
X222.0Y-87.0
X222.0Y-94.62
X227.0Y-125.19
X227.0Y-132.81
X227.5Y-49.0
X227.5Y-56.62
X232.0Y-106.0
X232.0Y-113.62
X236.5Y-67.5
X236.5Y-75.12
X241.0Y-87.0
X241.0Y-94.62
X246.0Y-48.19
X246.0Y-55.81
X246.0Y-124.0
X246.0Y-131.62
X251.5Y-105.5
X251.5Y-113.12
X255.5Y-68.0
X255.5Y-75.62
X260.0Y-87.5
X260.0Y-95.12
X264.5Y-49.0
X264.5Y-56.62
X265.0Y-125.0
X265.0Y-132.62
X274.5Y-68.5
X274.5Y-76.12
X279.5Y-106.19
X279.5Y-113.81
X284.5Y-125.0
X284.5Y-132.62
X300.0Y-68.19
X300.0Y-75.81
X300.5Y-86.88
X300.5Y-94.5
X302.0Y-49.19
X302.0Y-56.81
X303.0Y-106.19
X303.0Y-113.81
X304.0Y-125.5
X304.0Y-133.12
T3
X317.75Y-83.56
X320.29Y-83.56
X322.83Y-83.56
X325.37Y-83.56
T4
X309.68Y-43.81
X309.68Y-46.35
X309.68Y-48.89
X309.68Y-51.43
X309.68Y-53.97
X309.68Y-56.51
X309.68Y-59.05
X309.68Y-61.59
X309.68Y-64.13
X309.68Y-66.67
X309.68Y-69.21
X309.68Y-71.75
X309.68Y-74.29
X324.92Y-43.81
X324.92Y-46.35
X324.92Y-48.89
X324.92Y-51.43
X324.92Y-53.97
X324.92Y-56.51
X324.92Y-59.05
X324.92Y-61.59
X324.92Y-64.13
X324.92Y-66.67
X324.92Y-69.21
X324.92Y-71.75
X324.92Y-74.29
T5
X23.215Y-49.735
X25.596Y-125.935
X27.977Y-68.785
X29.565Y-47.195
X30.359Y-87.835
X31.946Y-123.395
X34.328Y-66.245
X35.121Y-106.885
X36.709Y-85.295
X41.471Y-104.345
X42.265Y-49.735
X48.615Y-47.195
X49.409Y-125.935
X51.79Y-68.785
X55.759Y-123.395
X56.552Y-87.835
X58.14Y-66.245
X61.315Y-49.735
X62.902Y-85.295
X66.078Y-106.885
X67.665Y-47.195
X70.84Y-68.785
X72.427Y-104.345
X73.221Y-125.935
X75.602Y-87.835
X77.19Y-66.245
X79.571Y-123.395
X80.365Y-49.735
X81.953Y-85.295
X85.127Y-106.885
X86.715Y-47.195
X89.89Y-68.785
X91.477Y-104.345
X94.652Y-87.835
X96.24Y-66.245
X99.415Y-49.735
X101.002Y-85.295
X104.177Y-106.885
X105.765Y-47.195
X108.94Y-68.785
X110.527Y-104.345
X113.703Y-87.835
X115.29Y-66.245
X118.465Y-49.735
X120.052Y-85.295
X123.227Y-106.885
X124.815Y-47.195
X127.99Y-68.785
X129.577Y-104.345
X132.752Y-87.835
X134.34Y-66.245
X137.515Y-49.735
X139.102Y-85.295
X142.278Y-106.885
X143.865Y-47.195
X144.659Y-125.935
X147.04Y-68.785
X148.627Y-104.345
X151.009Y-123.395
X151.802Y-87.835
X153.39Y-66.245
X156.565Y-49.735
X158.153Y-85.295
X161.327Y-106.885
X162.915Y-47.195
X166.09Y-68.785
X167.677Y-104.345
X170.852Y-87.835
X172.44Y-66.245
X175.615Y-49.735
X177.202Y-85.295
X180.377Y-106.885
X181.965Y-47.195
X185.14Y-68.785
X186.727Y-104.345
X189.903Y-87.835
X191.49Y-66.245
X194.665Y-49.735
X196.252Y-85.295
X199.427Y-106.885
X201.015Y-47.195
X204.19Y-68.785
X205.778Y-104.345
X208.952Y-87.835
X210.54Y-66.245
X213.715Y-49.735
X213.715Y-125.935
X215.302Y-85.295
X218.477Y-106.885
X220.065Y-47.195
X220.065Y-123.395
X223.24Y-68.785
X224.827Y-104.345
X228.002Y-87.835
X229.59Y-66.245
X232.765Y-49.735
X232.765Y-125.935
X234.352Y-85.295
X237.528Y-106.885
X239.115Y-47.195
X239.115Y-123.395
X242.29Y-68.785
X243.877Y-104.345
X247.052Y-87.835
X248.64Y-66.245
X251.815Y-49.735
X251.815Y-125.935
X253.402Y-85.295
X258.165Y-47.195
X258.165Y-123.395
X261.34Y-68.785
X263.721Y-106.885
X267.69Y-66.245
X270.071Y-104.345
X270.865Y-125.935
X277.215Y-123.395
X278.009Y-87.835
X280.39Y-49.735
X284.359Y-85.295
X285.152Y-68.785
X286.74Y-47.195
X289.915Y-106.885
X289.915Y-125.935
X291.502Y-66.245
X296.265Y-104.345
X296.265Y-123.395
M30
