%TF.GenerationSoftware,KiCad,Pcbnew,10.0.0*%
%TF.CreationDate,2026-05-26T16:27:38-04:00*%
%TF.ProjectId,keyboard,6b657962-6f61-4726-942e-6b696361645f,rev?*%
%TF.SameCoordinates,Original*%
%TF.FileFunction,Soldermask,Top*%
%TF.FilePolarity,Negative*%
%FSLAX46Y46*%
G04 Gerber Fmt 4.6, Leading zero omitted, Abs format (unit mm)*
G04 Created by KiCad (PCBNEW 10.0.0) date 2026-05-26 16:27:38*
%MOMM*%
%LPD*%
G01*
G04 APERTURE LIST*
G04 Aperture macros list*
%AMRoundRect*
0 Rectangle with rounded corners*
0 $1 Rounding radius*
0 $2 $3 $4 $5 $6 $7 $8 $9 X,Y pos of 4 corners*
0 Add a 4 corners polygon primitive as box body*
4,1,4,$2,$3,$4,$5,$6,$7,$8,$9,$2,$3,0*
0 Add four circle primitives for the rounded corners*
1,1,$1+$1,$2,$3*
1,1,$1+$1,$4,$5*
1,1,$1+$1,$6,$7*
1,1,$1+$1,$8,$9*
0 Add four rect primitives between the rounded corners*
20,1,$1+$1,$2,$3,$4,$5,0*
20,1,$1+$1,$4,$5,$6,$7,0*
20,1,$1+$1,$6,$7,$8,$9,0*
20,1,$1+$1,$8,$9,$2,$3,0*%
G04 Aperture macros list end*
%ADD10RoundRect,0.250000X0.550000X-0.550000X0.550000X0.550000X-0.550000X0.550000X-0.550000X-0.550000X0*%
%ADD11C,1.600000*%
%ADD12R,1.700000X1.700000*%
%ADD13C,1.700000*%
%ADD14C,4.000000*%
%ADD15C,2.200000*%
%ADD16C,3.050000*%
%ADD17RoundRect,0.250000X-0.450000X0.800000X-0.450000X-0.800000X0.450000X-0.800000X0.450000X0.800000X0*%
%ADD18R,1.752600X1.752600*%
%ADD19C,1.752600*%
G04 APERTURE END LIST*
D10*
%TO.C,D32*%
X241000000Y-94620000D03*
D11*
X241000000Y-87000000D03*
%TD*%
D12*
%TO.C,J1*%
X317750000Y-83560000D03*
D13*
X320290000Y-83560000D03*
X322830000Y-83560000D03*
X325370000Y-83560000D03*
%TD*%
D10*
%TO.C,D13*%
X198500000Y-75310000D03*
D11*
X198500000Y-67690000D03*
%TD*%
D10*
%TO.C,D8*%
X193500000Y-111810000D03*
D11*
X193500000Y-104190000D03*
%TD*%
D13*
%TO.C,SW22*%
X202920000Y-71325000D03*
D14*
X208000000Y-71325000D03*
D13*
X213080000Y-71325000D03*
D15*
X210540000Y-66245000D03*
X204190000Y-68785000D03*
%TD*%
D13*
%TO.C,SW40*%
X241020000Y-71325000D03*
D14*
X246100000Y-71325000D03*
D13*
X251180000Y-71325000D03*
D15*
X248640000Y-66245000D03*
X242290000Y-68785000D03*
%TD*%
D13*
%TO.C,SW30*%
X107670000Y-71325000D03*
D14*
X112750000Y-71325000D03*
D13*
X117830000Y-71325000D03*
D15*
X115290000Y-66245000D03*
X108940000Y-68785000D03*
%TD*%
D13*
%TO.C,SW29*%
X193395000Y-52275000D03*
D14*
X198475000Y-52275000D03*
D13*
X203555000Y-52275000D03*
D15*
X201015000Y-47195000D03*
X194665000Y-49735000D03*
%TD*%
D10*
%TO.C,D39*%
X108000000Y-94620000D03*
D11*
X108000000Y-87000000D03*
%TD*%
D10*
%TO.C,D41*%
X141500000Y-76120000D03*
D11*
X141500000Y-68500000D03*
%TD*%
D13*
%TO.C,SW17*%
X198157500Y-109425000D03*
D14*
X203237500Y-109425000D03*
D13*
X208317500Y-109425000D03*
D15*
X205777500Y-104345000D03*
X199427500Y-106885000D03*
%TD*%
D13*
%TO.C,SW3*%
X250545000Y-52275000D03*
D14*
X255625000Y-52275000D03*
D13*
X260705000Y-52275000D03*
D15*
X258165000Y-47195000D03*
X251815000Y-49735000D03*
%TD*%
D13*
%TO.C,SW46*%
X117195000Y-52275000D03*
D14*
X122275000Y-52275000D03*
D13*
X127355000Y-52275000D03*
D15*
X124815000Y-47195000D03*
X118465000Y-49735000D03*
%TD*%
D10*
%TO.C,D50*%
X303000000Y-113810000D03*
D11*
X303000000Y-106190000D03*
%TD*%
D10*
%TO.C,D56*%
X57000000Y-113310000D03*
D11*
X57000000Y-105690000D03*
%TD*%
D13*
%TO.C,SW32*%
X226732500Y-90375000D03*
D14*
X231812500Y-90375000D03*
D13*
X236892500Y-90375000D03*
D15*
X234352500Y-85295000D03*
X228002500Y-87835000D03*
%TD*%
D10*
%TO.C,D44*%
X132000000Y-55310000D03*
D11*
X132000000Y-47690000D03*
%TD*%
D10*
%TO.C,D1*%
X36500000Y-55500000D03*
D11*
X36500000Y-47880000D03*
%TD*%
D10*
%TO.C,D35*%
X260000000Y-95120000D03*
D11*
X260000000Y-87500000D03*
%TD*%
D13*
%TO.C,SW38*%
X212445000Y-52275000D03*
D14*
X217525000Y-52275000D03*
D13*
X222605000Y-52275000D03*
D15*
X220065000Y-47195000D03*
X213715000Y-49735000D03*
%TD*%
D10*
%TO.C,D11*%
X169500000Y-56120000D03*
D11*
X169500000Y-48500000D03*
%TD*%
D13*
%TO.C,SW34*%
X121957500Y-109425000D03*
D14*
X127037500Y-109425000D03*
D13*
X132117500Y-109425000D03*
D15*
X129577500Y-104345000D03*
X123227500Y-106885000D03*
%TD*%
D13*
%TO.C,SW37*%
X98145000Y-52275000D03*
D14*
X103225000Y-52275000D03*
D13*
X108305000Y-52275000D03*
D15*
X105765000Y-47195000D03*
X99415000Y-49735000D03*
%TD*%
D10*
%TO.C,D54*%
X300000000Y-75810000D03*
D11*
X300000000Y-68190000D03*
%TD*%
D10*
%TO.C,D38*%
X122500000Y-76620000D03*
D11*
X122500000Y-69000000D03*
%TD*%
D13*
%TO.C,SW57*%
X26707500Y-71325000D03*
D14*
X31787500Y-71325000D03*
D13*
X36867500Y-71325000D03*
D15*
X34327500Y-66245000D03*
X27977500Y-68785000D03*
%TD*%
D10*
%TO.C,D16*%
X98500000Y-113620000D03*
D11*
X98500000Y-106000000D03*
%TD*%
D10*
%TO.C,D60*%
X40500000Y-132810000D03*
D11*
X40500000Y-125190000D03*
%TD*%
D10*
%TO.C,D63*%
X159000000Y-133120000D03*
D11*
X159000000Y-125500000D03*
%TD*%
D10*
%TO.C,D24*%
X94000000Y-56120000D03*
D11*
X94000000Y-48500000D03*
%TD*%
D13*
%TO.C,SW51*%
X55282500Y-90375000D03*
D14*
X60362500Y-90375000D03*
D13*
X65442500Y-90375000D03*
D15*
X62902500Y-85295000D03*
X56552500Y-87835000D03*
%TD*%
D13*
%TO.C,SW13*%
X183870000Y-71325000D03*
D14*
X188950000Y-71325000D03*
D13*
X194030000Y-71325000D03*
D15*
X191490000Y-66245000D03*
X185140000Y-68785000D03*
%TD*%
D16*
%TO.C,SW61*%
X269918750Y-83375000D03*
D14*
X269918750Y-98615000D03*
D13*
X276738750Y-90375000D03*
D14*
X281818750Y-90375000D03*
D13*
X286898750Y-90375000D03*
D16*
X293718750Y-83375000D03*
D14*
X293718750Y-98615000D03*
D15*
X284358750Y-85295000D03*
X278008750Y-87835000D03*
%TD*%
D13*
%TO.C,SW8*%
X179107500Y-109425000D03*
D14*
X184187500Y-109425000D03*
D13*
X189267500Y-109425000D03*
D15*
X186727500Y-104345000D03*
X180377500Y-106885000D03*
%TD*%
D10*
%TO.C,D33*%
X251500000Y-113120000D03*
D11*
X251500000Y-105500000D03*
%TD*%
D13*
%TO.C,SW15*%
X131482500Y-90375000D03*
D14*
X136562500Y-90375000D03*
D13*
X141642500Y-90375000D03*
D15*
X139102500Y-85295000D03*
X132752500Y-87835000D03*
%TD*%
D10*
%TO.C,D26*%
X136500000Y-113620000D03*
D11*
X136500000Y-106000000D03*
%TD*%
D13*
%TO.C,SW16*%
X83857500Y-109425000D03*
D14*
X88937500Y-109425000D03*
D13*
X94017500Y-109425000D03*
D15*
X91477500Y-104345000D03*
X85127500Y-106885000D03*
%TD*%
D10*
%TO.C,D36*%
X127000000Y-94620000D03*
D11*
X127000000Y-87000000D03*
%TD*%
D10*
%TO.C,D22*%
X217500000Y-75620000D03*
D11*
X217500000Y-68000000D03*
%TD*%
D10*
%TO.C,D53*%
X64000000Y-132810000D03*
D11*
X64000000Y-125190000D03*
%TD*%
D10*
%TO.C,D49*%
X300500000Y-94500000D03*
D11*
X300500000Y-86880000D03*
%TD*%
D10*
%TO.C,D52*%
X65000000Y-75810000D03*
D11*
X65000000Y-68190000D03*
%TD*%
D13*
%TO.C,SW54*%
X24326250Y-128475000D03*
D14*
X29406250Y-128475000D03*
D13*
X34486250Y-128475000D03*
D15*
X31946250Y-123395000D03*
X25596250Y-125935000D03*
%TD*%
D10*
%TO.C,D31*%
X208000000Y-56120000D03*
D11*
X208000000Y-48500000D03*
%TD*%
D13*
%TO.C,SW39*%
X126720000Y-71325000D03*
D14*
X131800000Y-71325000D03*
D13*
X136880000Y-71325000D03*
D15*
X134340000Y-66245000D03*
X127990000Y-68785000D03*
%TD*%
D10*
%TO.C,D18*%
X284500000Y-132620000D03*
D11*
X284500000Y-125000000D03*
%TD*%
D13*
%TO.C,SW23*%
X207682500Y-90375000D03*
D14*
X212762500Y-90375000D03*
D13*
X217842500Y-90375000D03*
D15*
X215302500Y-85295000D03*
X208952500Y-87835000D03*
%TD*%
D10*
%TO.C,D28*%
X255500000Y-75620000D03*
D11*
X255500000Y-68000000D03*
%TD*%
D10*
%TO.C,D15*%
X145500000Y-95120000D03*
D11*
X145500000Y-87500000D03*
%TD*%
D13*
%TO.C,SW31*%
X221970000Y-71325000D03*
D14*
X227050000Y-71325000D03*
D13*
X232130000Y-71325000D03*
D15*
X229590000Y-66245000D03*
X223240000Y-68785000D03*
%TD*%
D16*
%TO.C,SW63*%
X98468750Y-121475000D03*
D14*
X98468750Y-136715000D03*
D13*
X143388750Y-128475000D03*
D14*
X148468750Y-128475000D03*
D13*
X153548750Y-128475000D03*
D16*
X198468750Y-121475000D03*
D14*
X198468750Y-136715000D03*
D15*
X151008750Y-123395000D03*
X144658750Y-125935000D03*
%TD*%
D13*
%TO.C,SW12*%
X69570000Y-71325000D03*
D14*
X74650000Y-71325000D03*
D13*
X79730000Y-71325000D03*
D15*
X77190000Y-66245000D03*
X70840000Y-68785000D03*
%TD*%
D13*
%TO.C,SW49*%
X260070000Y-71325000D03*
D14*
X265150000Y-71325000D03*
D13*
X270230000Y-71325000D03*
D15*
X267690000Y-66245000D03*
X261340000Y-68785000D03*
%TD*%
D13*
%TO.C,SW45*%
X212445000Y-128475000D03*
D14*
X217525000Y-128475000D03*
D13*
X222605000Y-128475000D03*
D15*
X220065000Y-123395000D03*
X213715000Y-125935000D03*
%TD*%
D13*
%TO.C,SW26*%
X217207500Y-109425000D03*
D14*
X222287500Y-109425000D03*
D13*
X227367500Y-109425000D03*
D15*
X224827500Y-104345000D03*
X218477500Y-106885000D03*
%TD*%
D10*
%TO.C,D34*%
X227500000Y-56620000D03*
D11*
X227500000Y-49000000D03*
%TD*%
D13*
%TO.C,SW50*%
X50520000Y-71325000D03*
D14*
X55600000Y-71325000D03*
D13*
X60680000Y-71325000D03*
D15*
X58140000Y-66245000D03*
X51790000Y-68785000D03*
%TD*%
D10*
%TO.C,D4*%
X179500000Y-76120000D03*
D11*
X179500000Y-68500000D03*
%TD*%
D13*
%TO.C,SW28*%
X79095000Y-52275000D03*
D14*
X84175000Y-52275000D03*
D13*
X89255000Y-52275000D03*
D15*
X86715000Y-47195000D03*
X80365000Y-49735000D03*
%TD*%
D10*
%TO.C,D43*%
X155500000Y-113620000D03*
D11*
X155500000Y-106000000D03*
%TD*%
D10*
%TO.C,D23*%
X117500000Y-114120000D03*
D11*
X117500000Y-106500000D03*
%TD*%
D10*
%TO.C,D5*%
X184500000Y-94620000D03*
D11*
X184500000Y-87000000D03*
%TD*%
D13*
%TO.C,SW1*%
X21945000Y-52275000D03*
D14*
X27025000Y-52275000D03*
D13*
X32105000Y-52275000D03*
D15*
X29565000Y-47195000D03*
X23215000Y-49735000D03*
%TD*%
D10*
%TO.C,D17*%
X212500000Y-113310000D03*
D11*
X212500000Y-105690000D03*
%TD*%
D13*
%TO.C,SW56*%
X283882500Y-71325000D03*
D14*
X288962500Y-71325000D03*
D13*
X294042500Y-71325000D03*
D15*
X291502500Y-66245000D03*
X285152500Y-68785000D03*
%TD*%
D13*
%TO.C,SW10*%
X40995000Y-52275000D03*
D14*
X46075000Y-52275000D03*
D13*
X51155000Y-52275000D03*
D15*
X48615000Y-47195000D03*
X42265000Y-49735000D03*
%TD*%
D10*
%TO.C,D46*%
X174000000Y-113310000D03*
D11*
X174000000Y-105690000D03*
%TD*%
D17*
%TO.C,SW64*%
X333169000Y-41987000D03*
X333169000Y-51087000D03*
X328669000Y-41987000D03*
X328669000Y-51087000D03*
%TD*%
D13*
%TO.C,SW33*%
X93382500Y-90375000D03*
D14*
X98462500Y-90375000D03*
D13*
X103542500Y-90375000D03*
D15*
X101002500Y-85295000D03*
X94652500Y-87835000D03*
%TD*%
D10*
%TO.C,D25*%
X236500000Y-75120000D03*
D11*
X236500000Y-67500000D03*
%TD*%
D10*
%TO.C,D58*%
X160000000Y-75310000D03*
D11*
X160000000Y-67690000D03*
%TD*%
D10*
%TO.C,D42*%
X89000000Y-93810000D03*
D11*
X89000000Y-86190000D03*
%TD*%
D13*
%TO.C,SW27*%
X250545000Y-128475000D03*
D14*
X255625000Y-128475000D03*
D13*
X260705000Y-128475000D03*
D15*
X258165000Y-123395000D03*
X251815000Y-125935000D03*
%TD*%
D10*
%TO.C,D45*%
X274500000Y-76120000D03*
D11*
X274500000Y-68500000D03*
%TD*%
D10*
%TO.C,D61*%
X43500000Y-75810000D03*
D11*
X43500000Y-68190000D03*
%TD*%
D10*
%TO.C,D29*%
X222000000Y-94620000D03*
D11*
X222000000Y-87000000D03*
%TD*%
D13*
%TO.C,SW6*%
X150532500Y-90375000D03*
D14*
X155612500Y-90375000D03*
D13*
X160692500Y-90375000D03*
D15*
X158152500Y-85295000D03*
X151802500Y-87835000D03*
%TD*%
D10*
%TO.C,D37*%
X265000000Y-132620000D03*
D11*
X265000000Y-125000000D03*
%TD*%
D13*
%TO.C,SW2*%
X136245000Y-52275000D03*
D14*
X141325000Y-52275000D03*
D13*
X146405000Y-52275000D03*
D15*
X143865000Y-47195000D03*
X137515000Y-49735000D03*
%TD*%
D13*
%TO.C,SW41*%
X245782500Y-90375000D03*
D14*
X250862500Y-90375000D03*
D13*
X255942500Y-90375000D03*
D15*
X253402500Y-85295000D03*
X247052500Y-87835000D03*
%TD*%
D10*
%TO.C,D47*%
X87500000Y-132810000D03*
D11*
X87500000Y-125190000D03*
%TD*%
D10*
%TO.C,D20*%
X188500000Y-56120000D03*
D11*
X188500000Y-48500000D03*
%TD*%
D10*
%TO.C,D51*%
X246000000Y-55810000D03*
D11*
X246000000Y-48190000D03*
%TD*%
D10*
%TO.C,D62*%
X302000000Y-56810000D03*
D11*
X302000000Y-49190000D03*
%TD*%
D10*
%TO.C,D7*%
X79000000Y-114120000D03*
D11*
X79000000Y-106500000D03*
%TD*%
D13*
%TO.C,SW7*%
X64807500Y-109425000D03*
D14*
X69887500Y-109425000D03*
D13*
X74967500Y-109425000D03*
D15*
X72427500Y-104345000D03*
X66077500Y-106885000D03*
%TD*%
D13*
%TO.C,SW52*%
X160057500Y-109425000D03*
D14*
X165137500Y-109425000D03*
D13*
X170217500Y-109425000D03*
D15*
X167677500Y-104345000D03*
X161327500Y-106885000D03*
%TD*%
D10*
%TO.C,D14*%
X203000000Y-94620000D03*
D11*
X203000000Y-87000000D03*
%TD*%
D13*
%TO.C,SW14*%
X188632500Y-90375000D03*
D14*
X193712500Y-90375000D03*
D13*
X198792500Y-90375000D03*
D15*
X196252500Y-85295000D03*
X189902500Y-87835000D03*
%TD*%
D10*
%TO.C,D21*%
X103500000Y-75620000D03*
D11*
X103500000Y-68000000D03*
%TD*%
D16*
%TO.C,SW62*%
X27031250Y-102425000D03*
D14*
X27031250Y-117665000D03*
D13*
X33851250Y-109425000D03*
D14*
X38931250Y-109425000D03*
D13*
X44011250Y-109425000D03*
D16*
X50831250Y-102425000D03*
D14*
X50831250Y-117665000D03*
D15*
X41471250Y-104345000D03*
X35121250Y-106885000D03*
%TD*%
D10*
%TO.C,D48*%
X46500000Y-94620000D03*
D11*
X46500000Y-87000000D03*
%TD*%
D13*
%TO.C,SW35*%
X236257500Y-109425000D03*
D14*
X241337500Y-109425000D03*
D13*
X246417500Y-109425000D03*
D15*
X243877500Y-104345000D03*
X237527500Y-106885000D03*
%TD*%
D10*
%TO.C,D40*%
X246000000Y-131620000D03*
D11*
X246000000Y-124000000D03*
%TD*%
D10*
%TO.C,D10*%
X55500000Y-55620000D03*
D11*
X55500000Y-48000000D03*
%TD*%
D10*
%TO.C,D2*%
X151000000Y-56310000D03*
D11*
X151000000Y-48690000D03*
%TD*%
D10*
%TO.C,D9*%
X304000000Y-133120000D03*
D11*
X304000000Y-125500000D03*
%TD*%
D13*
%TO.C,SW48*%
X145770000Y-71325000D03*
D14*
X150850000Y-71325000D03*
D13*
X155930000Y-71325000D03*
D15*
X153390000Y-66245000D03*
X147040000Y-68785000D03*
%TD*%
D13*
%TO.C,SW58*%
X29088750Y-90375000D03*
D14*
X34168750Y-90375000D03*
D13*
X39248750Y-90375000D03*
D15*
X36708750Y-85295000D03*
X30358750Y-87835000D03*
%TD*%
D13*
%TO.C,SW5*%
X169582500Y-90375000D03*
D14*
X174662500Y-90375000D03*
D13*
X179742500Y-90375000D03*
D15*
X177202500Y-85295000D03*
X170852500Y-87835000D03*
%TD*%
D10*
%TO.C,D12*%
X84000000Y-75120000D03*
D11*
X84000000Y-67500000D03*
%TD*%
D10*
%TO.C,D19*%
X74500000Y-56120000D03*
D11*
X74500000Y-48500000D03*
%TD*%
D13*
%TO.C,SW18*%
X269595000Y-128475000D03*
D14*
X274675000Y-128475000D03*
D13*
X279755000Y-128475000D03*
D15*
X277215000Y-123395000D03*
X270865000Y-125935000D03*
%TD*%
D13*
%TO.C,SW21*%
X88620000Y-71325000D03*
D14*
X93700000Y-71325000D03*
D13*
X98780000Y-71325000D03*
D15*
X96240000Y-66245000D03*
X89890000Y-68785000D03*
%TD*%
D13*
%TO.C,SW55*%
X71951250Y-128475000D03*
D14*
X77031250Y-128475000D03*
D13*
X82111250Y-128475000D03*
D15*
X79571250Y-123395000D03*
X73221250Y-125935000D03*
%TD*%
D16*
%TO.C,SW60*%
X272300000Y-45275000D03*
D14*
X272300000Y-60515000D03*
D13*
X279120000Y-52275000D03*
D14*
X284200000Y-52275000D03*
D13*
X289280000Y-52275000D03*
D16*
X296100000Y-45275000D03*
D14*
X296100000Y-60515000D03*
D15*
X286740000Y-47195000D03*
X280390000Y-49735000D03*
%TD*%
D13*
%TO.C,SW19*%
X60045000Y-52275000D03*
D14*
X65125000Y-52275000D03*
D13*
X70205000Y-52275000D03*
D15*
X67665000Y-47195000D03*
X61315000Y-49735000D03*
%TD*%
D10*
%TO.C,D30*%
X232000000Y-113620000D03*
D11*
X232000000Y-106000000D03*
%TD*%
D13*
%TO.C,SW36*%
X231495000Y-128475000D03*
D14*
X236575000Y-128475000D03*
D13*
X241655000Y-128475000D03*
D15*
X239115000Y-123395000D03*
X232765000Y-125935000D03*
%TD*%
D13*
%TO.C,SW25*%
X102907500Y-109425000D03*
D14*
X107987500Y-109425000D03*
D13*
X113067500Y-109425000D03*
D15*
X110527500Y-104345000D03*
X104177500Y-106885000D03*
%TD*%
D10*
%TO.C,D55*%
X279500000Y-113810000D03*
D11*
X279500000Y-106190000D03*
%TD*%
D13*
%TO.C,SW4*%
X164820000Y-71325000D03*
D14*
X169900000Y-71325000D03*
D13*
X174980000Y-71325000D03*
D15*
X172440000Y-66245000D03*
X166090000Y-68785000D03*
%TD*%
D10*
%TO.C,D59*%
X69500000Y-94810000D03*
D11*
X69500000Y-87190000D03*
%TD*%
D13*
%TO.C,SW47*%
X231495000Y-52275000D03*
D14*
X236575000Y-52275000D03*
D13*
X241655000Y-52275000D03*
D15*
X239115000Y-47195000D03*
X232765000Y-49735000D03*
%TD*%
D10*
%TO.C,D6*%
X165000000Y-93120000D03*
D11*
X165000000Y-85500000D03*
%TD*%
D13*
%TO.C,SW44*%
X288645000Y-109425000D03*
D14*
X293725000Y-109425000D03*
D13*
X298805000Y-109425000D03*
D15*
X296265000Y-104345000D03*
X289915000Y-106885000D03*
%TD*%
D13*
%TO.C,SW9*%
X288645000Y-128475000D03*
D14*
X293725000Y-128475000D03*
D13*
X298805000Y-128475000D03*
D15*
X296265000Y-123395000D03*
X289915000Y-125935000D03*
%TD*%
D13*
%TO.C,SW24*%
X112432500Y-90375000D03*
D14*
X117512500Y-90375000D03*
D13*
X122592500Y-90375000D03*
D15*
X120052500Y-85295000D03*
X113702500Y-87835000D03*
%TD*%
D18*
%TO.C,U1*%
X309680000Y-43810000D03*
D19*
X309680000Y-46350000D03*
X309680000Y-48890000D03*
X309680000Y-51430000D03*
X309680000Y-53970000D03*
X309680000Y-56510000D03*
X309680000Y-59050000D03*
X309680000Y-61590000D03*
X309680000Y-64130000D03*
X309680000Y-66670000D03*
X309680000Y-69210000D03*
X309680000Y-71750000D03*
X309680000Y-74290000D03*
X324920000Y-43810000D03*
X324920000Y-71750000D03*
X324920000Y-74290000D03*
X324920000Y-46350000D03*
X324920000Y-69210000D03*
X324920000Y-48890000D03*
X324920000Y-66670000D03*
X324920000Y-51430000D03*
X324920000Y-64130000D03*
X324920000Y-53970000D03*
X324920000Y-56510000D03*
X324920000Y-59050000D03*
X324920000Y-61590000D03*
%TD*%
D10*
%TO.C,D27*%
X113000000Y-56620000D03*
D11*
X113000000Y-49000000D03*
%TD*%
D13*
%TO.C,SW42*%
X74332500Y-90375000D03*
D14*
X79412500Y-90375000D03*
D13*
X84492500Y-90375000D03*
D15*
X81952500Y-85295000D03*
X75602500Y-87835000D03*
%TD*%
D13*
%TO.C,SW11*%
X155295000Y-52275000D03*
D14*
X160375000Y-52275000D03*
D13*
X165455000Y-52275000D03*
D15*
X162915000Y-47195000D03*
X156565000Y-49735000D03*
%TD*%
D13*
%TO.C,SW59*%
X262451250Y-109425000D03*
D14*
X267531250Y-109425000D03*
D13*
X272611250Y-109425000D03*
D15*
X270071250Y-104345000D03*
X263721250Y-106885000D03*
%TD*%
D10*
%TO.C,D3*%
X264500000Y-56620000D03*
D11*
X264500000Y-49000000D03*
%TD*%
D13*
%TO.C,SW20*%
X174345000Y-52275000D03*
D14*
X179425000Y-52275000D03*
D13*
X184505000Y-52275000D03*
D15*
X181965000Y-47195000D03*
X175615000Y-49735000D03*
%TD*%
D13*
%TO.C,SW53*%
X48138750Y-128475000D03*
D14*
X53218750Y-128475000D03*
D13*
X58298750Y-128475000D03*
D15*
X55758750Y-123395000D03*
X49408750Y-125935000D03*
%TD*%
D10*
%TO.C,D57*%
X227000000Y-132810000D03*
D11*
X227000000Y-125190000D03*
%TD*%
D13*
%TO.C,SW43*%
X141007500Y-109425000D03*
D14*
X146087500Y-109425000D03*
D13*
X151167500Y-109425000D03*
D15*
X148627500Y-104345000D03*
X142277500Y-106885000D03*
%TD*%
M02*
