%TF.GenerationSoftware,KiCad,Pcbnew,10.0.0*%
%TF.CreationDate,2026-05-26T16:27:38-04:00*%
%TF.ProjectId,keyboard,6b657962-6f61-4726-942e-6b696361645f,rev?*%
%TF.SameCoordinates,Original*%
%TF.FileFunction,Legend,Bot*%
%TF.FilePolarity,Positive*%
%FSLAX46Y46*%
G04 Gerber Fmt 4.6, Leading zero omitted, Abs format (unit mm)*
G04 Created by KiCad (PCBNEW 10.0.0) date 2026-05-26 16:27:38*
%MOMM*%
%LPD*%
G01*
G04 APERTURE LIST*
%ADD10C,0.150000*%
%ADD11C,0.381000*%
%ADD12R,1.752600X1.752600*%
%ADD13C,1.752600*%
G04 APERTURE END LIST*
D10*
X312390475Y-74642295D02*
X312390475Y-73842295D01*
X312390475Y-73842295D02*
X312199999Y-73842295D01*
X312199999Y-73842295D02*
X312085713Y-73880390D01*
X312085713Y-73880390D02*
X312009523Y-73956580D01*
X312009523Y-73956580D02*
X311971428Y-74032771D01*
X311971428Y-74032771D02*
X311933332Y-74185152D01*
X311933332Y-74185152D02*
X311933332Y-74299438D01*
X311933332Y-74299438D02*
X311971428Y-74451819D01*
X311971428Y-74451819D02*
X312009523Y-74528009D01*
X312009523Y-74528009D02*
X312085713Y-74604200D01*
X312085713Y-74604200D02*
X312199999Y-74642295D01*
X312199999Y-74642295D02*
X312390475Y-74642295D01*
X311552380Y-74642295D02*
X311399999Y-74642295D01*
X311399999Y-74642295D02*
X311323809Y-74604200D01*
X311323809Y-74604200D02*
X311285713Y-74566104D01*
X311285713Y-74566104D02*
X311209523Y-74451819D01*
X311209523Y-74451819D02*
X311171428Y-74299438D01*
X311171428Y-74299438D02*
X311171428Y-73994676D01*
X311171428Y-73994676D02*
X311209523Y-73918485D01*
X311209523Y-73918485D02*
X311247618Y-73880390D01*
X311247618Y-73880390D02*
X311323809Y-73842295D01*
X311323809Y-73842295D02*
X311476190Y-73842295D01*
X311476190Y-73842295D02*
X311552380Y-73880390D01*
X311552380Y-73880390D02*
X311590475Y-73918485D01*
X311590475Y-73918485D02*
X311628571Y-73994676D01*
X311628571Y-73994676D02*
X311628571Y-74185152D01*
X311628571Y-74185152D02*
X311590475Y-74261342D01*
X311590475Y-74261342D02*
X311552380Y-74299438D01*
X311552380Y-74299438D02*
X311476190Y-74337533D01*
X311476190Y-74337533D02*
X311323809Y-74337533D01*
X311323809Y-74337533D02*
X311247618Y-74299438D01*
X311247618Y-74299438D02*
X311209523Y-74261342D01*
X311209523Y-74261342D02*
X311171428Y-74185152D01*
X312429475Y-46712295D02*
X312429475Y-45912295D01*
X312429475Y-45912295D02*
X312238999Y-45912295D01*
X312238999Y-45912295D02*
X312124713Y-45950390D01*
X312124713Y-45950390D02*
X312048523Y-46026580D01*
X312048523Y-46026580D02*
X312010428Y-46102771D01*
X312010428Y-46102771D02*
X311972332Y-46255152D01*
X311972332Y-46255152D02*
X311972332Y-46369438D01*
X311972332Y-46369438D02*
X312010428Y-46521819D01*
X312010428Y-46521819D02*
X312048523Y-46598009D01*
X312048523Y-46598009D02*
X312124713Y-46674200D01*
X312124713Y-46674200D02*
X312238999Y-46712295D01*
X312238999Y-46712295D02*
X312429475Y-46712295D01*
X311477094Y-45912295D02*
X311400904Y-45912295D01*
X311400904Y-45912295D02*
X311324713Y-45950390D01*
X311324713Y-45950390D02*
X311286618Y-45988485D01*
X311286618Y-45988485D02*
X311248523Y-46064676D01*
X311248523Y-46064676D02*
X311210428Y-46217057D01*
X311210428Y-46217057D02*
X311210428Y-46407533D01*
X311210428Y-46407533D02*
X311248523Y-46559914D01*
X311248523Y-46559914D02*
X311286618Y-46636104D01*
X311286618Y-46636104D02*
X311324713Y-46674200D01*
X311324713Y-46674200D02*
X311400904Y-46712295D01*
X311400904Y-46712295D02*
X311477094Y-46712295D01*
X311477094Y-46712295D02*
X311553285Y-46674200D01*
X311553285Y-46674200D02*
X311591380Y-46636104D01*
X311591380Y-46636104D02*
X311629475Y-46559914D01*
X311629475Y-46559914D02*
X311667571Y-46407533D01*
X311667571Y-46407533D02*
X311667571Y-46217057D01*
X311667571Y-46217057D02*
X311629475Y-46064676D01*
X311629475Y-46064676D02*
X311591380Y-45988485D01*
X311591380Y-45988485D02*
X311553285Y-45950390D01*
X311553285Y-45950390D02*
X311477094Y-45912295D01*
X312429475Y-49252295D02*
X312429475Y-48452295D01*
X312429475Y-48452295D02*
X312238999Y-48452295D01*
X312238999Y-48452295D02*
X312124713Y-48490390D01*
X312124713Y-48490390D02*
X312048523Y-48566580D01*
X312048523Y-48566580D02*
X312010428Y-48642771D01*
X312010428Y-48642771D02*
X311972332Y-48795152D01*
X311972332Y-48795152D02*
X311972332Y-48909438D01*
X311972332Y-48909438D02*
X312010428Y-49061819D01*
X312010428Y-49061819D02*
X312048523Y-49138009D01*
X312048523Y-49138009D02*
X312124713Y-49214200D01*
X312124713Y-49214200D02*
X312238999Y-49252295D01*
X312238999Y-49252295D02*
X312429475Y-49252295D01*
X311210428Y-49252295D02*
X311667571Y-49252295D01*
X311438999Y-49252295D02*
X311438999Y-48452295D01*
X311438999Y-48452295D02*
X311515190Y-48566580D01*
X311515190Y-48566580D02*
X311591380Y-48642771D01*
X311591380Y-48642771D02*
X311667571Y-48680866D01*
X312429475Y-56872295D02*
X312429475Y-56072295D01*
X312429475Y-56072295D02*
X312238999Y-56072295D01*
X312238999Y-56072295D02*
X312124713Y-56110390D01*
X312124713Y-56110390D02*
X312048523Y-56186580D01*
X312048523Y-56186580D02*
X312010428Y-56262771D01*
X312010428Y-56262771D02*
X311972332Y-56415152D01*
X311972332Y-56415152D02*
X311972332Y-56529438D01*
X311972332Y-56529438D02*
X312010428Y-56681819D01*
X312010428Y-56681819D02*
X312048523Y-56758009D01*
X312048523Y-56758009D02*
X312124713Y-56834200D01*
X312124713Y-56834200D02*
X312238999Y-56872295D01*
X312238999Y-56872295D02*
X312429475Y-56872295D01*
X311667571Y-56148485D02*
X311629475Y-56110390D01*
X311629475Y-56110390D02*
X311553285Y-56072295D01*
X311553285Y-56072295D02*
X311362809Y-56072295D01*
X311362809Y-56072295D02*
X311286618Y-56110390D01*
X311286618Y-56110390D02*
X311248523Y-56148485D01*
X311248523Y-56148485D02*
X311210428Y-56224676D01*
X311210428Y-56224676D02*
X311210428Y-56300866D01*
X311210428Y-56300866D02*
X311248523Y-56415152D01*
X311248523Y-56415152D02*
X311705666Y-56872295D01*
X311705666Y-56872295D02*
X311210428Y-56872295D01*
X312429475Y-59412295D02*
X312429475Y-58612295D01*
X312429475Y-58612295D02*
X312238999Y-58612295D01*
X312238999Y-58612295D02*
X312124713Y-58650390D01*
X312124713Y-58650390D02*
X312048523Y-58726580D01*
X312048523Y-58726580D02*
X312010428Y-58802771D01*
X312010428Y-58802771D02*
X311972332Y-58955152D01*
X311972332Y-58955152D02*
X311972332Y-59069438D01*
X311972332Y-59069438D02*
X312010428Y-59221819D01*
X312010428Y-59221819D02*
X312048523Y-59298009D01*
X312048523Y-59298009D02*
X312124713Y-59374200D01*
X312124713Y-59374200D02*
X312238999Y-59412295D01*
X312238999Y-59412295D02*
X312429475Y-59412295D01*
X311705666Y-58612295D02*
X311210428Y-58612295D01*
X311210428Y-58612295D02*
X311477094Y-58917057D01*
X311477094Y-58917057D02*
X311362809Y-58917057D01*
X311362809Y-58917057D02*
X311286618Y-58955152D01*
X311286618Y-58955152D02*
X311248523Y-58993247D01*
X311248523Y-58993247D02*
X311210428Y-59069438D01*
X311210428Y-59069438D02*
X311210428Y-59259914D01*
X311210428Y-59259914D02*
X311248523Y-59336104D01*
X311248523Y-59336104D02*
X311286618Y-59374200D01*
X311286618Y-59374200D02*
X311362809Y-59412295D01*
X311362809Y-59412295D02*
X311591380Y-59412295D01*
X311591380Y-59412295D02*
X311667571Y-59374200D01*
X311667571Y-59374200D02*
X311705666Y-59336104D01*
X312429475Y-61952295D02*
X312429475Y-61152295D01*
X312429475Y-61152295D02*
X312238999Y-61152295D01*
X312238999Y-61152295D02*
X312124713Y-61190390D01*
X312124713Y-61190390D02*
X312048523Y-61266580D01*
X312048523Y-61266580D02*
X312010428Y-61342771D01*
X312010428Y-61342771D02*
X311972332Y-61495152D01*
X311972332Y-61495152D02*
X311972332Y-61609438D01*
X311972332Y-61609438D02*
X312010428Y-61761819D01*
X312010428Y-61761819D02*
X312048523Y-61838009D01*
X312048523Y-61838009D02*
X312124713Y-61914200D01*
X312124713Y-61914200D02*
X312238999Y-61952295D01*
X312238999Y-61952295D02*
X312429475Y-61952295D01*
X311286618Y-61418961D02*
X311286618Y-61952295D01*
X311477094Y-61114200D02*
X311667571Y-61685628D01*
X311667571Y-61685628D02*
X311172332Y-61685628D01*
X312429475Y-64492295D02*
X312429475Y-63692295D01*
X312429475Y-63692295D02*
X312238999Y-63692295D01*
X312238999Y-63692295D02*
X312124713Y-63730390D01*
X312124713Y-63730390D02*
X312048523Y-63806580D01*
X312048523Y-63806580D02*
X312010428Y-63882771D01*
X312010428Y-63882771D02*
X311972332Y-64035152D01*
X311972332Y-64035152D02*
X311972332Y-64149438D01*
X311972332Y-64149438D02*
X312010428Y-64301819D01*
X312010428Y-64301819D02*
X312048523Y-64378009D01*
X312048523Y-64378009D02*
X312124713Y-64454200D01*
X312124713Y-64454200D02*
X312238999Y-64492295D01*
X312238999Y-64492295D02*
X312429475Y-64492295D01*
X311248523Y-63692295D02*
X311629475Y-63692295D01*
X311629475Y-63692295D02*
X311667571Y-64073247D01*
X311667571Y-64073247D02*
X311629475Y-64035152D01*
X311629475Y-64035152D02*
X311553285Y-63997057D01*
X311553285Y-63997057D02*
X311362809Y-63997057D01*
X311362809Y-63997057D02*
X311286618Y-64035152D01*
X311286618Y-64035152D02*
X311248523Y-64073247D01*
X311248523Y-64073247D02*
X311210428Y-64149438D01*
X311210428Y-64149438D02*
X311210428Y-64339914D01*
X311210428Y-64339914D02*
X311248523Y-64416104D01*
X311248523Y-64416104D02*
X311286618Y-64454200D01*
X311286618Y-64454200D02*
X311362809Y-64492295D01*
X311362809Y-64492295D02*
X311553285Y-64492295D01*
X311553285Y-64492295D02*
X311629475Y-64454200D01*
X311629475Y-64454200D02*
X311667571Y-64416104D01*
X312429475Y-67032295D02*
X312429475Y-66232295D01*
X312429475Y-66232295D02*
X312238999Y-66232295D01*
X312238999Y-66232295D02*
X312124713Y-66270390D01*
X312124713Y-66270390D02*
X312048523Y-66346580D01*
X312048523Y-66346580D02*
X312010428Y-66422771D01*
X312010428Y-66422771D02*
X311972332Y-66575152D01*
X311972332Y-66575152D02*
X311972332Y-66689438D01*
X311972332Y-66689438D02*
X312010428Y-66841819D01*
X312010428Y-66841819D02*
X312048523Y-66918009D01*
X312048523Y-66918009D02*
X312124713Y-66994200D01*
X312124713Y-66994200D02*
X312238999Y-67032295D01*
X312238999Y-67032295D02*
X312429475Y-67032295D01*
X311286618Y-66232295D02*
X311438999Y-66232295D01*
X311438999Y-66232295D02*
X311515190Y-66270390D01*
X311515190Y-66270390D02*
X311553285Y-66308485D01*
X311553285Y-66308485D02*
X311629475Y-66422771D01*
X311629475Y-66422771D02*
X311667571Y-66575152D01*
X311667571Y-66575152D02*
X311667571Y-66879914D01*
X311667571Y-66879914D02*
X311629475Y-66956104D01*
X311629475Y-66956104D02*
X311591380Y-66994200D01*
X311591380Y-66994200D02*
X311515190Y-67032295D01*
X311515190Y-67032295D02*
X311362809Y-67032295D01*
X311362809Y-67032295D02*
X311286618Y-66994200D01*
X311286618Y-66994200D02*
X311248523Y-66956104D01*
X311248523Y-66956104D02*
X311210428Y-66879914D01*
X311210428Y-66879914D02*
X311210428Y-66689438D01*
X311210428Y-66689438D02*
X311248523Y-66613247D01*
X311248523Y-66613247D02*
X311286618Y-66575152D01*
X311286618Y-66575152D02*
X311362809Y-66537057D01*
X311362809Y-66537057D02*
X311515190Y-66537057D01*
X311515190Y-66537057D02*
X311591380Y-66575152D01*
X311591380Y-66575152D02*
X311629475Y-66613247D01*
X311629475Y-66613247D02*
X311667571Y-66689438D01*
X312429475Y-69572295D02*
X312429475Y-68772295D01*
X312429475Y-68772295D02*
X312238999Y-68772295D01*
X312238999Y-68772295D02*
X312124713Y-68810390D01*
X312124713Y-68810390D02*
X312048523Y-68886580D01*
X312048523Y-68886580D02*
X312010428Y-68962771D01*
X312010428Y-68962771D02*
X311972332Y-69115152D01*
X311972332Y-69115152D02*
X311972332Y-69229438D01*
X311972332Y-69229438D02*
X312010428Y-69381819D01*
X312010428Y-69381819D02*
X312048523Y-69458009D01*
X312048523Y-69458009D02*
X312124713Y-69534200D01*
X312124713Y-69534200D02*
X312238999Y-69572295D01*
X312238999Y-69572295D02*
X312429475Y-69572295D01*
X311705666Y-68772295D02*
X311172332Y-68772295D01*
X311172332Y-68772295D02*
X311515190Y-69572295D01*
X312429475Y-72112295D02*
X312429475Y-71312295D01*
X312429475Y-71312295D02*
X312238999Y-71312295D01*
X312238999Y-71312295D02*
X312124713Y-71350390D01*
X312124713Y-71350390D02*
X312048523Y-71426580D01*
X312048523Y-71426580D02*
X312010428Y-71502771D01*
X312010428Y-71502771D02*
X311972332Y-71655152D01*
X311972332Y-71655152D02*
X311972332Y-71769438D01*
X311972332Y-71769438D02*
X312010428Y-71921819D01*
X312010428Y-71921819D02*
X312048523Y-71998009D01*
X312048523Y-71998009D02*
X312124713Y-72074200D01*
X312124713Y-72074200D02*
X312238999Y-72112295D01*
X312238999Y-72112295D02*
X312429475Y-72112295D01*
X311515190Y-71655152D02*
X311591380Y-71617057D01*
X311591380Y-71617057D02*
X311629475Y-71578961D01*
X311629475Y-71578961D02*
X311667571Y-71502771D01*
X311667571Y-71502771D02*
X311667571Y-71464676D01*
X311667571Y-71464676D02*
X311629475Y-71388485D01*
X311629475Y-71388485D02*
X311591380Y-71350390D01*
X311591380Y-71350390D02*
X311515190Y-71312295D01*
X311515190Y-71312295D02*
X311362809Y-71312295D01*
X311362809Y-71312295D02*
X311286618Y-71350390D01*
X311286618Y-71350390D02*
X311248523Y-71388485D01*
X311248523Y-71388485D02*
X311210428Y-71464676D01*
X311210428Y-71464676D02*
X311210428Y-71502771D01*
X311210428Y-71502771D02*
X311248523Y-71578961D01*
X311248523Y-71578961D02*
X311286618Y-71617057D01*
X311286618Y-71617057D02*
X311362809Y-71655152D01*
X311362809Y-71655152D02*
X311515190Y-71655152D01*
X311515190Y-71655152D02*
X311591380Y-71693247D01*
X311591380Y-71693247D02*
X311629475Y-71731342D01*
X311629475Y-71731342D02*
X311667571Y-71807533D01*
X311667571Y-71807533D02*
X311667571Y-71959914D01*
X311667571Y-71959914D02*
X311629475Y-72036104D01*
X311629475Y-72036104D02*
X311591380Y-72074200D01*
X311591380Y-72074200D02*
X311515190Y-72112295D01*
X311515190Y-72112295D02*
X311362809Y-72112295D01*
X311362809Y-72112295D02*
X311286618Y-72074200D01*
X311286618Y-72074200D02*
X311248523Y-72036104D01*
X311248523Y-72036104D02*
X311210428Y-71959914D01*
X311210428Y-71959914D02*
X311210428Y-71807533D01*
X311210428Y-71807533D02*
X311248523Y-71731342D01*
X311248523Y-71731342D02*
X311286618Y-71693247D01*
X311286618Y-71693247D02*
X311362809Y-71655152D01*
X312651723Y-50954190D02*
X312727913Y-50916095D01*
X312727913Y-50916095D02*
X312842199Y-50916095D01*
X312842199Y-50916095D02*
X312956485Y-50954190D01*
X312956485Y-50954190D02*
X313032675Y-51030380D01*
X313032675Y-51030380D02*
X313070770Y-51106571D01*
X313070770Y-51106571D02*
X313108866Y-51258952D01*
X313108866Y-51258952D02*
X313108866Y-51373238D01*
X313108866Y-51373238D02*
X313070770Y-51525619D01*
X313070770Y-51525619D02*
X313032675Y-51601809D01*
X313032675Y-51601809D02*
X312956485Y-51678000D01*
X312956485Y-51678000D02*
X312842199Y-51716095D01*
X312842199Y-51716095D02*
X312766008Y-51716095D01*
X312766008Y-51716095D02*
X312651723Y-51678000D01*
X312651723Y-51678000D02*
X312613627Y-51639904D01*
X312613627Y-51639904D02*
X312613627Y-51373238D01*
X312613627Y-51373238D02*
X312766008Y-51373238D01*
X312270770Y-51716095D02*
X312270770Y-50916095D01*
X312270770Y-50916095D02*
X311813627Y-51716095D01*
X311813627Y-51716095D02*
X311813627Y-50916095D01*
X311432675Y-51716095D02*
X311432675Y-50916095D01*
X311432675Y-50916095D02*
X311242199Y-50916095D01*
X311242199Y-50916095D02*
X311127913Y-50954190D01*
X311127913Y-50954190D02*
X311051723Y-51030380D01*
X311051723Y-51030380D02*
X311013628Y-51106571D01*
X311013628Y-51106571D02*
X310975532Y-51258952D01*
X310975532Y-51258952D02*
X310975532Y-51373238D01*
X310975532Y-51373238D02*
X311013628Y-51525619D01*
X311013628Y-51525619D02*
X311051723Y-51601809D01*
X311051723Y-51601809D02*
X311127913Y-51678000D01*
X311127913Y-51678000D02*
X311242199Y-51716095D01*
X311242199Y-51716095D02*
X311432675Y-51716095D01*
X312651723Y-53494190D02*
X312727913Y-53456095D01*
X312727913Y-53456095D02*
X312842199Y-53456095D01*
X312842199Y-53456095D02*
X312956485Y-53494190D01*
X312956485Y-53494190D02*
X313032675Y-53570380D01*
X313032675Y-53570380D02*
X313070770Y-53646571D01*
X313070770Y-53646571D02*
X313108866Y-53798952D01*
X313108866Y-53798952D02*
X313108866Y-53913238D01*
X313108866Y-53913238D02*
X313070770Y-54065619D01*
X313070770Y-54065619D02*
X313032675Y-54141809D01*
X313032675Y-54141809D02*
X312956485Y-54218000D01*
X312956485Y-54218000D02*
X312842199Y-54256095D01*
X312842199Y-54256095D02*
X312766008Y-54256095D01*
X312766008Y-54256095D02*
X312651723Y-54218000D01*
X312651723Y-54218000D02*
X312613627Y-54179904D01*
X312613627Y-54179904D02*
X312613627Y-53913238D01*
X312613627Y-53913238D02*
X312766008Y-53913238D01*
X312270770Y-54256095D02*
X312270770Y-53456095D01*
X312270770Y-53456095D02*
X311813627Y-54256095D01*
X311813627Y-54256095D02*
X311813627Y-53456095D01*
X311432675Y-54256095D02*
X311432675Y-53456095D01*
X311432675Y-53456095D02*
X311242199Y-53456095D01*
X311242199Y-53456095D02*
X311127913Y-53494190D01*
X311127913Y-53494190D02*
X311051723Y-53570380D01*
X311051723Y-53570380D02*
X311013628Y-53646571D01*
X311013628Y-53646571D02*
X310975532Y-53798952D01*
X310975532Y-53798952D02*
X310975532Y-53913238D01*
X310975532Y-53913238D02*
X311013628Y-54065619D01*
X311013628Y-54065619D02*
X311051723Y-54141809D01*
X311051723Y-54141809D02*
X311127913Y-54218000D01*
X311127913Y-54218000D02*
X311242199Y-54256095D01*
X311242199Y-54256095D02*
X311432675Y-54256095D01*
X312924761Y-44172295D02*
X312924761Y-43372295D01*
X312924761Y-43372295D02*
X312734285Y-43372295D01*
X312734285Y-43372295D02*
X312619999Y-43410390D01*
X312619999Y-43410390D02*
X312543809Y-43486580D01*
X312543809Y-43486580D02*
X312505714Y-43562771D01*
X312505714Y-43562771D02*
X312467618Y-43715152D01*
X312467618Y-43715152D02*
X312467618Y-43829438D01*
X312467618Y-43829438D02*
X312505714Y-43981819D01*
X312505714Y-43981819D02*
X312543809Y-44058009D01*
X312543809Y-44058009D02*
X312619999Y-44134200D01*
X312619999Y-44134200D02*
X312734285Y-44172295D01*
X312734285Y-44172295D02*
X312924761Y-44172295D01*
X312124761Y-43867533D02*
X311515238Y-43867533D01*
X311819999Y-44172295D02*
X311819999Y-43562771D01*
X323548094Y-69496095D02*
X323548094Y-68696095D01*
X323548094Y-68696095D02*
X323281428Y-69267523D01*
X323281428Y-69267523D02*
X323014761Y-68696095D01*
X323014761Y-68696095D02*
X323014761Y-69496095D01*
X322633808Y-69496095D02*
X322633808Y-68696095D01*
X322290952Y-69458000D02*
X322176666Y-69496095D01*
X322176666Y-69496095D02*
X321986190Y-69496095D01*
X321986190Y-69496095D02*
X321909999Y-69458000D01*
X321909999Y-69458000D02*
X321871904Y-69419904D01*
X321871904Y-69419904D02*
X321833809Y-69343714D01*
X321833809Y-69343714D02*
X321833809Y-69267523D01*
X321833809Y-69267523D02*
X321871904Y-69191333D01*
X321871904Y-69191333D02*
X321909999Y-69153238D01*
X321909999Y-69153238D02*
X321986190Y-69115142D01*
X321986190Y-69115142D02*
X322138571Y-69077047D01*
X322138571Y-69077047D02*
X322214761Y-69038952D01*
X322214761Y-69038952D02*
X322252856Y-69000857D01*
X322252856Y-69000857D02*
X322290952Y-68924666D01*
X322290952Y-68924666D02*
X322290952Y-68848476D01*
X322290952Y-68848476D02*
X322252856Y-68772285D01*
X322252856Y-68772285D02*
X322214761Y-68734190D01*
X322214761Y-68734190D02*
X322138571Y-68696095D01*
X322138571Y-68696095D02*
X321948094Y-68696095D01*
X321948094Y-68696095D02*
X321833809Y-68734190D01*
X321338570Y-68696095D02*
X321186189Y-68696095D01*
X321186189Y-68696095D02*
X321109999Y-68734190D01*
X321109999Y-68734190D02*
X321033808Y-68810380D01*
X321033808Y-68810380D02*
X320995713Y-68962761D01*
X320995713Y-68962761D02*
X320995713Y-69229428D01*
X320995713Y-69229428D02*
X321033808Y-69381809D01*
X321033808Y-69381809D02*
X321109999Y-69458000D01*
X321109999Y-69458000D02*
X321186189Y-69496095D01*
X321186189Y-69496095D02*
X321338570Y-69496095D01*
X321338570Y-69496095D02*
X321414761Y-69458000D01*
X321414761Y-69458000D02*
X321490951Y-69381809D01*
X321490951Y-69381809D02*
X321529047Y-69229428D01*
X321529047Y-69229428D02*
X321529047Y-68962761D01*
X321529047Y-68962761D02*
X321490951Y-68810380D01*
X321490951Y-68810380D02*
X321414761Y-68734190D01*
X321414761Y-68734190D02*
X321338570Y-68696095D01*
X320081428Y-68658000D02*
X320767142Y-69686571D01*
X319852857Y-68772285D02*
X319814761Y-68734190D01*
X319814761Y-68734190D02*
X319738571Y-68696095D01*
X319738571Y-68696095D02*
X319548095Y-68696095D01*
X319548095Y-68696095D02*
X319471904Y-68734190D01*
X319471904Y-68734190D02*
X319433809Y-68772285D01*
X319433809Y-68772285D02*
X319395714Y-68848476D01*
X319395714Y-68848476D02*
X319395714Y-68924666D01*
X319395714Y-68924666D02*
X319433809Y-69038952D01*
X319433809Y-69038952D02*
X319890952Y-69496095D01*
X319890952Y-69496095D02*
X319395714Y-69496095D01*
X318900475Y-68696095D02*
X318824285Y-68696095D01*
X318824285Y-68696095D02*
X318748094Y-68734190D01*
X318748094Y-68734190D02*
X318709999Y-68772285D01*
X318709999Y-68772285D02*
X318671904Y-68848476D01*
X318671904Y-68848476D02*
X318633809Y-69000857D01*
X318633809Y-69000857D02*
X318633809Y-69191333D01*
X318633809Y-69191333D02*
X318671904Y-69343714D01*
X318671904Y-69343714D02*
X318709999Y-69419904D01*
X318709999Y-69419904D02*
X318748094Y-69458000D01*
X318748094Y-69458000D02*
X318824285Y-69496095D01*
X318824285Y-69496095D02*
X318900475Y-69496095D01*
X318900475Y-69496095D02*
X318976666Y-69458000D01*
X318976666Y-69458000D02*
X319014761Y-69419904D01*
X319014761Y-69419904D02*
X319052856Y-69343714D01*
X319052856Y-69343714D02*
X319090952Y-69191333D01*
X319090952Y-69191333D02*
X319090952Y-69000857D01*
X319090952Y-69000857D02*
X319052856Y-68848476D01*
X319052856Y-68848476D02*
X319014761Y-68772285D01*
X319014761Y-68772285D02*
X318976666Y-68734190D01*
X318976666Y-68734190D02*
X318900475Y-68696095D01*
X323548094Y-72036095D02*
X323548094Y-71236095D01*
X323548094Y-71236095D02*
X323281428Y-71807523D01*
X323281428Y-71807523D02*
X323014761Y-71236095D01*
X323014761Y-71236095D02*
X323014761Y-72036095D01*
X322481427Y-71236095D02*
X322329046Y-71236095D01*
X322329046Y-71236095D02*
X322252856Y-71274190D01*
X322252856Y-71274190D02*
X322176665Y-71350380D01*
X322176665Y-71350380D02*
X322138570Y-71502761D01*
X322138570Y-71502761D02*
X322138570Y-71769428D01*
X322138570Y-71769428D02*
X322176665Y-71921809D01*
X322176665Y-71921809D02*
X322252856Y-71998000D01*
X322252856Y-71998000D02*
X322329046Y-72036095D01*
X322329046Y-72036095D02*
X322481427Y-72036095D01*
X322481427Y-72036095D02*
X322557618Y-71998000D01*
X322557618Y-71998000D02*
X322633808Y-71921809D01*
X322633808Y-71921809D02*
X322671904Y-71769428D01*
X322671904Y-71769428D02*
X322671904Y-71502761D01*
X322671904Y-71502761D02*
X322633808Y-71350380D01*
X322633808Y-71350380D02*
X322557618Y-71274190D01*
X322557618Y-71274190D02*
X322481427Y-71236095D01*
X321833809Y-71998000D02*
X321719523Y-72036095D01*
X321719523Y-72036095D02*
X321529047Y-72036095D01*
X321529047Y-72036095D02*
X321452856Y-71998000D01*
X321452856Y-71998000D02*
X321414761Y-71959904D01*
X321414761Y-71959904D02*
X321376666Y-71883714D01*
X321376666Y-71883714D02*
X321376666Y-71807523D01*
X321376666Y-71807523D02*
X321414761Y-71731333D01*
X321414761Y-71731333D02*
X321452856Y-71693238D01*
X321452856Y-71693238D02*
X321529047Y-71655142D01*
X321529047Y-71655142D02*
X321681428Y-71617047D01*
X321681428Y-71617047D02*
X321757618Y-71578952D01*
X321757618Y-71578952D02*
X321795713Y-71540857D01*
X321795713Y-71540857D02*
X321833809Y-71464666D01*
X321833809Y-71464666D02*
X321833809Y-71388476D01*
X321833809Y-71388476D02*
X321795713Y-71312285D01*
X321795713Y-71312285D02*
X321757618Y-71274190D01*
X321757618Y-71274190D02*
X321681428Y-71236095D01*
X321681428Y-71236095D02*
X321490951Y-71236095D01*
X321490951Y-71236095D02*
X321376666Y-71274190D01*
X321033808Y-72036095D02*
X321033808Y-71236095D01*
X320081428Y-71198000D02*
X320767142Y-72226571D01*
X319395714Y-72036095D02*
X319852857Y-72036095D01*
X319624285Y-72036095D02*
X319624285Y-71236095D01*
X319624285Y-71236095D02*
X319700476Y-71350380D01*
X319700476Y-71350380D02*
X319776666Y-71426571D01*
X319776666Y-71426571D02*
X319852857Y-71464666D01*
X319014761Y-72036095D02*
X318862380Y-72036095D01*
X318862380Y-72036095D02*
X318786190Y-71998000D01*
X318786190Y-71998000D02*
X318748094Y-71959904D01*
X318748094Y-71959904D02*
X318671904Y-71845619D01*
X318671904Y-71845619D02*
X318633809Y-71693238D01*
X318633809Y-71693238D02*
X318633809Y-71388476D01*
X318633809Y-71388476D02*
X318671904Y-71312285D01*
X318671904Y-71312285D02*
X318709999Y-71274190D01*
X318709999Y-71274190D02*
X318786190Y-71236095D01*
X318786190Y-71236095D02*
X318938571Y-71236095D01*
X318938571Y-71236095D02*
X319014761Y-71274190D01*
X319014761Y-71274190D02*
X319052856Y-71312285D01*
X319052856Y-71312285D02*
X319090952Y-71388476D01*
X319090952Y-71388476D02*
X319090952Y-71578952D01*
X319090952Y-71578952D02*
X319052856Y-71655142D01*
X319052856Y-71655142D02*
X319014761Y-71693238D01*
X319014761Y-71693238D02*
X318938571Y-71731333D01*
X318938571Y-71731333D02*
X318786190Y-71731333D01*
X318786190Y-71731333D02*
X318709999Y-71693238D01*
X318709999Y-71693238D02*
X318671904Y-71655142D01*
X318671904Y-71655142D02*
X318633809Y-71578952D01*
X323598924Y-66994200D02*
X323484638Y-67032295D01*
X323484638Y-67032295D02*
X323294162Y-67032295D01*
X323294162Y-67032295D02*
X323217971Y-66994200D01*
X323217971Y-66994200D02*
X323179876Y-66956104D01*
X323179876Y-66956104D02*
X323141781Y-66879914D01*
X323141781Y-66879914D02*
X323141781Y-66803723D01*
X323141781Y-66803723D02*
X323179876Y-66727533D01*
X323179876Y-66727533D02*
X323217971Y-66689438D01*
X323217971Y-66689438D02*
X323294162Y-66651342D01*
X323294162Y-66651342D02*
X323446543Y-66613247D01*
X323446543Y-66613247D02*
X323522733Y-66575152D01*
X323522733Y-66575152D02*
X323560828Y-66537057D01*
X323560828Y-66537057D02*
X323598924Y-66460866D01*
X323598924Y-66460866D02*
X323598924Y-66384676D01*
X323598924Y-66384676D02*
X323560828Y-66308485D01*
X323560828Y-66308485D02*
X323522733Y-66270390D01*
X323522733Y-66270390D02*
X323446543Y-66232295D01*
X323446543Y-66232295D02*
X323256066Y-66232295D01*
X323256066Y-66232295D02*
X323141781Y-66270390D01*
X322341780Y-66956104D02*
X322379876Y-66994200D01*
X322379876Y-66994200D02*
X322494161Y-67032295D01*
X322494161Y-67032295D02*
X322570352Y-67032295D01*
X322570352Y-67032295D02*
X322684638Y-66994200D01*
X322684638Y-66994200D02*
X322760828Y-66918009D01*
X322760828Y-66918009D02*
X322798923Y-66841819D01*
X322798923Y-66841819D02*
X322837019Y-66689438D01*
X322837019Y-66689438D02*
X322837019Y-66575152D01*
X322837019Y-66575152D02*
X322798923Y-66422771D01*
X322798923Y-66422771D02*
X322760828Y-66346580D01*
X322760828Y-66346580D02*
X322684638Y-66270390D01*
X322684638Y-66270390D02*
X322570352Y-66232295D01*
X322570352Y-66232295D02*
X322494161Y-66232295D01*
X322494161Y-66232295D02*
X322379876Y-66270390D01*
X322379876Y-66270390D02*
X322341780Y-66308485D01*
X321998923Y-67032295D02*
X321998923Y-66232295D01*
X321541780Y-67032295D02*
X321884638Y-66575152D01*
X321541780Y-66232295D02*
X321998923Y-66689438D01*
X320627495Y-66194200D02*
X321313209Y-67222771D01*
X319941781Y-67032295D02*
X320398924Y-67032295D01*
X320170352Y-67032295D02*
X320170352Y-66232295D01*
X320170352Y-66232295D02*
X320246543Y-66346580D01*
X320246543Y-66346580D02*
X320322733Y-66422771D01*
X320322733Y-66422771D02*
X320398924Y-66460866D01*
X319484638Y-66575152D02*
X319560828Y-66537057D01*
X319560828Y-66537057D02*
X319598923Y-66498961D01*
X319598923Y-66498961D02*
X319637019Y-66422771D01*
X319637019Y-66422771D02*
X319637019Y-66384676D01*
X319637019Y-66384676D02*
X319598923Y-66308485D01*
X319598923Y-66308485D02*
X319560828Y-66270390D01*
X319560828Y-66270390D02*
X319484638Y-66232295D01*
X319484638Y-66232295D02*
X319332257Y-66232295D01*
X319332257Y-66232295D02*
X319256066Y-66270390D01*
X319256066Y-66270390D02*
X319217971Y-66308485D01*
X319217971Y-66308485D02*
X319179876Y-66384676D01*
X319179876Y-66384676D02*
X319179876Y-66422771D01*
X319179876Y-66422771D02*
X319217971Y-66498961D01*
X319217971Y-66498961D02*
X319256066Y-66537057D01*
X319256066Y-66537057D02*
X319332257Y-66575152D01*
X319332257Y-66575152D02*
X319484638Y-66575152D01*
X319484638Y-66575152D02*
X319560828Y-66613247D01*
X319560828Y-66613247D02*
X319598923Y-66651342D01*
X319598923Y-66651342D02*
X319637019Y-66727533D01*
X319637019Y-66727533D02*
X319637019Y-66879914D01*
X319637019Y-66879914D02*
X319598923Y-66956104D01*
X319598923Y-66956104D02*
X319560828Y-66994200D01*
X319560828Y-66994200D02*
X319484638Y-67032295D01*
X319484638Y-67032295D02*
X319332257Y-67032295D01*
X319332257Y-67032295D02*
X319256066Y-66994200D01*
X319256066Y-66994200D02*
X319217971Y-66956104D01*
X319217971Y-66956104D02*
X319179876Y-66879914D01*
X319179876Y-66879914D02*
X319179876Y-66727533D01*
X319179876Y-66727533D02*
X319217971Y-66651342D01*
X319217971Y-66651342D02*
X319256066Y-66613247D01*
X319256066Y-66613247D02*
X319332257Y-66575152D01*
X323522781Y-56567523D02*
X323141828Y-56567523D01*
X323598971Y-56796095D02*
X323332304Y-55996095D01*
X323332304Y-55996095D02*
X323065638Y-56796095D01*
X322875162Y-55996095D02*
X322379924Y-55996095D01*
X322379924Y-55996095D02*
X322646590Y-56300857D01*
X322646590Y-56300857D02*
X322532305Y-56300857D01*
X322532305Y-56300857D02*
X322456114Y-56338952D01*
X322456114Y-56338952D02*
X322418019Y-56377047D01*
X322418019Y-56377047D02*
X322379924Y-56453238D01*
X322379924Y-56453238D02*
X322379924Y-56643714D01*
X322379924Y-56643714D02*
X322418019Y-56719904D01*
X322418019Y-56719904D02*
X322456114Y-56758000D01*
X322456114Y-56758000D02*
X322532305Y-56796095D01*
X322532305Y-56796095D02*
X322760876Y-56796095D01*
X322760876Y-56796095D02*
X322837067Y-56758000D01*
X322837067Y-56758000D02*
X322875162Y-56719904D01*
X321465638Y-55958000D02*
X322151352Y-56986571D01*
X321237067Y-56072285D02*
X321198971Y-56034190D01*
X321198971Y-56034190D02*
X321122781Y-55996095D01*
X321122781Y-55996095D02*
X320932305Y-55996095D01*
X320932305Y-55996095D02*
X320856114Y-56034190D01*
X320856114Y-56034190D02*
X320818019Y-56072285D01*
X320818019Y-56072285D02*
X320779924Y-56148476D01*
X320779924Y-56148476D02*
X320779924Y-56224666D01*
X320779924Y-56224666D02*
X320818019Y-56338952D01*
X320818019Y-56338952D02*
X321275162Y-56796095D01*
X321275162Y-56796095D02*
X320779924Y-56796095D01*
X320398971Y-56796095D02*
X320246590Y-56796095D01*
X320246590Y-56796095D02*
X320170400Y-56758000D01*
X320170400Y-56758000D02*
X320132304Y-56719904D01*
X320132304Y-56719904D02*
X320056114Y-56605619D01*
X320056114Y-56605619D02*
X320018019Y-56453238D01*
X320018019Y-56453238D02*
X320018019Y-56148476D01*
X320018019Y-56148476D02*
X320056114Y-56072285D01*
X320056114Y-56072285D02*
X320094209Y-56034190D01*
X320094209Y-56034190D02*
X320170400Y-55996095D01*
X320170400Y-55996095D02*
X320322781Y-55996095D01*
X320322781Y-55996095D02*
X320398971Y-56034190D01*
X320398971Y-56034190D02*
X320437066Y-56072285D01*
X320437066Y-56072285D02*
X320475162Y-56148476D01*
X320475162Y-56148476D02*
X320475162Y-56338952D01*
X320475162Y-56338952D02*
X320437066Y-56415142D01*
X320437066Y-56415142D02*
X320398971Y-56453238D01*
X320398971Y-56453238D02*
X320322781Y-56491333D01*
X320322781Y-56491333D02*
X320170400Y-56491333D01*
X320170400Y-56491333D02*
X320094209Y-56453238D01*
X320094209Y-56453238D02*
X320056114Y-56415142D01*
X320056114Y-56415142D02*
X320018019Y-56338952D01*
X323522781Y-59107523D02*
X323141828Y-59107523D01*
X323598971Y-59336095D02*
X323332304Y-58536095D01*
X323332304Y-58536095D02*
X323065638Y-59336095D01*
X322837067Y-58612285D02*
X322798971Y-58574190D01*
X322798971Y-58574190D02*
X322722781Y-58536095D01*
X322722781Y-58536095D02*
X322532305Y-58536095D01*
X322532305Y-58536095D02*
X322456114Y-58574190D01*
X322456114Y-58574190D02*
X322418019Y-58612285D01*
X322418019Y-58612285D02*
X322379924Y-58688476D01*
X322379924Y-58688476D02*
X322379924Y-58764666D01*
X322379924Y-58764666D02*
X322418019Y-58878952D01*
X322418019Y-58878952D02*
X322875162Y-59336095D01*
X322875162Y-59336095D02*
X322379924Y-59336095D01*
X321465638Y-58498000D02*
X322151352Y-59526571D01*
X321237067Y-58612285D02*
X321198971Y-58574190D01*
X321198971Y-58574190D02*
X321122781Y-58536095D01*
X321122781Y-58536095D02*
X320932305Y-58536095D01*
X320932305Y-58536095D02*
X320856114Y-58574190D01*
X320856114Y-58574190D02*
X320818019Y-58612285D01*
X320818019Y-58612285D02*
X320779924Y-58688476D01*
X320779924Y-58688476D02*
X320779924Y-58764666D01*
X320779924Y-58764666D02*
X320818019Y-58878952D01*
X320818019Y-58878952D02*
X321275162Y-59336095D01*
X321275162Y-59336095D02*
X320779924Y-59336095D01*
X320322781Y-58878952D02*
X320398971Y-58840857D01*
X320398971Y-58840857D02*
X320437066Y-58802761D01*
X320437066Y-58802761D02*
X320475162Y-58726571D01*
X320475162Y-58726571D02*
X320475162Y-58688476D01*
X320475162Y-58688476D02*
X320437066Y-58612285D01*
X320437066Y-58612285D02*
X320398971Y-58574190D01*
X320398971Y-58574190D02*
X320322781Y-58536095D01*
X320322781Y-58536095D02*
X320170400Y-58536095D01*
X320170400Y-58536095D02*
X320094209Y-58574190D01*
X320094209Y-58574190D02*
X320056114Y-58612285D01*
X320056114Y-58612285D02*
X320018019Y-58688476D01*
X320018019Y-58688476D02*
X320018019Y-58726571D01*
X320018019Y-58726571D02*
X320056114Y-58802761D01*
X320056114Y-58802761D02*
X320094209Y-58840857D01*
X320094209Y-58840857D02*
X320170400Y-58878952D01*
X320170400Y-58878952D02*
X320322781Y-58878952D01*
X320322781Y-58878952D02*
X320398971Y-58917047D01*
X320398971Y-58917047D02*
X320437066Y-58955142D01*
X320437066Y-58955142D02*
X320475162Y-59031333D01*
X320475162Y-59031333D02*
X320475162Y-59183714D01*
X320475162Y-59183714D02*
X320437066Y-59259904D01*
X320437066Y-59259904D02*
X320398971Y-59298000D01*
X320398971Y-59298000D02*
X320322781Y-59336095D01*
X320322781Y-59336095D02*
X320170400Y-59336095D01*
X320170400Y-59336095D02*
X320094209Y-59298000D01*
X320094209Y-59298000D02*
X320056114Y-59259904D01*
X320056114Y-59259904D02*
X320018019Y-59183714D01*
X320018019Y-59183714D02*
X320018019Y-59031333D01*
X320018019Y-59031333D02*
X320056114Y-58955142D01*
X320056114Y-58955142D02*
X320094209Y-58917047D01*
X320094209Y-58917047D02*
X320170400Y-58878952D01*
X323522781Y-61647523D02*
X323141828Y-61647523D01*
X323598971Y-61876095D02*
X323332304Y-61076095D01*
X323332304Y-61076095D02*
X323065638Y-61876095D01*
X322379924Y-61876095D02*
X322837067Y-61876095D01*
X322608495Y-61876095D02*
X322608495Y-61076095D01*
X322608495Y-61076095D02*
X322684686Y-61190380D01*
X322684686Y-61190380D02*
X322760876Y-61266571D01*
X322760876Y-61266571D02*
X322837067Y-61304666D01*
X321465638Y-61038000D02*
X322151352Y-62066571D01*
X321237067Y-61152285D02*
X321198971Y-61114190D01*
X321198971Y-61114190D02*
X321122781Y-61076095D01*
X321122781Y-61076095D02*
X320932305Y-61076095D01*
X320932305Y-61076095D02*
X320856114Y-61114190D01*
X320856114Y-61114190D02*
X320818019Y-61152285D01*
X320818019Y-61152285D02*
X320779924Y-61228476D01*
X320779924Y-61228476D02*
X320779924Y-61304666D01*
X320779924Y-61304666D02*
X320818019Y-61418952D01*
X320818019Y-61418952D02*
X321275162Y-61876095D01*
X321275162Y-61876095D02*
X320779924Y-61876095D01*
X320513257Y-61076095D02*
X319979923Y-61076095D01*
X319979923Y-61076095D02*
X320322781Y-61876095D01*
X323522781Y-64187523D02*
X323141828Y-64187523D01*
X323598971Y-64416095D02*
X323332304Y-63616095D01*
X323332304Y-63616095D02*
X323065638Y-64416095D01*
X322646590Y-63616095D02*
X322570400Y-63616095D01*
X322570400Y-63616095D02*
X322494209Y-63654190D01*
X322494209Y-63654190D02*
X322456114Y-63692285D01*
X322456114Y-63692285D02*
X322418019Y-63768476D01*
X322418019Y-63768476D02*
X322379924Y-63920857D01*
X322379924Y-63920857D02*
X322379924Y-64111333D01*
X322379924Y-64111333D02*
X322418019Y-64263714D01*
X322418019Y-64263714D02*
X322456114Y-64339904D01*
X322456114Y-64339904D02*
X322494209Y-64378000D01*
X322494209Y-64378000D02*
X322570400Y-64416095D01*
X322570400Y-64416095D02*
X322646590Y-64416095D01*
X322646590Y-64416095D02*
X322722781Y-64378000D01*
X322722781Y-64378000D02*
X322760876Y-64339904D01*
X322760876Y-64339904D02*
X322798971Y-64263714D01*
X322798971Y-64263714D02*
X322837067Y-64111333D01*
X322837067Y-64111333D02*
X322837067Y-63920857D01*
X322837067Y-63920857D02*
X322798971Y-63768476D01*
X322798971Y-63768476D02*
X322760876Y-63692285D01*
X322760876Y-63692285D02*
X322722781Y-63654190D01*
X322722781Y-63654190D02*
X322646590Y-63616095D01*
X321465638Y-63578000D02*
X322151352Y-64606571D01*
X321237067Y-63692285D02*
X321198971Y-63654190D01*
X321198971Y-63654190D02*
X321122781Y-63616095D01*
X321122781Y-63616095D02*
X320932305Y-63616095D01*
X320932305Y-63616095D02*
X320856114Y-63654190D01*
X320856114Y-63654190D02*
X320818019Y-63692285D01*
X320818019Y-63692285D02*
X320779924Y-63768476D01*
X320779924Y-63768476D02*
X320779924Y-63844666D01*
X320779924Y-63844666D02*
X320818019Y-63958952D01*
X320818019Y-63958952D02*
X321275162Y-64416095D01*
X321275162Y-64416095D02*
X320779924Y-64416095D01*
X320094209Y-63616095D02*
X320246590Y-63616095D01*
X320246590Y-63616095D02*
X320322781Y-63654190D01*
X320322781Y-63654190D02*
X320360876Y-63692285D01*
X320360876Y-63692285D02*
X320437066Y-63806571D01*
X320437066Y-63806571D02*
X320475162Y-63958952D01*
X320475162Y-63958952D02*
X320475162Y-64263714D01*
X320475162Y-64263714D02*
X320437066Y-64339904D01*
X320437066Y-64339904D02*
X320398971Y-64378000D01*
X320398971Y-64378000D02*
X320322781Y-64416095D01*
X320322781Y-64416095D02*
X320170400Y-64416095D01*
X320170400Y-64416095D02*
X320094209Y-64378000D01*
X320094209Y-64378000D02*
X320056114Y-64339904D01*
X320056114Y-64339904D02*
X320018019Y-64263714D01*
X320018019Y-64263714D02*
X320018019Y-64073238D01*
X320018019Y-64073238D02*
X320056114Y-63997047D01*
X320056114Y-63997047D02*
X320094209Y-63958952D01*
X320094209Y-63958952D02*
X320170400Y-63920857D01*
X320170400Y-63920857D02*
X320322781Y-63920857D01*
X320322781Y-63920857D02*
X320398971Y-63958952D01*
X320398971Y-63958952D02*
X320437066Y-63997047D01*
X320437066Y-63997047D02*
X320475162Y-64073238D01*
X322716494Y-51741495D02*
X322983161Y-51360542D01*
X323173637Y-51741495D02*
X323173637Y-50941495D01*
X323173637Y-50941495D02*
X322868875Y-50941495D01*
X322868875Y-50941495D02*
X322792685Y-50979590D01*
X322792685Y-50979590D02*
X322754590Y-51017685D01*
X322754590Y-51017685D02*
X322716494Y-51093876D01*
X322716494Y-51093876D02*
X322716494Y-51208161D01*
X322716494Y-51208161D02*
X322754590Y-51284352D01*
X322754590Y-51284352D02*
X322792685Y-51322447D01*
X322792685Y-51322447D02*
X322868875Y-51360542D01*
X322868875Y-51360542D02*
X323173637Y-51360542D01*
X322411733Y-51703400D02*
X322297447Y-51741495D01*
X322297447Y-51741495D02*
X322106971Y-51741495D01*
X322106971Y-51741495D02*
X322030780Y-51703400D01*
X322030780Y-51703400D02*
X321992685Y-51665304D01*
X321992685Y-51665304D02*
X321954590Y-51589114D01*
X321954590Y-51589114D02*
X321954590Y-51512923D01*
X321954590Y-51512923D02*
X321992685Y-51436733D01*
X321992685Y-51436733D02*
X322030780Y-51398638D01*
X322030780Y-51398638D02*
X322106971Y-51360542D01*
X322106971Y-51360542D02*
X322259352Y-51322447D01*
X322259352Y-51322447D02*
X322335542Y-51284352D01*
X322335542Y-51284352D02*
X322373637Y-51246257D01*
X322373637Y-51246257D02*
X322411733Y-51170066D01*
X322411733Y-51170066D02*
X322411733Y-51093876D01*
X322411733Y-51093876D02*
X322373637Y-51017685D01*
X322373637Y-51017685D02*
X322335542Y-50979590D01*
X322335542Y-50979590D02*
X322259352Y-50941495D01*
X322259352Y-50941495D02*
X322068875Y-50941495D01*
X322068875Y-50941495D02*
X321954590Y-50979590D01*
X321726018Y-50941495D02*
X321268875Y-50941495D01*
X321497447Y-51741495D02*
X321497447Y-50941495D01*
X323459352Y-53481495D02*
X322964114Y-53481495D01*
X322964114Y-53481495D02*
X323230780Y-53786257D01*
X323230780Y-53786257D02*
X323116495Y-53786257D01*
X323116495Y-53786257D02*
X323040304Y-53824352D01*
X323040304Y-53824352D02*
X323002209Y-53862447D01*
X323002209Y-53862447D02*
X322964114Y-53938638D01*
X322964114Y-53938638D02*
X322964114Y-54129114D01*
X322964114Y-54129114D02*
X323002209Y-54205304D01*
X323002209Y-54205304D02*
X323040304Y-54243400D01*
X323040304Y-54243400D02*
X323116495Y-54281495D01*
X323116495Y-54281495D02*
X323345066Y-54281495D01*
X323345066Y-54281495D02*
X323421257Y-54243400D01*
X323421257Y-54243400D02*
X323459352Y-54205304D01*
X322621256Y-54205304D02*
X322583161Y-54243400D01*
X322583161Y-54243400D02*
X322621256Y-54281495D01*
X322621256Y-54281495D02*
X322659352Y-54243400D01*
X322659352Y-54243400D02*
X322621256Y-54205304D01*
X322621256Y-54205304D02*
X322621256Y-54281495D01*
X322316495Y-53481495D02*
X321821257Y-53481495D01*
X321821257Y-53481495D02*
X322087923Y-53786257D01*
X322087923Y-53786257D02*
X321973638Y-53786257D01*
X321973638Y-53786257D02*
X321897447Y-53824352D01*
X321897447Y-53824352D02*
X321859352Y-53862447D01*
X321859352Y-53862447D02*
X321821257Y-53938638D01*
X321821257Y-53938638D02*
X321821257Y-54129114D01*
X321821257Y-54129114D02*
X321859352Y-54205304D01*
X321859352Y-54205304D02*
X321897447Y-54243400D01*
X321897447Y-54243400D02*
X321973638Y-54281495D01*
X321973638Y-54281495D02*
X322202209Y-54281495D01*
X322202209Y-54281495D02*
X322278400Y-54243400D01*
X322278400Y-54243400D02*
X322316495Y-54205304D01*
X321592685Y-53481495D02*
X321326018Y-54281495D01*
X321326018Y-54281495D02*
X321059352Y-53481495D01*
X323503828Y-74626895D02*
X323503828Y-73826895D01*
X323503828Y-73826895D02*
X323313352Y-73826895D01*
X323313352Y-73826895D02*
X323199066Y-73864990D01*
X323199066Y-73864990D02*
X323122876Y-73941180D01*
X323122876Y-73941180D02*
X323084781Y-74017371D01*
X323084781Y-74017371D02*
X323046685Y-74169752D01*
X323046685Y-74169752D02*
X323046685Y-74284038D01*
X323046685Y-74284038D02*
X323084781Y-74436419D01*
X323084781Y-74436419D02*
X323122876Y-74512609D01*
X323122876Y-74512609D02*
X323199066Y-74588800D01*
X323199066Y-74588800D02*
X323313352Y-74626895D01*
X323313352Y-74626895D02*
X323503828Y-74626895D01*
X322284781Y-74626895D02*
X322741924Y-74626895D01*
X322513352Y-74626895D02*
X322513352Y-73826895D01*
X322513352Y-73826895D02*
X322589543Y-73941180D01*
X322589543Y-73941180D02*
X322665733Y-74017371D01*
X322665733Y-74017371D02*
X322741924Y-74055466D01*
X321789542Y-73826895D02*
X321713352Y-73826895D01*
X321713352Y-73826895D02*
X321637161Y-73864990D01*
X321637161Y-73864990D02*
X321599066Y-73903085D01*
X321599066Y-73903085D02*
X321560971Y-73979276D01*
X321560971Y-73979276D02*
X321522876Y-74131657D01*
X321522876Y-74131657D02*
X321522876Y-74322133D01*
X321522876Y-74322133D02*
X321560971Y-74474514D01*
X321560971Y-74474514D02*
X321599066Y-74550704D01*
X321599066Y-74550704D02*
X321637161Y-74588800D01*
X321637161Y-74588800D02*
X321713352Y-74626895D01*
X321713352Y-74626895D02*
X321789542Y-74626895D01*
X321789542Y-74626895D02*
X321865733Y-74588800D01*
X321865733Y-74588800D02*
X321903828Y-74550704D01*
X321903828Y-74550704D02*
X321941923Y-74474514D01*
X321941923Y-74474514D02*
X321980019Y-74322133D01*
X321980019Y-74322133D02*
X321980019Y-74131657D01*
X321980019Y-74131657D02*
X321941923Y-73979276D01*
X321941923Y-73979276D02*
X321903828Y-73903085D01*
X321903828Y-73903085D02*
X321865733Y-73864990D01*
X321865733Y-73864990D02*
X321789542Y-73826895D01*
X323465761Y-44172295D02*
X323465761Y-43372295D01*
X323465761Y-43372295D02*
X323275285Y-43372295D01*
X323275285Y-43372295D02*
X323160999Y-43410390D01*
X323160999Y-43410390D02*
X323084809Y-43486580D01*
X323084809Y-43486580D02*
X323046714Y-43562771D01*
X323046714Y-43562771D02*
X323008618Y-43715152D01*
X323008618Y-43715152D02*
X323008618Y-43829438D01*
X323008618Y-43829438D02*
X323046714Y-43981819D01*
X323046714Y-43981819D02*
X323084809Y-44058009D01*
X323084809Y-44058009D02*
X323160999Y-44134200D01*
X323160999Y-44134200D02*
X323275285Y-44172295D01*
X323275285Y-44172295D02*
X323465761Y-44172295D01*
X322665761Y-43867533D02*
X322056238Y-43867533D01*
X323313380Y-46712295D02*
X323580047Y-46331342D01*
X323770523Y-46712295D02*
X323770523Y-45912295D01*
X323770523Y-45912295D02*
X323465761Y-45912295D01*
X323465761Y-45912295D02*
X323389571Y-45950390D01*
X323389571Y-45950390D02*
X323351476Y-45988485D01*
X323351476Y-45988485D02*
X323313380Y-46064676D01*
X323313380Y-46064676D02*
X323313380Y-46178961D01*
X323313380Y-46178961D02*
X323351476Y-46255152D01*
X323351476Y-46255152D02*
X323389571Y-46293247D01*
X323389571Y-46293247D02*
X323465761Y-46331342D01*
X323465761Y-46331342D02*
X323770523Y-46331342D01*
X323008619Y-46483723D02*
X322627666Y-46483723D01*
X323084809Y-46712295D02*
X322818142Y-45912295D01*
X322818142Y-45912295D02*
X322551476Y-46712295D01*
X322361000Y-45912295D02*
X322170524Y-46712295D01*
X322170524Y-46712295D02*
X322018143Y-46140866D01*
X322018143Y-46140866D02*
X321865762Y-46712295D01*
X321865762Y-46712295D02*
X321675286Y-45912295D01*
X323370523Y-48490390D02*
X323446713Y-48452295D01*
X323446713Y-48452295D02*
X323560999Y-48452295D01*
X323560999Y-48452295D02*
X323675285Y-48490390D01*
X323675285Y-48490390D02*
X323751475Y-48566580D01*
X323751475Y-48566580D02*
X323789570Y-48642771D01*
X323789570Y-48642771D02*
X323827666Y-48795152D01*
X323827666Y-48795152D02*
X323827666Y-48909438D01*
X323827666Y-48909438D02*
X323789570Y-49061819D01*
X323789570Y-49061819D02*
X323751475Y-49138009D01*
X323751475Y-49138009D02*
X323675285Y-49214200D01*
X323675285Y-49214200D02*
X323560999Y-49252295D01*
X323560999Y-49252295D02*
X323484808Y-49252295D01*
X323484808Y-49252295D02*
X323370523Y-49214200D01*
X323370523Y-49214200D02*
X323332427Y-49176104D01*
X323332427Y-49176104D02*
X323332427Y-48909438D01*
X323332427Y-48909438D02*
X323484808Y-48909438D01*
X322989570Y-49252295D02*
X322989570Y-48452295D01*
X322989570Y-48452295D02*
X322532427Y-49252295D01*
X322532427Y-49252295D02*
X322532427Y-48452295D01*
X322151475Y-49252295D02*
X322151475Y-48452295D01*
X322151475Y-48452295D02*
X321960999Y-48452295D01*
X321960999Y-48452295D02*
X321846713Y-48490390D01*
X321846713Y-48490390D02*
X321770523Y-48566580D01*
X321770523Y-48566580D02*
X321732428Y-48642771D01*
X321732428Y-48642771D02*
X321694332Y-48795152D01*
X321694332Y-48795152D02*
X321694332Y-48909438D01*
X321694332Y-48909438D02*
X321732428Y-49061819D01*
X321732428Y-49061819D02*
X321770523Y-49138009D01*
X321770523Y-49138009D02*
X321846713Y-49214200D01*
X321846713Y-49214200D02*
X321960999Y-49252295D01*
X321960999Y-49252295D02*
X322151475Y-49252295D01*
%TO.C,U1*%
D11*
X308410000Y-40000000D02*
X308410000Y-75560000D01*
X308410000Y-75560000D02*
X326190000Y-75560000D01*
X310950000Y-42540000D02*
X308410000Y-42540000D01*
X310950000Y-42540000D02*
X310950000Y-45080000D01*
X310950000Y-45080000D02*
X308410000Y-45080000D01*
X326190000Y-40000000D02*
X308410000Y-40000000D01*
X326190000Y-75560000D02*
X326190000Y-40000000D01*
%TD*%
D12*
%TO.C,U1*%
X309680000Y-43810000D03*
D13*
X309680000Y-46350000D03*
X309680000Y-48890000D03*
X309680000Y-51430000D03*
X309680000Y-53970000D03*
X309680000Y-56510000D03*
X309680000Y-59050000D03*
X309680000Y-61590000D03*
X309680000Y-64130000D03*
X309680000Y-66670000D03*
X309680000Y-69210000D03*
X309680000Y-71750000D03*
X309680000Y-74290000D03*
X324920000Y-43810000D03*
X324920000Y-71750000D03*
X324920000Y-74290000D03*
X324920000Y-46350000D03*
X324920000Y-69210000D03*
X324920000Y-48890000D03*
X324920000Y-66670000D03*
X324920000Y-51430000D03*
X324920000Y-64130000D03*
X324920000Y-53970000D03*
X324920000Y-56510000D03*
X324920000Y-59050000D03*
X324920000Y-61590000D03*
%TD*%
M02*
